<svg width="281" height="171" viewBox="0 0 281 171" fill="none" xmlns="http://www.w3.org/2000/svg">
<path d="M196.76 170.329L280.26 118.409V108.879L201.77 162.149L199.56 144.179L273.64 92.4889V84.9189L193.61 140.709L273.64 84.9189H234.49L49.18 100.699L1 127.739" fill="#231F20"/>
<path d="M196.76 170.329L280.26 118.409V108.879L201.77 162.149L199.56 144.179L273.64 92.4889V84.9189L193.61 140.709L273.64 84.9189H234.49L49.18 100.699L1 127.739" stroke="#F5F1EC" stroke-miterlimit="10"/>
<path d="M196.76 170.329L4.15 157.349L1 127.739L193.61 140.709L196.76 170.329Z" fill="#231F20" stroke="#F5F1EC" stroke-miterlimit="10"/>
<path d="M234.489 88.7187C234.529 93.2187 233.779 97.9187 232.069 102.819C229.909 109.009 226.039 114.739 220.559 118.339C214.689 122.189 207.389 123.349 200.379 123.009C193.369 122.669 186.509 120.919 179.659 119.389C163.529 115.769 146.599 113.249 130.589 117.379C122.279 119.519 114.529 123.389 106.349 125.979C103.959 126.739 101.469 127.389 98.9686 127.119C96.4686 126.849 93.9586 125.499 92.9586 123.199C91.0086 118.719 94.9886 116.489 96.4986 112.989C97.7186 110.149 96.0186 107.049 93.3286 105.189C88.3986 101.769 80.9886 103.909 76.7786 109.989C75.7286 111.489 74.9786 113.109 74.5186 114.719C63.3486 111.849 51.4486 106.159 45.6486 95.7387C41.7886 88.8187 40.1686 80.9687 36.9986 73.7487C34.1286 67.2087 29.6286 59.5587 30.3386 52.1787C34.1086 54.1087 37.8786 55.9987 41.5686 58.0787C45.3186 60.2087 49.4186 61.9587 53.7986 62.0287C57.5286 62.0887 61.1586 60.9487 64.6686 59.7087C69.3286 58.0587 74.0286 56.1287 77.6386 52.7687C84.3186 46.5587 84.3686 37.5087 88.7186 30.0487C89.0086 29.5587 89.4186 29.0287 89.9886 29.0587C90.5786 29.1187 90.8986 29.7787 91.0786 30.3487C93.3686 37.1787 97.0486 44.3987 100.309 51.7987C99.8986 50.8787 107.609 44.6787 108.259 44.1287C113.199 39.9187 118.569 36.2387 124.279 33.1487C136.229 26.6887 149.909 22.8187 163.559 24.3487C177.319 25.8787 189.969 32.6487 201.309 40.5787C217.209 51.6987 234.299 67.8787 234.479 88.7487L234.489 88.7187Z" fill="#F5F1EC" stroke="#231F20" stroke-miterlimit="10"/>
<path d="M74.5391 114.709C80.2891 116.199 86.8591 116.989 93.8691 116.169" stroke="#231F20" stroke-miterlimit="10" stroke-linecap="round"/>
<path d="M100.32 51.7788C104.77 61.8688 108.42 72.3088 106.63 82.5388" stroke="#231F20" stroke-miterlimit="10" stroke-linecap="round"/>
<path d="M56.4004 97.3189L66.5404 90.9189" stroke="#231F20" stroke-miterlimit="10" stroke-linecap="round"/>
<path d="M52.3086 93.6189L65.3686 88.4189" stroke="#231F20" stroke-miterlimit="10" stroke-linecap="round"/>
<path d="M100.209 74.6189L85.7188 79.8089" stroke="#231F20" stroke-miterlimit="10" stroke-linecap="round"/>
<path d="M100.459 79.8589L86.6094 82.2289" stroke="#231F20" stroke-miterlimit="10" stroke-linecap="round"/>
<path d="M97.4004 112.419C111.1 102.219 128.06 97.5388 145 97.2288C153.5 97.0688 162.02 97.9688 170.33 99.7488C179.33 101.669 187.7 105.679 196.67 107.449C201.57 108.419 206.77 108.439 211.43 106.659C216.09 104.879 220.14 101.099 221.46 96.2888" stroke="#231F20" stroke-miterlimit="10" stroke-linecap="round"/>
<path d="M186.07 62.7788C181.31 64.4688 176.5 66.1888 172.27 68.9588C168.04 71.7288 164.39 75.6788 162.97 80.5288C161.09 86.9488 163.7 93.1888 167.35 98.4188" stroke="#231F20" stroke-linecap="round" stroke-linejoin="round"/>
<path d="M50.2891 82.1589C50.2891 82.1589 58.1891 84.6189 63.6591 78.8389" stroke="#231F20" stroke-linecap="round" stroke-linejoin="round"/>
<path d="M81.5703 73.6987C81.5703 73.6987 89.8203 74.3087 93.8503 67.4487" stroke="#231F20" stroke-linecap="round" stroke-linejoin="round"/>
<path d="M97.399 112.419C96.609 112.989 96.509 113.409 96.049 113.889C95.379 114.599 94.309 116.339 93.859 117.069C92.199 119.799 92.129 121.699 93.449 123.889C89.129 128.769 82.569 130.289 78.069 127.169C74.359 124.599 73.119 119.609 74.519 114.709C74.969 113.089 75.729 111.479 76.769 109.979C80.979 103.899 88.389 101.759 93.319 105.179C95.689 106.819 97.059 109.449 97.379 112.419H97.399Z" fill="#F5F1EC" stroke="#231F20" stroke-miterlimit="10"/>
<path d="M74.6504 122.569C74.6504 122.569 78.4604 114.169 82.9404 114.239" stroke="#231F20" stroke-linecap="round" stroke-linejoin="round"/>
<path d="M79.5996 127.999C79.5996 127.999 80.7896 120.939 86.2096 118.469" stroke="#231F20" stroke-linecap="round" stroke-linejoin="round"/>
<path d="M66.4101 106.799C72.7801 110.549 75.4801 117.789 72.4401 122.969C69.4001 128.139 61.7601 129.299 55.3901 125.549C49.0201 121.799 46.3301 114.569 49.3701 109.399C52.4101 104.229 60.0401 103.059 66.4201 106.799H66.4101Z" fill="#F5F1EC" stroke="#231F20" stroke-miterlimit="10"/>
<path d="M64.0293 115.469C64.0293 115.469 71.9593 120.169 71.3993 124.619" stroke="#231F20" stroke-linecap="round" stroke-linejoin="round"/>
<path d="M58.0996 119.799C58.0996 119.799 64.9896 121.759 66.8496 127.409" stroke="#231F20" stroke-linecap="round" stroke-linejoin="round"/>
<path d="M268.02 94.6987L270.48 116.799" stroke="#231F20" stroke-miterlimit="10"/>
<path d="M199.859 149.739L268.539 102.899" stroke="#231F20" stroke-miterlimit="10"/>
<path d="M279.579 110.189L270.349 109.289L201.139 155.849" stroke="#231F20" stroke-miterlimit="10"/>
<path d="M47.8094 4.31889C47.8094 4.31889 91.7794 -4.21111 74.2794 6.07889C68.4194 9.51889 60.2394 13.8189 51.9394 17.7889C35.4494 25.6789 18.4494 32.2789 17.9594 28.3689C17.2294 22.4989 55.8494 5.97889 55.8494 5.97889C55.8494 5.97889 60.0994 23.5989 66.6694 18.6389C73.2394 13.6889 57.4494 18.0289 57.4494 18.0289C57.4494 18.0289 30.6994 29.2289 28.8494 35.7289C26.9994 42.2289 62.3194 30.5289 62.3194 30.5289C62.3194 30.5289 41.7494 19.4589 30.4394 22.7189C19.1394 25.9789 61.3594 25.4989 61.3594 25.4989C61.3594 25.4989 84.6194 0.608887 68.5294 4.03889C52.4394 7.46889 44.6094 17.1889 44.6094 17.1889C44.6094 17.1889 87.8994 8.82889 82.0294 17.3489C76.1594 25.8689 43.4994 31.1289 43.4994 31.1289" stroke="#CC7722" stroke-width="0.8" stroke-miterlimit="10"/>
</svg>
