<svg width="303" height="210" viewBox="0 0 303 210" fill="none" xmlns="http://www.w3.org/2000/svg">
<g clip-path="url(#clip0_235_710)">
<path d="M175.48 83.36C245.295 83.36 301.89 76.2593 301.89 67.5C301.89 58.7408 245.295 51.64 175.48 51.64C105.666 51.64 49.0703 58.7408 49.0703 67.5C49.0703 76.2593 105.666 83.36 175.48 83.36Z" stroke="#231F20" stroke-miterlimit="10"/>
<path d="M268.811 148.08C293.001 109.79 301.881 67.5 301.881 67.5" stroke="#282828" stroke-miterlimit="10"/>
<path d="M67.9199 122.86C68.8399 124.88 69.8099 126.91 70.8099 128.96C73.9199 135.3 77.4099 141.75 81.3099 148.08" stroke="#231F20" stroke-miterlimit="10"/>
<path d="M62.7103 110.74C54.2003 89.62 50.1403 72.36 49.2603 68.37C49.1303 67.8 49.0703 67.5 49.0703 67.5" stroke="#231F20" stroke-miterlimit="10"/>
<path d="M105.901 179.42C12.1609 154.98 -13.5391 106.52 7.2509 100.23C24.9609 94.8699 53.9009 106.79 62.7109 110.74C64.2909 114.67 66.0209 118.72 67.9209 122.86C60.1209 119.07 35.8309 108.01 23.2309 110.86C8.4909 114.2 26.1709 140.47 89.8609 160.81C94.6909 167.4 100.031 173.69 105.901 179.42V179.42Z" stroke="#231F20" stroke-miterlimit="10"/>
<path d="M109.88 180.43C108.54 180.1 107.21 179.76 105.9 179.42" stroke="#282828" stroke-miterlimit="10"/>
<path d="M95.2394 162.48C93.4094 161.93 91.6094 161.37 89.8594 160.81" stroke="#282828" stroke-miterlimit="10"/>
<path d="M268.811 148.08C249.081 179.34 219.131 207.92 175.481 208.65C146.641 209.13 123.781 196.88 105.901 179.42C100.031 173.69 94.6905 167.4 89.8605 160.81C86.8105 156.66 83.9705 152.4 81.3105 148.08H268.811Z" fill="#231F20" stroke="#231F20" stroke-miterlimit="10"/>
<path d="M201.41 145.85C202.83 144.79 204.19 143.64 205.4 142.31C211.73 135.31 214.23 124.41 217.03 115.62C220.35 105.2 223.07 94.58 225.15 83.84C225.71 80.99 226.37 77.95 225.55 75.08C225.41 74.58 214.4 82.95 213.51 83.64C209.53 86.7 205.1 89.38 200.06 90.18C195.78 90.86 191.41 90.14 187.17 89.28C181.55 88.14 175.83 86.69 171.12 83.41C165.16 79.26 161.95 72.97 159.11 66.51C158.19 64.43 152.77 53.22 151.78 60.65C150.05 73.54 142.22 104.73 142.22 104.73C142.22 104.73 137.69 126.54 146.93 134.24" stroke="#231F20" stroke-miterlimit="10"/>
<path d="M171.941 104.4C168.451 106.34 164.291 107.07 160.071 106.17C155.861 105.27 152.351 102.91 149.961 99.72C153.451 97.78 157.611 97.05 161.831 97.95C166.051 98.85 169.551 101.21 171.941 104.4Z" fill="white" stroke="#231F20" stroke-miterlimit="10"/>
<path d="M160.95 106.25C163.27 106.25 165.15 104.37 165.15 102.05C165.15 99.7304 163.27 97.85 160.95 97.85C158.63 97.85 156.75 99.7304 156.75 102.05C156.75 104.37 158.63 106.25 160.95 106.25Z" fill="#231F20"/>
<path d="M210.791 112.68C207.301 114.62 203.141 115.35 198.921 114.45C194.701 113.55 191.201 111.19 188.811 108C192.301 106.06 196.461 105.33 200.681 106.23C204.891 107.13 208.401 109.49 210.791 112.68Z" fill="white" stroke="#231F20" stroke-miterlimit="10"/>
<path d="M199.8 114.53C202.119 114.53 204 112.65 204 110.33C204 108.01 202.119 106.13 199.8 106.13C197.48 106.13 195.6 108.01 195.6 110.33C195.6 112.65 197.48 114.53 199.8 114.53Z" fill="#231F20"/>
<path d="M203.531 130.19L190.811 124.48" stroke="#231F20" stroke-miterlimit="10" stroke-linecap="round"/>
<path d="M207.64 125.26L191.76 121.41" stroke="#231F20" stroke-miterlimit="10" stroke-linecap="round"/>
<path d="M149.391 111.21L166.921 114.81" stroke="#231F20" stroke-miterlimit="10" stroke-linecap="round"/>
<path d="M149.961 117.27L166.301 117.74" stroke="#231F20" stroke-miterlimit="10" stroke-linecap="round"/>
<path d="M153.37 144.47C153.37 150.83 149.18 155.99 144.01 155.99C138.84 155.99 134.66 150.83 134.66 144.47C134.66 138.11 138.85 132.96 144.01 132.96C149.17 132.96 153.37 138.11 153.37 144.47Z" fill="#F5F1EC" stroke="#231F20" stroke-miterlimit="10"/>
<path d="M203.53 155.99C208.699 155.99 212.89 150.837 212.89 144.48C212.89 138.123 208.699 132.97 203.53 132.97C198.361 132.97 194.17 138.123 194.17 144.48C194.17 150.837 198.361 155.99 203.53 155.99Z" fill="#F5F1EC" stroke="#231F20" stroke-miterlimit="10"/>
<path d="M139.319 154.43C139.319 154.43 137.889 146.63 141.099 144.48" stroke="#231F20" stroke-linecap="round" stroke-linejoin="round"/>
<path d="M145.491 155.83C145.491 155.83 142.871 150.25 145.491 145.85" stroke="#231F20" stroke-linecap="round" stroke-linejoin="round"/>
<path d="M199.169 155.12C199.169 155.12 197.739 147.32 200.949 145.17" stroke="#231F20" stroke-linecap="round" stroke-linejoin="round"/>
<path d="M205.34 156.52C205.34 156.52 202.72 150.94 205.34 146.54" stroke="#231F20" stroke-linecap="round" stroke-linejoin="round"/>
<path d="M176.85 0.400024C176.85 0.400024 221.59 2.45002 202.16 8.33002C195.65 10.3 186.7 12.56 177.69 14.47C159.81 18.26 141.73 20.68 142.17 16.77C142.84 10.89 184.26 3.91002 184.26 3.91002C184.26 3.91002 184.26 22.03 191.8 18.76C199.35 15.49 182.98 16 182.98 16C182.98 16 154.34 20.6 151.02 26.48C147.7 32.36 184.77 29.29 184.77 29.29C184.77 29.29 167.37 13.69 155.62 14.21C143.87 14.72 185.02 24.18 185.02 24.18C185.02 24.18 213.48 5.45002 197.04 5.00002C180.59 4.55002 170.71 12.16 170.71 12.16C170.71 12.16 214.75 14.21 207.05 21.11C199.35 28.01 166.36 25.46 166.36 25.46" stroke="#CC7722" stroke-width="0.8" stroke-miterlimit="10"/>
</g>
<defs>
<clipPath id="clip0_235_710">
<rect width="302.38" height="209.17" fill="white"/>
</clipPath>
</defs>
</svg>
