<svg width="1280" height="372" viewBox="0 0 1280 372" fill="none" xmlns="http://www.w3.org/2000/svg">
<path d="M0 0H1280V372H0V0Z" fill="#F5F1EC"/>
<path d="M739 0H1280V372H739V0Z" fill="#FFFDFB"/>
<path d="M814.96 145H816.7V138.94H817.18L822.02 145H824.28L818.6 137.98L823.94 131.78H821.8L817.16 137.26H816.7V131.78H814.96V145ZM833.621 145.14L833.941 143.74C832.721 143.96 832.801 143.24 832.801 142.52V138.88C832.801 136.56 831.841 135.54 829.481 135.54C826.821 135.54 825.601 136.66 825.821 138.42L827.401 138.7C827.301 137.34 828.121 136.86 829.361 136.86C830.781 136.86 831.201 137.52 831.201 139.1V139.62C827.741 139.64 825.501 140.7 825.501 142.8C825.501 144.48 826.921 145.28 828.401 145.28C829.841 145.28 830.921 144.48 831.361 143.66C831.421 144.5 831.881 145.36 833.621 145.14ZM831.201 141.82C831.121 143 829.921 143.96 828.701 143.96C827.761 143.96 827.221 143.46 827.221 142.68C827.221 141.5 828.381 140.86 831.201 140.84V141.82ZM834.985 137.1H836.625V145H838.225V137.1H840.805V135.82H838.225V134.6C838.225 132.8 838.765 131.74 840.225 131.74C841.045 131.74 841.405 132.12 841.705 132.6L842.765 131.44C842.765 131.44 842.225 130.38 840.225 130.38C837.905 130.38 836.625 131.92 836.625 134.4V135.82H834.985V137.1ZM850.006 140.66V139.66C850.006 136.86 848.706 135.54 846.286 135.54C843.086 135.54 842.046 138 842.046 140.46C842.046 143.76 843.606 145.28 846.326 145.28C848.346 145.28 849.546 144.3 850.006 142.66L848.606 142.38C848.346 143.22 847.566 143.96 846.366 143.96C844.266 143.96 843.786 142.36 843.766 140.66H850.006ZM846.246 136.86C847.686 136.86 848.346 137.8 848.346 139.02V139.38H843.826C844.066 137.64 844.966 136.86 846.246 136.86ZM845.286 133.9L846.226 134.54L849.226 130.8L847.926 129.94L845.286 133.9ZM859.948 140.66V139.66C859.948 136.86 858.648 135.54 856.228 135.54C853.028 135.54 851.988 138 851.988 140.46C851.988 143.76 853.548 145.28 856.268 145.28C858.288 145.28 859.488 144.3 859.948 142.66L858.548 142.38C858.288 143.22 857.508 143.96 856.308 143.96C854.208 143.96 853.728 142.36 853.708 140.66H859.948ZM856.188 136.86C857.628 136.86 858.288 137.8 858.288 139.02V139.38H853.768C854.008 137.64 854.908 136.86 856.188 136.86ZM862.489 145H864.089V140.1C864.269 139.28 865.009 136.92 867.069 136.92C868.029 136.92 868.509 137.44 868.509 138.82V145H870.109V138.36C870.109 136.4 868.889 135.54 867.329 135.54C865.169 135.54 864.309 137.02 864.029 137.64V135.82H862.489V145ZM883.88 145H885.48V138.36C885.48 136.4 884.26 135.54 882.7 135.54C880.68 135.54 879.78 136.82 879.46 137.5V130.64H877.86V145H879.46V140.1C879.64 139.28 880.38 136.92 882.44 136.92C883.4 136.92 883.88 137.44 883.88 138.82V145ZM895.945 145.14L896.265 143.74C895.045 143.96 895.125 143.24 895.125 142.52V138.88C895.125 136.56 894.165 135.54 891.805 135.54C889.145 135.54 887.925 136.66 888.145 138.42L889.725 138.7C889.625 137.34 890.445 136.86 891.685 136.86C893.105 136.86 893.525 137.52 893.525 139.1V139.62C890.065 139.64 887.825 140.7 887.825 142.8C887.825 144.48 889.245 145.28 890.725 145.28C892.165 145.28 893.245 144.48 893.685 143.66C893.745 144.5 894.205 145.36 895.945 145.14ZM893.525 141.82C893.445 143 892.245 143.96 891.025 143.96C890.085 143.96 889.545 143.46 889.545 142.68C889.545 141.5 890.705 140.86 893.525 140.84V141.82ZM898.329 145H899.929V140.32C900.169 138.94 900.829 137.04 902.189 137.04C902.769 137.04 903.109 137.62 903.109 137.62L903.989 136.36C903.989 136.36 903.529 135.54 902.489 135.54C901.029 135.54 900.189 136.72 899.869 137.6V135.82H898.329V145ZM917.448 140.66V139.66C917.448 136.86 916.148 135.54 913.728 135.54C910.528 135.54 909.488 138 909.488 140.46C909.488 143.76 911.048 145.28 913.768 145.28C915.788 145.28 916.988 144.3 917.448 142.66L916.048 142.38C915.788 143.22 915.008 143.96 913.808 143.96C911.708 143.96 911.228 142.36 911.208 140.66H917.448ZM913.688 136.86C915.128 136.86 915.788 137.8 915.788 139.02V139.38H911.268C911.508 137.64 912.408 136.86 913.688 136.86ZM919.689 132.64C919.689 133.26 920.149 133.72 920.769 133.72C921.369 133.72 921.849 133.26 921.849 132.64C921.849 132.04 921.369 131.56 920.769 131.56C920.149 131.56 919.689 132.04 919.689 132.64ZM919.989 145H921.589V135.82H919.989V145ZM923.637 137.1H925.197V142.3C925.197 143.76 925.637 145.2 927.457 145.2C928.837 145.2 929.477 144.38 929.897 143.36L928.677 142.82C928.477 143.54 928.157 143.88 927.657 143.88C927.017 143.88 926.797 143.36 926.797 142.22V137.1H929.397V135.82H926.797V133.1H925.337L925.237 135.82H923.637V137.1ZM938.682 145H939.962L943.562 135.82H942.002L939.862 141.48C939.682 141.92 939.502 142.46 939.382 142.88L938.922 141.48L936.742 135.82H935.002L938.682 145ZM952.859 145.14L953.179 143.74C951.959 143.96 952.039 143.24 952.039 142.52V138.88C952.039 136.56 951.079 135.54 948.719 135.54C946.059 135.54 944.839 136.66 945.059 138.42L946.639 138.7C946.539 137.34 947.359 136.86 948.599 136.86C950.019 136.86 950.439 137.52 950.439 139.1V139.62C946.979 139.64 944.739 140.7 944.739 142.8C944.739 144.48 946.159 145.28 947.639 145.28C949.079 145.28 950.159 144.48 950.599 143.66C950.659 144.5 951.119 145.36 952.859 145.14ZM950.439 141.82C950.359 143 949.159 143.96 947.939 143.96C946.999 143.96 946.459 143.46 946.459 142.68C946.459 141.5 947.619 140.86 950.439 140.84V141.82ZM955.243 145H956.843V140.32C957.083 138.94 957.743 137.04 959.103 137.04C959.683 137.04 960.023 137.62 960.023 137.62L960.903 136.36C960.903 136.36 960.443 135.54 959.403 135.54C957.943 135.54 957.103 136.72 956.783 137.6V135.82H955.243V145ZM962.345 132.64C962.345 133.26 962.805 133.72 963.425 133.72C964.025 133.72 964.505 133.26 964.505 132.64C964.505 132.04 964.025 131.56 963.425 131.56C962.805 131.56 962.345 132.04 962.345 132.64ZM962.645 145H964.245V135.82H962.645V145ZM974.733 140.66V139.66C974.733 136.86 973.433 135.54 971.013 135.54C967.813 135.54 966.773 138 966.773 140.46C966.773 143.76 968.333 145.28 971.053 145.28C973.073 145.28 974.273 144.3 974.733 142.66L973.333 142.38C973.073 143.22 972.293 143.96 971.093 143.96C968.993 143.96 968.513 142.36 968.493 140.66H974.733ZM970.973 136.86C972.413 136.86 973.073 137.8 973.073 139.02V139.38H968.553C968.793 137.64 969.693 136.86 970.973 136.86ZM977.274 145H978.874V140.32C979.114 138.94 979.774 137.04 981.134 137.04C981.714 137.04 982.054 137.62 982.054 137.62L982.934 136.36C982.934 136.36 982.474 135.54 981.434 135.54C979.974 135.54 979.134 136.72 978.814 137.6V135.82H977.274V145ZM983.637 137.1H985.197V142.3C985.197 143.76 985.637 145.2 987.457 145.2C988.837 145.2 989.477 144.38 989.897 143.36L988.677 142.82C988.477 143.54 988.157 143.88 987.657 143.88C987.017 143.88 986.797 143.36 986.797 142.22V137.1H989.397V135.82H986.797V133.1H985.337L985.237 135.82H983.637V137.1ZM995.199 137.1H996.759V142.3C996.759 143.76 997.199 145.2 999.019 145.2C1000.4 145.2 1001.04 144.38 1001.46 143.36L1000.24 142.82C1000.04 143.54 999.719 143.88 999.219 143.88C998.579 143.88 998.359 143.36 998.359 142.22V137.1H1000.96V135.82H998.359V133.1H996.899L996.799 135.82H995.199V137.1ZM1003.09 132.64C1003.09 133.26 1003.55 133.72 1004.17 133.72C1004.77 133.72 1005.25 133.26 1005.25 132.64C1005.25 132.04 1004.77 131.56 1004.17 131.56C1003.55 131.56 1003.09 132.04 1003.09 132.64ZM1003.39 145H1004.99V135.82H1003.39V145ZM1008.08 145H1009.68V130.64H1008.08V145ZM1012.76 145H1014.1L1014.18 143.78C1014.66 144.62 1015.46 145.28 1017 145.28C1019.76 145.28 1021 142.98 1021 140.1C1021 137.84 1020 135.54 1017.16 135.54C1015.84 135.54 1014.92 136.24 1014.36 136.98V130.64H1012.76V145ZM1016.96 143.96C1015.38 143.96 1014.38 142.54 1014.38 140.48C1014.38 138.42 1015.34 136.86 1017.02 136.86C1018.42 136.86 1019.28 137.94 1019.28 140.22C1019.28 142.34 1018.64 143.96 1016.96 143.96ZM1027.24 145.28C1030.22 145.28 1031.48 143.1 1031.48 140.26C1031.48 137.28 1030.06 135.54 1027.24 135.54C1024.32 135.54 1022.96 137.56 1022.96 140.26C1022.96 143.32 1024.22 145.28 1027.24 145.28ZM1027.24 143.96C1025.58 143.96 1024.68 142.76 1024.68 140.46C1024.68 138.18 1025.58 136.86 1027.24 136.86C1028.88 136.86 1029.76 138.14 1029.76 140.46C1029.76 142.58 1028.88 143.96 1027.24 143.96ZM1040.41 145H1041.77V130.64H1040.17V136.58C1039.61 135.96 1038.67 135.54 1037.47 135.54C1034.79 135.54 1033.45 137.64 1033.45 140.56C1033.45 142.78 1034.27 145.28 1037.13 145.28C1038.71 145.28 1039.75 144.56 1040.29 143.54L1040.41 145ZM1037.47 143.96C1035.45 143.96 1035.17 141.9 1035.17 140.46C1035.17 138.14 1035.89 136.86 1037.61 136.86C1039.83 136.86 1040.17 138.9 1040.17 140.16C1040.17 142.18 1039.31 143.96 1037.47 143.96ZM1049.6 145H1051.2V140.1C1051.38 139.28 1052.12 136.92 1054.18 136.92C1055.14 136.92 1055.62 137.44 1055.62 138.82V145H1057.22V140.1C1057.4 139.28 1058.14 136.92 1060.2 136.92C1061.16 136.92 1061.64 137.44 1061.64 138.82V145H1063.24V138.36C1063.24 136.4 1062.02 135.54 1060.46 135.54C1058.14 135.54 1057.3 137.26 1057.1 137.76C1056.8 136.1 1055.76 135.54 1054.44 135.54C1052.28 135.54 1051.42 137.02 1051.14 137.64V135.82H1049.6V145ZM1073.64 140.66V139.66C1073.64 136.86 1072.34 135.54 1069.92 135.54C1066.72 135.54 1065.68 138 1065.68 140.46C1065.68 143.76 1067.24 145.28 1069.96 145.28C1071.98 145.28 1073.18 144.3 1073.64 142.66L1072.24 142.38C1071.98 143.22 1071.2 143.96 1070 143.96C1067.9 143.96 1067.42 142.36 1067.4 140.66H1073.64ZM1069.88 136.86C1071.32 136.86 1071.98 137.8 1071.98 139.02V139.38H1067.46C1067.7 137.64 1068.6 136.86 1069.88 136.86ZM1082.58 145H1083.94V130.64H1082.34V136.58C1081.78 135.96 1080.84 135.54 1079.64 135.54C1076.96 135.54 1075.62 137.64 1075.62 140.56C1075.62 142.78 1076.44 145.28 1079.3 145.28C1080.88 145.28 1081.92 144.56 1082.46 143.54L1082.58 145ZM1079.64 143.96C1077.62 143.96 1077.34 141.9 1077.34 140.46C1077.34 138.14 1078.06 136.86 1079.78 136.86C1082 136.86 1082.34 138.9 1082.34 140.16C1082.34 142.18 1081.48 143.96 1079.64 143.96ZM1097.29 145H1099.35L1095.25 139.96L1099.41 135.82H1097.35L1093.77 139.38H1093.37V130.64H1091.77V145H1093.37V140.66H1093.81L1097.29 145ZM1108.74 145.14L1109.06 143.74C1107.84 143.96 1107.92 143.24 1107.92 142.52V138.88C1107.92 136.56 1106.96 135.54 1104.6 135.54C1101.94 135.54 1100.72 136.66 1100.94 138.42L1102.52 138.7C1102.42 137.34 1103.24 136.86 1104.48 136.86C1105.9 136.86 1106.32 137.52 1106.32 139.1V139.62C1102.86 139.64 1100.62 140.7 1100.62 142.8C1100.62 144.48 1102.04 145.28 1103.52 145.28C1104.96 145.28 1106.04 144.48 1106.48 143.66C1106.54 144.5 1107 145.36 1108.74 145.14ZM1106.32 141.82C1106.24 143 1105.04 143.96 1103.82 143.96C1102.88 143.96 1102.34 143.46 1102.34 142.68C1102.34 141.5 1103.5 140.86 1106.32 140.84V141.82ZM1123.3 145H1124.9V135.82H1119.22V134.6C1119.22 132.76 1119.82 131.7 1121.24 131.7C1122.34 131.7 1122.76 132.36 1123.04 133.2L1124.4 132.34C1124.4 132.34 1124.02 130.38 1121.34 130.38C1118.96 130.38 1117.62 131.92 1117.62 134.4V135.82H1113.34V134.9C1113.34 133.06 1113.86 132 1115.24 132C1115.9 132 1116.32 132.3 1116.6 132.7L1117.58 131.64C1117.58 131.64 1117.08 130.68 1115.24 130.68C1112.98 130.68 1111.74 132.22 1111.74 134.7V135.82H1110.1V137.1H1111.74V145H1113.34V137.1H1117.62V145H1119.22V137.1H1123.3V145ZM1128.28 148.24C1129.48 147.3 1130.36 146.22 1130.36 144.8C1130.36 143.5 1129.62 142.76 1129.02 142.54L1127.52 143.72C1128.28 144.3 1128.8 144.76 1128.8 145.54C1128.8 146.28 1128.32 146.86 1127.58 147.56L1128.28 148.24ZM814.54 170H816.14V155.64H814.54V170ZM819.128 167.48C819.128 169.44 820.268 170.28 821.868 170.28C823.968 170.28 824.868 169 825.208 168.32L825.288 170H826.748V160.82H825.148V166C824.868 166.98 824.068 168.9 822.128 168.9C821.168 168.9 820.728 168.38 820.728 167.02V160.82H819.128V167.48ZM829.833 170H831.433V165.1C831.613 164.28 832.353 161.92 834.413 161.92C835.373 161.92 835.853 162.44 835.853 163.82V170H837.453V163.36C837.453 161.4 836.233 160.54 834.673 160.54C832.513 160.54 831.653 162.02 831.373 162.64V160.82H829.833V170ZM839.778 167.44C839.578 169.46 841.618 170.28 843.478 170.28C845.578 170.28 847.098 169.24 847.098 167.42C847.098 164.02 841.718 165.3 841.718 163C841.718 162.22 842.398 161.86 843.438 161.86C845.078 161.86 845.318 162.84 845.198 163.48L846.798 163.2C847.118 161.42 845.458 160.54 843.518 160.54C841.198 160.54 840.078 161.74 840.078 163.28C840.078 166.62 845.418 165.48 845.418 167.72C845.418 168.56 844.598 168.96 843.418 168.96C841.878 168.96 841.198 168.18 841.298 167.2L839.778 167.44ZM849.24 157.64C849.24 158.26 849.7 158.72 850.32 158.72C850.92 158.72 851.4 158.26 851.4 157.64C851.4 157.04 850.92 156.56 850.32 156.56C849.7 156.56 849.24 157.04 849.24 157.64ZM846.86 174.84C850.7 174.94 851.14 171.94 851.14 169.54V160.82H849.54V169C849.54 171.98 849.14 173.48 846.86 173.48V174.84ZM854.228 170H855.828V165.32C856.068 163.94 856.728 162.04 858.088 162.04C858.668 162.04 859.008 162.62 859.008 162.62L859.888 161.36C859.888 161.36 859.428 160.54 858.388 160.54C856.928 160.54 856.088 161.72 855.768 162.6V160.82H854.228V170ZM868.795 165.66V164.66C868.795 161.86 867.495 160.54 865.075 160.54C861.875 160.54 860.835 163 860.835 165.46C860.835 168.76 862.395 170.28 865.115 170.28C867.135 170.28 868.335 169.3 868.795 167.66L867.395 167.38C867.135 168.22 866.355 168.96 865.155 168.96C863.055 168.96 862.575 167.36 862.555 165.66H868.795ZM865.035 161.86C866.475 161.86 867.135 162.8 867.135 164.02V164.38H862.615C862.855 162.64 863.755 161.86 865.035 161.86ZM870.297 162.1H871.857V167.3C871.857 168.76 872.297 170.2 874.117 170.2C875.497 170.2 876.137 169.38 876.557 168.36L875.337 167.82C875.137 168.54 874.817 168.88 874.317 168.88C873.677 168.88 873.457 168.36 873.457 167.22V162.1H876.057V160.82H873.457V158.1H871.997L871.897 160.82H870.297V162.1ZM877.445 162.1H879.005V167.3C879.005 168.76 879.445 170.2 881.265 170.2C882.645 170.2 883.285 169.38 883.705 168.36L882.485 167.82C882.285 168.54 881.965 168.88 881.465 168.88C880.825 168.88 880.605 168.36 880.605 167.22V162.1H883.205V160.82H880.605V158.1H879.145L879.045 160.82H877.445V162.1ZM893.094 170.14L893.414 168.74C892.194 168.96 892.274 168.24 892.274 167.52V163.88C892.274 161.56 891.314 160.54 888.954 160.54C886.294 160.54 885.074 161.66 885.294 163.42L886.874 163.7C886.774 162.34 887.594 161.86 888.834 161.86C890.254 161.86 890.674 162.52 890.674 164.1V164.62C887.214 164.64 884.974 165.7 884.974 167.8C884.974 169.48 886.394 170.28 887.874 170.28C889.314 170.28 890.394 169.48 890.834 168.66C890.894 169.5 891.354 170.36 893.094 170.14ZM890.674 166.82C890.594 168 889.394 168.96 888.174 168.96C887.234 168.96 886.694 168.46 886.694 167.68C886.694 166.5 887.854 165.86 890.674 165.84V166.82ZM895.478 170H897.078V165.32C897.318 163.94 897.978 162.04 899.338 162.04C899.918 162.04 900.258 162.62 900.258 162.62L901.138 161.36C901.138 161.36 900.678 160.54 899.638 160.54C898.178 160.54 897.338 161.72 897.018 162.6V160.82H895.478V170ZM910.916 170.28C913.896 170.28 915.156 168.1 915.156 165.26C915.156 162.28 913.736 160.54 910.916 160.54C907.996 160.54 906.636 162.56 906.636 165.26C906.636 168.32 907.896 170.28 910.916 170.28ZM910.916 168.96C909.256 168.96 908.356 167.76 908.356 165.46C908.356 163.18 909.256 161.86 910.916 161.86C912.556 161.86 913.436 163.14 913.436 165.46C913.436 167.58 912.556 168.96 910.916 168.96ZM917.705 164.04C917.705 165 917.965 165.78 918.465 166.34C917.725 166.86 917.245 167.46 917.245 168.38C917.245 169.48 917.925 169.9 918.705 170.18C918.145 170.56 917.245 171.3 917.245 172.46C917.245 174.44 919.845 174.84 921.505 174.84C923.985 174.84 925.925 173.94 925.925 171.76C925.925 169.46 923.745 169.2 921.785 169.08C920.165 168.98 918.685 168.96 918.685 168C918.685 167.58 918.945 167.28 919.345 167C919.885 167.26 920.545 167.4 921.325 167.4C923.645 167.4 925.065 166.18 925.065 163.96C925.065 163.32 924.945 162.76 924.705 162.28C925.625 161.84 926.065 161.12 926.065 160.22C926.065 160.02 926.045 159.8 925.985 159.56L924.605 159.36V160.06C924.605 160.56 924.465 161.06 924.085 161.46C923.445 160.86 922.545 160.54 921.405 160.54C918.985 160.54 917.705 161.94 917.705 164.04ZM921.345 166.18C919.965 166.18 919.425 165.38 919.425 164C919.425 162.58 920.005 161.76 921.385 161.76C922.745 161.76 923.345 162.56 923.345 163.96C923.345 165.38 922.745 166.18 921.345 166.18ZM921.565 170.58C923.125 170.68 924.425 170.9 924.425 172C924.425 173.14 923.085 173.56 921.485 173.56C920.285 173.56 918.685 173.32 918.685 172.16C918.685 171.36 919.405 170.84 920.045 170.48C920.625 170.54 920.905 170.54 921.565 170.58ZM938.224 170H940.284L936.184 164.96L940.344 160.82H938.284L934.704 164.38H934.304V155.64H932.704V170H934.304V165.66H934.744L938.224 170ZM949.676 170.14L949.996 168.74C948.776 168.96 948.856 168.24 948.856 167.52V163.88C948.856 161.56 947.896 160.54 945.536 160.54C942.876 160.54 941.656 161.66 941.876 163.42L943.456 163.7C943.356 162.34 944.176 161.86 945.416 161.86C946.836 161.86 947.256 162.52 947.256 164.1V164.62C943.796 164.64 941.556 165.7 941.556 167.8C941.556 169.48 942.976 170.28 944.456 170.28C945.896 170.28 946.976 169.48 947.416 168.66C947.476 169.5 947.936 170.36 949.676 170.14ZM947.256 166.82C947.176 168 945.976 168.96 944.756 168.96C943.816 168.96 943.276 168.46 943.276 167.68C943.276 166.5 944.436 165.86 947.256 165.84V166.82ZM957.58 170H959.64L955.54 164.96L959.7 160.82H957.64L954.06 164.38H953.66V155.64H952.06V170H953.66V165.66H954.1L957.58 170ZM968.659 165.66V164.66C968.659 161.86 967.359 160.54 964.939 160.54C961.739 160.54 960.699 163 960.699 165.46C960.699 168.76 962.259 170.28 964.979 170.28C966.999 170.28 968.199 169.3 968.659 167.66L967.259 167.38C966.999 168.22 966.219 168.96 965.019 168.96C962.919 168.96 962.439 167.36 962.419 165.66H968.659ZM964.899 161.86C966.339 161.86 966.999 162.8 966.999 164.02V164.38H962.479C962.719 162.64 963.619 161.86 964.899 161.86ZM971.2 170H972.8V165.32C973.04 163.94 973.7 162.04 975.06 162.04C975.64 162.04 975.98 162.62 975.98 162.62L976.86 161.36C976.86 161.36 976.4 160.54 975.36 160.54C973.9 160.54 973.06 161.72 972.74 162.6V160.82H971.2V170ZM977.228 168.9C977.228 169.62 977.808 170.2 978.528 170.2C979.248 170.2 979.828 169.62 979.828 168.9C979.828 168.18 979.248 167.6 978.528 167.6C977.808 167.6 977.228 168.18 977.228 168.9ZM985.666 170H987.426L988.906 166.14H993.846L995.326 170H997.246L992.106 156.78H990.786L985.666 170ZM990.646 161.6C990.906 160.92 991.166 160.1 991.386 159.38C991.606 160.1 991.866 160.96 992.126 161.6L993.286 164.68H989.466L990.646 161.6ZM999.188 170H1000.79V155.64H999.188V170ZM1002.84 162.1H1004.4V167.3C1004.4 168.76 1004.84 170.2 1006.66 170.2C1008.04 170.2 1008.68 169.38 1009.1 168.36L1007.88 167.82C1007.68 168.54 1007.36 168.88 1006.86 168.88C1006.22 168.88 1006 168.36 1006 167.22V162.1H1008.6V160.82H1006V158.1H1004.54L1004.44 160.82H1002.84V162.1ZM1023.17 165.66V164.66C1023.17 161.86 1021.87 160.54 1019.45 160.54C1016.25 160.54 1015.21 163 1015.21 165.46C1015.21 168.76 1016.77 170.28 1019.49 170.28C1021.51 170.28 1022.71 169.3 1023.17 167.66L1021.77 167.38C1021.51 168.22 1020.73 168.96 1019.53 168.96C1017.43 168.96 1016.95 167.36 1016.93 165.66H1023.17ZM1019.41 161.86C1020.85 161.86 1021.51 162.8 1021.51 164.02V164.38H1016.99C1017.23 162.64 1018.13 161.86 1019.41 161.86ZM1025.71 170H1027.31V165.32C1027.55 163.94 1028.21 162.04 1029.57 162.04C1030.15 162.04 1030.49 162.62 1030.49 162.62L1031.37 161.36C1031.37 161.36 1030.91 160.54 1029.87 160.54C1028.41 160.54 1027.57 161.72 1027.25 162.6V160.82H1025.71V170ZM1043.45 170H1045.05V163.36C1045.05 161.4 1043.83 160.54 1042.27 160.54C1040.25 160.54 1039.35 161.82 1039.03 162.5V155.64H1037.43V170H1039.03V165.1C1039.21 164.28 1039.95 161.92 1042.01 161.92C1042.97 161.92 1043.45 162.44 1043.45 163.82V170ZM1055.46 165.66V164.66C1055.46 161.86 1054.16 160.54 1051.74 160.54C1048.54 160.54 1047.5 163 1047.5 165.46C1047.5 168.76 1049.06 170.28 1051.78 170.28C1053.8 170.28 1055 169.3 1055.46 167.66L1054.06 167.38C1053.8 168.22 1053.02 168.96 1051.82 168.96C1049.72 168.96 1049.24 167.36 1049.22 165.66H1055.46ZM1051.7 161.86C1053.14 161.86 1053.8 162.8 1053.8 164.02V164.38H1049.28C1049.52 162.64 1050.42 161.86 1051.7 161.86ZM1057.7 157.64C1057.7 158.26 1058.16 158.72 1058.78 158.72C1059.38 158.72 1059.86 158.26 1059.86 157.64C1059.86 157.04 1059.38 156.56 1058.78 156.56C1058.16 156.56 1057.7 157.04 1057.7 157.64ZM1058 170H1059.6V160.82H1058V170ZM1062.68 170H1064.28V165.1C1064.46 164.28 1065.2 161.92 1067.26 161.92C1068.22 161.92 1068.7 162.44 1068.7 163.82V170H1070.3V165.1C1070.48 164.28 1071.22 161.92 1073.28 161.92C1074.24 161.92 1074.72 162.44 1074.72 163.82V170H1076.32V163.36C1076.32 161.4 1075.1 160.54 1073.54 160.54C1071.22 160.54 1070.38 162.26 1070.18 162.76C1069.88 161.1 1068.84 160.54 1067.52 160.54C1065.36 160.54 1064.5 162.02 1064.22 162.64V160.82H1062.68V170ZM1086.73 165.66V164.66C1086.73 161.86 1085.43 160.54 1083.01 160.54C1079.81 160.54 1078.77 163 1078.77 165.46C1078.77 168.76 1080.33 170.28 1083.05 170.28C1085.07 170.28 1086.27 169.3 1086.73 167.66L1085.33 167.38C1085.07 168.22 1084.29 168.96 1083.09 168.96C1080.99 168.96 1080.51 167.36 1080.49 165.66H1086.73ZM1082.97 161.86C1084.41 161.86 1085.07 162.8 1085.07 164.02V164.38H1080.55C1080.79 162.64 1081.69 161.86 1082.97 161.86ZM1089.27 170H1090.87V155.64H1089.27V170ZM1101.41 170.14L1101.73 168.74C1100.51 168.96 1100.59 168.24 1100.59 167.52V163.88C1100.59 161.56 1099.63 160.54 1097.27 160.54C1094.61 160.54 1093.39 161.66 1093.61 163.42L1095.19 163.7C1095.09 162.34 1095.91 161.86 1097.15 161.86C1098.57 161.86 1098.99 162.52 1098.99 164.1V164.62C1095.53 164.64 1093.29 165.7 1093.29 167.8C1093.29 169.48 1094.71 170.28 1096.19 170.28C1097.63 170.28 1098.71 169.48 1099.15 168.66C1099.21 169.5 1099.67 170.36 1101.41 170.14ZM1098.99 166.82C1098.91 168 1097.71 168.96 1096.49 168.96C1095.55 168.96 1095.01 168.46 1095.01 167.68C1095.01 166.5 1096.17 165.86 1098.99 165.84V166.82ZM1103.82 164.04C1103.82 165 1104.08 165.78 1104.58 166.34C1103.84 166.86 1103.36 167.46 1103.36 168.38C1103.36 169.48 1104.04 169.9 1104.82 170.18C1104.26 170.56 1103.36 171.3 1103.36 172.46C1103.36 174.44 1105.96 174.84 1107.62 174.84C1110.1 174.84 1112.04 173.94 1112.04 171.76C1112.04 169.46 1109.86 169.2 1107.9 169.08C1106.28 168.98 1104.8 168.96 1104.8 168C1104.8 167.58 1105.06 167.28 1105.46 167C1106 167.26 1106.66 167.4 1107.44 167.4C1109.76 167.4 1111.18 166.18 1111.18 163.96C1111.18 163.32 1111.06 162.76 1110.82 162.28C1111.74 161.84 1112.18 161.12 1112.18 160.22C1112.18 160.02 1112.16 159.8 1112.1 159.56L1110.72 159.36V160.06C1110.72 160.56 1110.58 161.06 1110.2 161.46C1109.56 160.86 1108.66 160.54 1107.52 160.54C1105.1 160.54 1103.82 161.94 1103.82 164.04ZM1107.46 166.18C1106.08 166.18 1105.54 165.38 1105.54 164C1105.54 162.58 1106.12 161.76 1107.5 161.76C1108.86 161.76 1109.46 162.56 1109.46 163.96C1109.46 165.38 1108.86 166.18 1107.46 166.18ZM1107.68 170.58C1109.24 170.68 1110.54 170.9 1110.54 172C1110.54 173.14 1109.2 173.56 1107.6 173.56C1106.4 173.56 1104.8 173.32 1104.8 172.16C1104.8 171.36 1105.52 170.84 1106.16 170.48C1106.74 170.54 1107.02 170.54 1107.68 170.58ZM1121.53 170.14L1121.85 168.74C1120.63 168.96 1120.71 168.24 1120.71 167.52V163.88C1120.71 161.56 1119.75 160.54 1117.39 160.54C1114.73 160.54 1113.51 161.66 1113.73 163.42L1115.31 163.7C1115.21 162.34 1116.03 161.86 1117.27 161.86C1118.69 161.86 1119.11 162.52 1119.11 164.1V164.62C1115.65 164.64 1113.41 165.7 1113.41 167.8C1113.41 169.48 1114.83 170.28 1116.31 170.28C1117.75 170.28 1118.83 169.48 1119.27 168.66C1119.33 169.5 1119.79 170.36 1121.53 170.14ZM1119.11 166.82C1119.03 168 1117.83 168.96 1116.61 168.96C1115.67 168.96 1115.13 168.46 1115.13 167.68C1115.13 166.5 1116.29 165.86 1119.11 165.84V166.82ZM814.54 195H816.14V190.1C816.32 189.28 817.06 186.92 819.12 186.92C820.08 186.92 820.56 187.44 820.56 188.82V195H822.16V190.1C822.34 189.28 823.08 186.92 825.14 186.92C826.1 186.92 826.58 187.44 826.58 188.82V195H828.18V188.36C828.18 186.4 826.96 185.54 825.4 185.54C823.08 185.54 822.24 187.26 822.04 187.76C821.74 186.1 820.7 185.54 819.38 185.54C817.22 185.54 816.36 187.02 816.08 187.64V185.82H814.54V195ZM838.581 190.66V189.66C838.581 186.86 837.281 185.54 834.861 185.54C831.661 185.54 830.621 188 830.621 190.46C830.621 193.76 832.181 195.28 834.901 195.28C836.921 195.28 838.121 194.3 838.581 192.66L837.181 192.38C836.921 193.22 836.141 193.96 834.941 193.96C832.841 193.96 832.361 192.36 832.341 190.66H838.581ZM834.821 186.86C836.261 186.86 836.921 187.8 836.921 189.02V189.38H832.401C832.641 187.64 833.541 186.86 834.821 186.86ZM847.522 195H848.882V180.64H847.282V186.58C846.722 185.96 845.782 185.54 844.582 185.54C841.902 185.54 840.562 187.64 840.562 190.56C840.562 192.78 841.382 195.28 844.242 195.28C845.822 195.28 846.862 194.56 847.402 193.54L847.522 195ZM844.582 193.96C842.562 193.96 842.282 191.9 842.282 190.46C842.282 188.14 843.002 186.86 844.722 186.86C846.942 186.86 847.282 188.9 847.282 190.16C847.282 192.18 846.422 193.96 844.582 193.96ZM864.108 190.66V189.66C864.108 186.86 862.808 185.54 860.388 185.54C857.188 185.54 856.148 188 856.148 190.46C856.148 193.76 857.708 195.28 860.428 195.28C862.448 195.28 863.648 194.3 864.108 192.66L862.708 192.38C862.448 193.22 861.668 193.96 860.468 193.96C858.368 193.96 857.888 192.36 857.868 190.66H864.108ZM860.348 186.86C861.788 186.86 862.448 187.8 862.448 189.02V189.38H857.928C858.168 187.64 859.068 186.86 860.348 186.86ZM866.349 182.64C866.349 183.26 866.809 183.72 867.429 183.72C868.029 183.72 868.509 183.26 868.509 182.64C868.509 182.04 868.029 181.56 867.429 181.56C866.809 181.56 866.349 182.04 866.349 182.64ZM866.649 195H868.249V185.82H866.649V195ZM871.337 195H872.937V190.1C873.117 189.28 873.857 186.92 875.917 186.92C876.877 186.92 877.357 187.44 877.357 188.82V195H878.957V188.36C878.957 186.4 877.737 185.54 876.177 185.54C874.017 185.54 873.157 187.02 872.877 187.64V185.82H871.337V195ZM886.028 192.44C885.828 194.46 887.868 195.28 889.728 195.28C891.828 195.28 893.348 194.24 893.348 192.42C893.348 189.02 887.968 190.3 887.968 188C887.968 187.22 888.648 186.86 889.688 186.86C891.328 186.86 891.568 187.84 891.448 188.48L893.048 188.2C893.368 186.42 891.708 185.54 889.768 185.54C887.448 185.54 886.328 186.74 886.328 188.28C886.328 191.62 891.668 190.48 891.668 192.72C891.668 193.56 890.848 193.96 889.668 193.96C888.128 193.96 887.448 193.18 887.548 192.2L886.028 192.44ZM894.75 187.1H896.31V192.3C896.31 193.76 896.75 195.2 898.57 195.2C899.95 195.2 900.59 194.38 901.01 193.36L899.79 192.82C899.59 193.54 899.27 193.88 898.77 193.88C898.13 193.88 897.91 193.36 897.91 192.22V187.1H900.51V185.82H897.91V183.1H896.45L896.35 185.82H894.75V187.1ZM906.658 195.28C909.638 195.28 910.898 193.1 910.898 190.26C910.898 187.28 909.478 185.54 906.658 185.54C903.738 185.54 902.378 187.56 902.378 190.26C902.378 193.32 903.638 195.28 906.658 195.28ZM906.658 193.96C904.998 193.96 904.098 192.76 904.098 190.46C904.098 188.18 904.998 186.86 906.658 186.86C908.298 186.86 909.178 188.14 909.178 190.46C909.178 192.58 908.298 193.96 906.658 193.96ZM913.427 195H915.027V190.32C915.267 188.94 915.927 187.04 917.287 187.04C917.867 187.04 918.207 187.62 918.207 187.62L919.087 186.36C919.087 186.36 918.627 185.54 917.587 185.54C916.127 185.54 915.287 186.72 914.967 187.6V185.82H913.427V195ZM925.145 199.56H926.745V194.02C927.285 194.78 928.265 195.28 929.425 195.28C932.105 195.28 933.485 192.98 933.485 190.12C933.485 187.82 932.645 185.54 929.785 185.54C928.365 185.54 927.305 186.2 926.685 187.14V185.82H925.145V199.56ZM929.285 193.96C927.345 193.96 926.745 192.06 926.745 190.5C926.745 188.92 927.325 186.86 929.445 186.86C931.265 186.86 931.765 188.2 931.765 190.24C931.765 192.12 931.345 193.96 929.285 193.96ZM939.725 195.28C942.705 195.28 943.965 193.1 943.965 190.26C943.965 187.28 942.545 185.54 939.725 185.54C936.805 185.54 935.445 187.56 935.445 190.26C935.445 193.32 936.705 195.28 939.725 195.28ZM939.725 193.96C938.065 193.96 937.165 192.76 937.165 190.46C937.165 188.18 938.065 186.86 939.725 186.86C941.365 186.86 942.245 188.14 942.245 190.46C942.245 192.58 941.365 193.96 939.725 193.96ZM946.493 195H948.093V190.32C948.333 188.94 948.993 187.04 950.353 187.04C950.933 187.04 951.273 187.62 951.273 187.62L952.153 186.36C952.153 186.36 951.693 185.54 950.653 185.54C949.193 185.54 948.353 186.72 948.033 187.6V185.82H946.493V195ZM953.215 192.44C953.015 194.46 955.055 195.28 956.915 195.28C959.015 195.28 960.535 194.24 960.535 192.42C960.535 189.02 955.155 190.3 955.155 188C955.155 187.22 955.835 186.86 956.875 186.86C958.515 186.86 958.755 187.84 958.635 188.48L960.235 188.2C960.555 186.42 958.895 185.54 956.955 185.54C954.635 185.54 953.515 186.74 953.515 188.28C953.515 191.62 958.855 190.48 958.855 192.72C958.855 193.56 958.035 193.96 956.855 193.96C955.315 193.96 954.635 193.18 954.735 192.2L953.215 192.44ZM962.678 182.64C962.678 183.26 963.138 183.72 963.758 183.72C964.358 183.72 964.838 183.26 964.838 182.64C964.838 182.04 964.358 181.56 963.758 181.56C963.138 181.56 962.678 182.04 962.678 182.64ZM960.297 199.84C964.138 199.94 964.578 196.94 964.578 194.54V185.82H962.978V194C962.978 196.98 962.578 198.48 960.297 198.48V199.84ZM971.385 195.28C974.365 195.28 975.625 193.1 975.625 190.26C975.625 187.28 974.205 185.54 971.385 185.54C968.465 185.54 967.105 187.56 967.105 190.26C967.105 193.32 968.365 195.28 971.385 195.28ZM971.385 193.96C969.725 193.96 968.825 192.76 968.825 190.46C968.825 188.18 969.725 186.86 971.385 186.86C973.025 186.86 973.905 188.14 973.905 190.46C973.905 192.58 973.025 193.96 971.385 193.96ZM978.153 195H979.753V190.1C979.933 189.28 980.673 186.92 982.733 186.92C983.693 186.92 984.173 187.44 984.173 188.82V195H985.773V188.36C985.773 186.4 984.553 185.54 982.993 185.54C980.833 185.54 979.973 187.02 979.693 187.64V185.82H978.153V195ZM999.044 195H1001.1L997.004 189.96L1001.16 185.82H999.104L995.524 189.38H995.124V180.64H993.524V195H995.124V190.66H995.564L999.044 195ZM1002.74 182.64C1002.74 183.26 1003.2 183.72 1003.82 183.72C1004.42 183.72 1004.9 183.26 1004.9 182.64C1004.9 182.04 1004.42 181.56 1003.82 181.56C1003.2 181.56 1002.74 182.04 1002.74 182.64ZM1000.36 199.84C1004.2 199.94 1004.64 196.94 1004.64 194.54V185.82H1003.04V194C1003.04 196.98 1002.64 198.48 1000.36 198.48V199.84ZM1007.06 192.8C1007.06 194.48 1008.48 195.28 1009.96 195.28C1011.42 195.28 1012.52 194.54 1013.26 193.56C1013.96 194.72 1015.18 195.28 1016.82 195.28C1018.84 195.28 1020.04 194.3 1020.5 192.66L1019.1 192.38C1018.84 193.22 1018.06 193.96 1016.86 193.96C1014.78 193.96 1014.3 192.4 1014.26 190.7H1020.5V189.66C1020.5 186.86 1019.2 185.54 1016.78 185.54C1015.44 185.54 1014.48 185.96 1013.82 186.64C1013.32 185.9 1012.4 185.54 1011.04 185.54C1008.38 185.54 1007.16 186.66 1007.38 188.42L1008.96 188.7C1008.86 187.34 1009.68 186.86 1010.92 186.86C1012.34 186.86 1012.76 187.52 1012.76 189.1V189.52C1009.3 189.54 1007.06 190.64 1007.06 192.8ZM1008.78 192.68C1008.78 191.44 1009.94 190.76 1012.76 190.74V191.76C1012.68 192.94 1011.58 193.96 1010.26 193.96C1009.32 193.96 1008.78 193.46 1008.78 192.68ZM1014.32 189.42C1014.56 187.64 1015.44 186.86 1016.74 186.86C1018.18 186.86 1018.84 187.8 1018.84 189.02V189.42H1014.32ZM1023.04 195H1024.64V190.32C1024.88 188.94 1025.54 187.04 1026.9 187.04C1027.48 187.04 1027.82 187.62 1027.82 187.62L1028.7 186.36C1028.7 186.36 1028.24 185.54 1027.2 185.54C1025.74 185.54 1024.9 186.72 1024.58 187.6V185.82H1023.04V195ZM1030.44 195H1032.04V180.64H1030.44V195ZM1042.53 190.66V189.66C1042.53 186.86 1041.23 185.54 1038.81 185.54C1035.61 185.54 1034.57 188 1034.57 190.46C1034.57 193.76 1036.13 195.28 1038.85 195.28C1040.87 195.28 1042.07 194.3 1042.53 192.66L1041.13 192.38C1040.87 193.22 1040.09 193.96 1038.89 193.96C1036.79 193.96 1036.31 192.36 1036.29 190.66H1042.53ZM1038.77 186.86C1040.21 186.86 1040.87 187.8 1040.87 189.02V189.38H1036.35C1036.59 187.64 1037.49 186.86 1038.77 186.86ZM1044.77 182.64C1044.77 183.26 1045.23 183.72 1045.85 183.72C1046.45 183.72 1046.93 183.26 1046.93 182.64C1046.93 182.04 1046.45 181.56 1045.85 181.56C1045.23 181.56 1044.77 182.04 1044.77 182.64ZM1045.07 195H1046.67V185.82H1045.07V195ZM1055.27 195H1057.33L1053.23 189.96L1057.39 185.82H1055.33L1051.75 189.38H1051.35V180.64H1049.75V195H1051.35V190.66H1051.79L1055.27 195ZM1058.95 193.9C1058.95 194.62 1059.53 195.2 1060.25 195.2C1060.97 195.2 1061.55 194.62 1061.55 193.9C1061.55 193.18 1060.97 192.6 1060.25 192.6C1059.53 192.6 1058.95 193.18 1058.95 193.9ZM814.96 220H819.22C823.6 220 825.48 216.7 825.48 213.16C825.48 209.44 823.44 206.78 819.2 206.78H814.96V220ZM816.7 218.52V208.26H819.02C821.74 208.26 823.56 209.56 823.56 213.24C823.56 217.08 821.74 218.52 819.14 218.52H816.7ZM835.495 215.66V214.66C835.495 211.86 834.195 210.54 831.775 210.54C828.575 210.54 827.535 213 827.535 215.46C827.535 218.76 829.095 220.28 831.815 220.28C833.835 220.28 835.035 219.3 835.495 217.66L834.095 217.38C833.835 218.22 833.055 218.96 831.855 218.96C829.755 218.96 829.275 217.36 829.255 215.66H835.495ZM831.735 211.86C833.175 211.86 833.835 212.8 833.835 214.02V214.38H829.315C829.555 212.64 830.455 211.86 831.735 211.86ZM836.996 212.1H838.556V217.3C838.556 218.76 838.996 220.2 840.816 220.2C842.196 220.2 842.836 219.38 843.256 218.36L842.036 217.82C841.836 218.54 841.516 218.88 841.016 218.88C840.376 218.88 840.156 218.36 840.156 217.22V212.1H842.756V210.82H840.156V208.1H838.696L838.596 210.82H836.996V212.1ZM849.931 220H851.531V215.1C851.711 214.28 852.451 211.92 854.511 211.92C855.471 211.92 855.951 212.44 855.951 213.82V220H857.551V215.1C857.731 214.28 858.471 211.92 860.531 211.92C861.491 211.92 861.971 212.44 861.971 213.82V220H863.571V213.36C863.571 211.4 862.351 210.54 860.791 210.54C858.471 210.54 857.631 212.26 857.431 212.76C857.131 211.1 856.091 210.54 854.771 210.54C852.611 210.54 851.751 212.02 851.471 212.64V210.82H849.931V220ZM873.971 215.66V214.66C873.971 211.86 872.671 210.54 870.251 210.54C867.051 210.54 866.011 213 866.011 215.46C866.011 218.76 867.571 220.28 870.291 220.28C872.311 220.28 873.511 219.3 873.971 217.66L872.571 217.38C872.311 218.22 871.531 218.96 870.331 218.96C868.231 218.96 867.751 217.36 867.731 215.66H873.971ZM870.211 211.86C871.651 211.86 872.311 212.8 872.311 214.02V214.38H867.791C868.031 212.64 868.931 211.86 870.211 211.86ZM875.833 217.44C875.633 219.46 877.673 220.28 879.533 220.28C881.633 220.28 883.153 219.24 883.153 217.42C883.153 214.02 877.773 215.3 877.773 213C877.773 212.22 878.453 211.86 879.493 211.86C881.133 211.86 881.373 212.84 881.253 213.48L882.853 213.2C883.173 211.42 881.513 210.54 879.573 210.54C877.253 210.54 876.133 211.74 876.133 213.28C876.133 216.62 881.473 215.48 881.473 217.72C881.473 218.56 880.653 218.96 879.473 218.96C877.933 218.96 877.253 218.18 877.353 217.2L875.833 217.44ZM884.555 212.1H886.115V217.3C886.115 218.76 886.555 220.2 888.375 220.2C889.755 220.2 890.395 219.38 890.815 218.36L889.595 217.82C889.395 218.54 889.075 218.88 888.575 218.88C887.935 218.88 887.715 218.36 887.715 217.22V212.1H890.315V210.82H887.715V208.1H886.255L886.155 210.82H884.555V212.1ZM900.143 215.66V214.66C900.143 211.86 898.843 210.54 896.423 210.54C893.223 210.54 892.183 213 892.183 215.46C892.183 218.76 893.743 220.28 896.463 220.28C898.483 220.28 899.683 219.3 900.143 217.66L898.743 217.38C898.483 218.22 897.703 218.96 896.503 218.96C894.403 218.96 893.923 217.36 893.903 215.66H900.143ZM896.383 211.86C897.823 211.86 898.483 212.8 898.483 214.02V214.38H893.963C894.203 212.64 895.103 211.86 896.383 211.86ZM907.431 224.56H909.031V219.02C909.571 219.78 910.551 220.28 911.711 220.28C914.391 220.28 915.771 217.98 915.771 215.12C915.771 212.82 914.931 210.54 912.071 210.54C910.651 210.54 909.591 211.2 908.971 212.14V210.82H907.431V224.56ZM911.571 218.96C909.631 218.96 909.031 217.06 909.031 215.5C909.031 213.92 909.611 211.86 911.731 211.86C913.551 211.86 914.051 213.2 914.051 215.24C914.051 217.12 913.631 218.96 911.571 218.96ZM925.75 220.14L926.07 218.74C924.85 218.96 924.93 218.24 924.93 217.52V213.88C924.93 211.56 923.97 210.54 921.61 210.54C918.95 210.54 917.73 211.66 917.95 213.42L919.53 213.7C919.43 212.34 920.25 211.86 921.49 211.86C922.91 211.86 923.33 212.52 923.33 214.1V214.62C919.87 214.64 917.63 215.7 917.63 217.8C917.63 219.48 919.05 220.28 920.53 220.28C921.97 220.28 923.05 219.48 923.49 218.66C923.55 219.5 924.01 220.36 925.75 220.14ZM923.33 216.82C923.25 218 922.05 218.96 920.83 218.96C919.89 218.96 919.35 218.46 919.35 217.68C919.35 216.5 920.51 215.86 923.33 215.84V216.82ZM919.41 207.54C919.41 208.44 919.99 209.48 921.43 209.48C922.87 209.48 923.45 208.44 923.45 207.54C923.45 206.62 922.87 205.66 921.43 205.66C919.99 205.66 919.41 206.62 919.41 207.54ZM921.43 208.54C920.79 208.54 920.49 208.02 920.49 207.56C920.49 207.12 920.75 206.6 921.43 206.6C922.09 206.6 922.39 207.12 922.39 207.56C922.39 208.02 922.05 208.54 921.43 208.54ZM932.88 220H934.48V215.1C934.66 214.28 935.4 211.92 937.46 211.92C938.42 211.92 938.9 212.44 938.9 213.82V220H940.5V215.1C940.68 214.28 941.42 211.92 943.48 211.92C944.44 211.92 944.92 212.44 944.92 213.82V220H946.52V213.36C946.52 211.4 945.3 210.54 943.74 210.54C941.42 210.54 940.58 212.26 940.38 212.76C940.08 211.1 939.04 210.54 937.72 210.54C935.56 210.54 934.7 212.02 934.42 212.64V210.82H932.88V220ZM956.92 215.66V214.66C956.92 211.86 955.62 210.54 953.2 210.54C950 210.54 948.96 213 948.96 215.46C948.96 218.76 950.52 220.28 953.24 220.28C955.26 220.28 956.46 219.3 956.92 217.66L955.52 217.38C955.26 218.22 954.48 218.96 953.28 218.96C951.18 218.96 950.7 217.36 950.68 215.66H956.92ZM953.16 211.86C954.6 211.86 955.26 212.8 955.26 214.02V214.38H950.74C950.98 212.64 951.88 211.86 953.16 211.86ZM959.462 220H961.062V215.1C961.242 214.28 961.982 211.92 964.042 211.92C965.002 211.92 965.482 212.44 965.482 213.82V220H967.082V213.36C967.082 211.4 965.862 210.54 964.302 210.54C962.142 210.54 961.282 212.02 961.002 212.64V210.82H959.462V220ZM968.83 224.18C969.21 224.48 969.83 224.84 970.77 224.84C973.11 224.84 973.71 222.74 973.89 221.54L974.13 219.82L977.71 210.82H976.13L973.95 216.48C973.77 216.92 973.59 217.48 973.45 217.9C973.31 217.48 973.09 216.88 972.93 216.48L970.59 210.82H968.85L972.69 219.82L972.51 221.22C972.33 222.74 971.57 223.52 970.81 223.52C970.35 223.52 969.91 223.3 969.59 223L968.83 224.18ZM986.901 215.66V214.66C986.901 211.86 985.601 210.54 983.181 210.54C979.981 210.54 978.941 213 978.941 215.46C978.941 218.76 980.501 220.28 983.221 220.28C985.241 220.28 986.441 219.3 986.901 217.66L985.501 217.38C985.241 218.22 984.461 218.96 983.261 218.96C981.161 218.96 980.681 217.36 980.661 215.66H986.901ZM983.141 211.86C984.581 211.86 985.241 212.8 985.241 214.02V214.38H980.721C980.961 212.64 981.861 211.86 983.141 211.86ZM989.442 220H991.042V215.1C991.222 214.28 991.962 211.92 994.022 211.92C994.982 211.92 995.462 212.44 995.462 213.82V220H997.062V213.36C997.062 211.4 995.842 210.54 994.282 210.54C992.122 210.54 991.262 212.02 990.982 212.64V210.82H989.442V220ZM1010.33 220H1012.39L1008.29 214.96L1012.45 210.82H1010.39L1006.81 214.38H1006.41V205.64H1004.81V220H1006.41V215.66H1006.85L1010.33 220ZM1021.79 220.14L1022.11 218.74C1020.89 218.96 1020.97 218.24 1020.97 217.52V213.88C1020.97 211.56 1020.01 210.54 1017.65 210.54C1014.99 210.54 1013.77 211.66 1013.99 213.42L1015.57 213.7C1015.47 212.34 1016.29 211.86 1017.53 211.86C1018.95 211.86 1019.37 212.52 1019.37 214.1V214.62C1015.91 214.64 1013.67 215.7 1013.67 217.8C1013.67 219.48 1015.09 220.28 1016.57 220.28C1018.01 220.28 1019.09 219.48 1019.53 218.66C1019.59 219.5 1020.05 220.36 1021.79 220.14ZM1019.37 216.82C1019.29 218 1018.09 218.96 1016.87 218.96C1015.93 218.96 1015.39 218.46 1015.39 217.68C1015.39 216.5 1016.55 215.86 1019.37 215.84V216.82ZM1024.17 220H1025.77V215.1C1025.95 214.28 1026.69 211.92 1028.75 211.92C1029.71 211.92 1030.19 212.44 1030.19 213.82V220H1031.79V213.36C1031.79 211.4 1030.57 210.54 1029.01 210.54C1026.85 210.54 1025.99 212.02 1025.71 212.64V210.82H1024.17V220ZM1045.94 220H1047.3V205.64H1045.7V211.58C1045.14 210.96 1044.2 210.54 1043 210.54C1040.32 210.54 1038.98 212.64 1038.98 215.56C1038.98 217.78 1039.8 220.28 1042.66 220.28C1044.24 220.28 1045.28 219.56 1045.82 218.54L1045.94 220ZM1043 218.96C1040.98 218.96 1040.7 216.9 1040.7 215.46C1040.7 213.14 1041.42 211.86 1043.14 211.86C1045.36 211.86 1045.7 213.9 1045.7 215.16C1045.7 217.18 1044.84 218.96 1043 218.96ZM1050.28 217.48C1050.28 219.44 1051.42 220.28 1053.02 220.28C1055.12 220.28 1056.02 219 1056.36 218.32L1056.44 220H1057.9V210.82H1056.3V216C1056.02 216.98 1055.22 218.9 1053.28 218.9C1052.32 218.9 1051.88 218.38 1051.88 217.02V210.82H1050.28V217.48ZM1064.42 212.1H1066.06V220H1067.66V212.1H1070.24V210.82H1067.66V209.6C1067.66 207.8 1068.2 206.74 1069.66 206.74C1070.48 206.74 1070.84 207.12 1071.14 207.6L1072.2 206.44C1072.2 206.44 1071.66 205.38 1069.66 205.38C1067.34 205.38 1066.06 206.92 1066.06 209.4V210.82H1064.42V212.1ZM1079.66 220.14L1079.98 218.74C1078.76 218.96 1078.84 218.24 1078.84 217.52V213.88C1078.84 211.56 1077.88 210.54 1075.52 210.54C1072.86 210.54 1071.64 211.66 1071.86 213.42L1073.44 213.7C1073.34 212.34 1074.16 211.86 1075.4 211.86C1076.82 211.86 1077.24 212.52 1077.24 214.1V214.62C1073.78 214.64 1071.54 215.7 1071.54 217.8C1071.54 219.48 1072.96 220.28 1074.44 220.28C1075.88 220.28 1076.96 219.48 1077.4 218.66C1077.46 219.5 1077.92 220.36 1079.66 220.14ZM1077.24 216.82C1077.16 218 1075.96 218.96 1074.74 218.96C1073.8 218.96 1073.26 218.46 1073.26 217.68C1073.26 216.5 1074.42 215.86 1077.24 215.84V216.82ZM1073.32 207.54C1073.32 208.44 1073.9 209.48 1075.34 209.48C1076.78 209.48 1077.36 208.44 1077.36 207.54C1077.36 206.62 1076.78 205.66 1075.34 205.66C1073.9 205.66 1073.32 206.62 1073.32 207.54ZM1075.34 208.54C1074.7 208.54 1074.4 208.02 1074.4 207.56C1074.4 207.12 1074.66 206.6 1075.34 206.6C1076 206.6 1076.3 207.12 1076.3 207.56C1076.3 208.02 1075.96 208.54 1075.34 208.54ZM814.56 239.04C814.56 240 814.82 240.78 815.32 241.34C814.58 241.86 814.1 242.46 814.1 243.38C814.1 244.48 814.78 244.9 815.56 245.18C815 245.56 814.1 246.3 814.1 247.46C814.1 249.44 816.7 249.84 818.36 249.84C820.84 249.84 822.78 248.94 822.78 246.76C822.78 244.46 820.6 244.2 818.64 244.08C817.02 243.98 815.54 243.96 815.54 243C815.54 242.58 815.8 242.28 816.2 242C816.74 242.26 817.4 242.4 818.18 242.4C820.5 242.4 821.92 241.18 821.92 238.96C821.92 238.32 821.8 237.76 821.56 237.28C822.48 236.84 822.92 236.12 822.92 235.22C822.92 235.02 822.9 234.8 822.84 234.56L821.46 234.36V235.06C821.46 235.56 821.32 236.06 820.94 236.46C820.3 235.86 819.4 235.54 818.26 235.54C815.84 235.54 814.56 236.94 814.56 239.04ZM818.2 241.18C816.82 241.18 816.28 240.38 816.28 239C816.28 237.58 816.86 236.76 818.24 236.76C819.6 236.76 820.2 237.56 820.2 238.96C820.2 240.38 819.6 241.18 818.2 241.18ZM818.42 245.58C819.98 245.68 821.28 245.9 821.28 247C821.28 248.14 819.94 248.56 818.34 248.56C817.14 248.56 815.54 248.32 815.54 247.16C815.54 246.36 816.26 245.84 816.9 245.48C817.48 245.54 817.76 245.54 818.42 245.58ZM824.813 245H826.413V230.64H824.813V245ZM829.401 242.48C829.401 244.44 830.541 245.28 832.141 245.28C834.241 245.28 835.141 244 835.481 243.32L835.561 245H837.021V235.82H835.421V241C835.141 241.98 834.341 243.9 832.401 243.9C831.441 243.9 831.001 243.38 831.001 242.02V235.82H829.401V242.48ZM839.066 237.1H840.626V242.3C840.626 243.76 841.066 245.2 842.886 245.2C844.266 245.2 844.906 244.38 845.326 243.36L844.106 242.82C843.906 243.54 843.586 243.88 843.086 243.88C842.446 243.88 842.226 243.36 842.226 242.22V237.1H844.826V235.82H842.226V233.1H840.766L840.666 235.82H839.066V237.1ZM854.655 240.66V239.66C854.655 236.86 853.355 235.54 850.935 235.54C847.735 235.54 846.695 238 846.695 240.46C846.695 243.76 848.255 245.28 850.975 245.28C852.995 245.28 854.195 244.3 854.655 242.66L853.255 242.38C852.995 243.22 852.215 243.96 851.015 243.96C848.915 243.96 848.435 242.36 848.415 240.66H854.655ZM850.895 236.86C852.335 236.86 852.995 237.8 852.995 239.02V239.38H848.475C848.715 237.64 849.615 236.86 850.895 236.86ZM857.196 245H858.796V240.1C858.976 239.28 859.716 236.92 861.776 236.92C862.736 236.92 863.216 237.44 863.216 238.82V245H864.816V238.36C864.816 236.4 863.596 235.54 862.036 235.54C859.876 235.54 859.016 237.02 858.736 237.64V235.82H857.196V245ZM866.801 237.1H868.441V245H870.041V237.1H872.621V235.82H870.041V234.6C870.041 232.8 870.581 231.74 872.041 231.74C872.861 231.74 873.221 232.12 873.521 232.6L874.581 231.44C874.581 231.44 874.041 230.38 872.041 230.38C869.721 230.38 868.441 231.92 868.441 234.4V235.82H866.801V237.1ZM874.579 245H876.179V240.32C876.419 238.94 877.079 237.04 878.439 237.04C879.019 237.04 879.359 237.62 879.359 237.62L880.239 236.36C880.239 236.36 879.779 235.54 878.739 235.54C877.279 235.54 876.439 236.72 876.119 237.6V235.82H874.579V245ZM881.681 232.64C881.681 233.26 882.141 233.72 882.761 233.72C883.361 233.72 883.841 233.26 883.841 232.64C883.841 232.04 883.361 231.56 882.761 231.56C882.141 231.56 881.681 232.04 881.681 232.64ZM881.981 245H883.581V235.82H881.981V245ZM885.629 237.1H887.189V242.3C887.189 243.76 887.629 245.2 889.449 245.2C890.829 245.2 891.469 244.38 891.889 243.36L890.669 242.82C890.469 243.54 890.149 243.88 889.649 243.88C889.009 243.88 888.789 243.36 888.789 242.22V237.1H891.389V235.82H888.789V233.1H887.329L887.229 235.82H885.629V237.1ZM892.777 237.1H894.337V242.3C894.337 243.76 894.777 245.2 896.597 245.2C897.977 245.2 898.617 244.38 899.037 243.36L897.817 242.82C897.617 243.54 897.297 243.88 896.797 243.88C896.157 243.88 895.937 243.36 895.937 242.22V237.1H898.537V235.82H895.937V233.1H894.477L894.377 235.82H892.777V237.1ZM900.646 243.9C900.646 244.62 901.226 245.2 901.946 245.2C902.666 245.2 903.246 244.62 903.246 243.9C903.246 243.18 902.666 242.6 901.946 242.6C901.226 242.6 900.646 243.18 900.646 243.9ZM911.171 245H912.811V236.16C912.811 235.42 912.771 234.4 912.731 233.78C912.951 234.54 913.231 235.46 913.451 236L917.051 245H918.511L921.971 236.1L922.871 233.66C922.831 234.28 922.791 235.42 922.791 236.22V245H924.431V231.78H922.011L918.311 241.28C918.091 241.8 917.911 242.3 917.771 242.7C917.651 242.3 917.471 241.78 917.271 241.28L913.451 231.78H911.171V245ZM935.124 240.66V239.66C935.124 236.86 933.824 235.54 931.404 235.54C928.204 235.54 927.164 238 927.164 240.46C927.164 243.76 928.724 245.28 931.444 245.28C933.464 245.28 934.664 244.3 935.124 242.66L933.724 242.38C933.464 243.22 932.684 243.96 931.484 243.96C929.384 243.96 928.904 242.36 928.884 240.66H935.124ZM931.364 236.86C932.804 236.86 933.464 237.8 933.464 239.02V239.38H928.944C929.184 237.64 930.084 236.86 931.364 236.86ZM937.665 245H939.265V240.1C939.445 239.28 940.185 236.92 942.245 236.92C943.205 236.92 943.685 237.44 943.685 238.82V245H945.285V238.36C945.285 236.4 944.065 235.54 942.505 235.54C940.345 235.54 939.485 237.02 939.205 237.64V235.82H937.665V245ZM947.033 249.18C947.413 249.48 948.033 249.84 948.973 249.84C951.313 249.84 951.913 247.74 952.093 246.54L952.333 244.82L955.913 235.82H954.333L952.153 241.48C951.973 241.92 951.793 242.48 951.653 242.9C951.513 242.48 951.293 241.88 951.133 241.48L948.793 235.82H947.053L950.893 244.82L950.713 246.22C950.533 247.74 949.773 248.52 949.013 248.52C948.553 248.52 948.113 248.3 947.793 248L947.033 249.18ZM965.104 240.66V239.66C965.104 236.86 963.804 235.54 961.384 235.54C958.184 235.54 957.144 238 957.144 240.46C957.144 243.76 958.704 245.28 961.424 245.28C963.444 245.28 964.644 244.3 965.104 242.66L963.704 242.38C963.444 243.22 962.664 243.96 961.464 243.96C959.364 243.96 958.884 242.36 958.864 240.66H965.104ZM961.344 236.86C962.784 236.86 963.444 237.8 963.444 239.02V239.38H958.924C959.164 237.64 960.064 236.86 961.344 236.86ZM967.645 245H969.245V240.1C969.425 239.28 970.165 236.92 972.225 236.92C973.185 236.92 973.665 237.44 973.665 238.82V245H975.265V238.36C975.265 236.4 974.045 235.54 972.485 235.54C970.325 235.54 969.465 237.02 969.185 237.64V235.82H967.645V245ZM982.717 232.64C982.717 233.26 983.177 233.72 983.797 233.72C984.397 233.72 984.877 233.26 984.877 232.64C984.877 232.04 984.397 231.56 983.797 231.56C983.177 231.56 982.717 232.04 982.717 232.64ZM983.017 245H984.617V235.82H983.017V245ZM987.704 245H989.304V240.1C989.484 239.28 990.224 236.92 992.284 236.92C993.244 236.92 993.724 237.44 993.724 238.82V245H995.324V238.36C995.324 236.4 994.104 235.54 992.544 235.54C990.384 235.54 989.524 237.02 989.244 237.64V235.82H987.704V245ZM998.329 245H999.929V240.1C1000.11 239.28 1000.85 236.92 1002.91 236.92C1003.87 236.92 1004.35 237.44 1004.35 238.82V245H1005.95V238.36C1005.95 236.4 1004.73 235.54 1003.17 235.54C1001.01 235.54 1000.15 237.02 999.869 237.64V235.82H998.329V245ZM1016.35 240.66V239.66C1016.35 236.86 1015.05 235.54 1012.63 235.54C1009.43 235.54 1008.39 238 1008.39 240.46C1008.39 243.76 1009.95 245.28 1012.67 245.28C1014.69 245.28 1015.89 244.3 1016.35 242.66L1014.95 242.38C1014.69 243.22 1013.91 243.96 1012.71 243.96C1010.61 243.96 1010.13 242.36 1010.11 240.66H1016.35ZM1012.59 236.86C1014.03 236.86 1014.69 237.8 1014.69 239.02V239.38H1010.17C1010.41 237.64 1011.31 236.86 1012.59 236.86ZM1024.92 245H1026.52V238.36C1026.52 236.4 1025.3 235.54 1023.74 235.54C1021.72 235.54 1020.82 236.82 1020.5 237.5V230.64H1018.9V245H1020.5V240.1C1020.68 239.28 1021.42 236.92 1023.48 236.92C1024.44 236.92 1024.92 237.44 1024.92 238.82V245ZM1036.92 240.66V239.66C1036.92 236.86 1035.62 235.54 1033.2 235.54C1030 235.54 1028.96 238 1028.96 240.46C1028.96 243.76 1030.52 245.28 1033.24 245.28C1035.26 245.28 1036.46 244.3 1036.92 242.66L1035.52 242.38C1035.26 243.22 1034.48 243.96 1033.28 243.96C1031.18 243.96 1030.7 242.36 1030.68 240.66H1036.92ZM1033.16 236.86C1034.6 236.86 1035.26 237.8 1035.26 239.02V239.38H1030.74C1030.98 237.64 1031.88 236.86 1033.16 236.86ZM1039.46 245H1041.06V230.64H1039.46V245ZM1050.55 245H1051.91V230.64H1050.31V236.58C1049.75 235.96 1048.81 235.54 1047.61 235.54C1044.93 235.54 1043.59 237.64 1043.59 240.56C1043.59 242.78 1044.41 245.28 1047.27 245.28C1048.85 245.28 1049.89 244.56 1050.43 243.54L1050.55 245ZM1047.61 243.96C1045.59 243.96 1045.31 241.9 1045.31 240.46C1045.31 238.14 1046.03 236.86 1047.75 236.86C1049.97 236.86 1050.31 238.9 1050.31 240.16C1050.31 242.18 1049.45 243.96 1047.61 243.96ZM1063.46 245.28C1066.44 245.28 1067.7 243.1 1067.7 240.26C1067.7 237.28 1066.28 235.54 1063.46 235.54C1060.54 235.54 1059.18 237.56 1059.18 240.26C1059.18 243.32 1060.44 245.28 1063.46 245.28ZM1063.46 243.96C1061.8 243.96 1060.9 242.76 1060.9 240.46C1060.9 238.18 1061.8 236.86 1063.46 236.86C1065.1 236.86 1065.98 238.14 1065.98 240.46C1065.98 242.58 1065.1 243.96 1063.46 243.96ZM1070.24 239.04C1070.24 240 1070.5 240.78 1071 241.34C1070.26 241.86 1069.78 242.46 1069.78 243.38C1069.78 244.48 1070.46 244.9 1071.24 245.18C1070.68 245.56 1069.78 246.3 1069.78 247.46C1069.78 249.44 1072.38 249.84 1074.04 249.84C1076.52 249.84 1078.46 248.94 1078.46 246.76C1078.46 244.46 1076.28 244.2 1074.32 244.08C1072.7 243.98 1071.22 243.96 1071.22 243C1071.22 242.58 1071.48 242.28 1071.88 242C1072.42 242.26 1073.08 242.4 1073.86 242.4C1076.18 242.4 1077.6 241.18 1077.6 238.96C1077.6 238.32 1077.48 237.76 1077.24 237.28C1078.16 236.84 1078.6 236.12 1078.6 235.22C1078.6 235.02 1078.58 234.8 1078.52 234.56L1077.14 234.36V235.06C1077.14 235.56 1077 236.06 1076.62 236.46C1075.98 235.86 1075.08 235.54 1073.94 235.54C1071.52 235.54 1070.24 236.94 1070.24 239.04ZM1073.88 241.18C1072.5 241.18 1071.96 240.38 1071.96 239C1071.96 237.58 1072.54 236.76 1073.92 236.76C1075.28 236.76 1075.88 237.56 1075.88 238.96C1075.88 240.38 1075.28 241.18 1073.88 241.18ZM1074.1 245.58C1075.66 245.68 1076.96 245.9 1076.96 247C1076.96 248.14 1075.62 248.56 1074.02 248.56C1072.82 248.56 1071.22 248.32 1071.22 247.16C1071.22 246.36 1071.94 245.84 1072.58 245.48C1073.16 245.54 1073.44 245.54 1074.1 245.58ZM1079.82 242.44C1079.62 244.46 1081.66 245.28 1083.52 245.28C1085.62 245.28 1087.14 244.24 1087.14 242.42C1087.14 239.02 1081.76 240.3 1081.76 238C1081.76 237.22 1082.44 236.86 1083.48 236.86C1085.12 236.86 1085.36 237.84 1085.24 238.48L1086.84 238.2C1087.16 236.42 1085.5 235.54 1083.56 235.54C1081.24 235.54 1080.12 236.74 1080.12 238.28C1080.12 241.62 1085.46 240.48 1085.46 242.72C1085.46 243.56 1084.64 243.96 1083.46 243.96C1081.92 243.96 1081.24 243.18 1081.34 242.2L1079.82 242.44ZM1097.04 245.14L1097.36 243.74C1096.14 243.96 1096.22 243.24 1096.22 242.52V238.88C1096.22 236.56 1095.26 235.54 1092.9 235.54C1090.24 235.54 1089.02 236.66 1089.24 238.42L1090.82 238.7C1090.72 237.34 1091.54 236.86 1092.78 236.86C1094.2 236.86 1094.62 237.52 1094.62 239.1V239.62C1091.16 239.64 1088.92 240.7 1088.92 242.8C1088.92 244.48 1090.34 245.28 1091.82 245.28C1093.26 245.28 1094.34 244.48 1094.78 243.66C1094.84 244.5 1095.3 245.36 1097.04 245.14ZM1094.62 241.82C1094.54 243 1093.34 243.96 1092.12 243.96C1091.18 243.96 1090.64 243.46 1090.64 242.68C1090.64 241.5 1091.8 240.86 1094.62 240.84V241.82ZM1090.7 232.54C1090.7 233.44 1091.28 234.48 1092.72 234.48C1094.16 234.48 1094.74 233.44 1094.74 232.54C1094.74 231.62 1094.16 230.66 1092.72 230.66C1091.28 230.66 1090.7 231.62 1090.7 232.54ZM1092.72 233.54C1092.08 233.54 1091.78 233.02 1091.78 232.56C1091.78 232.12 1092.04 231.6 1092.72 231.6C1093.38 231.6 1093.68 232.12 1093.68 232.56C1093.68 233.02 1093.34 233.54 1092.72 233.54ZM817.1 270H818.38L821.98 260.82H820.42L818.28 266.48C818.1 266.92 817.92 267.46 817.8 267.88L817.34 266.48L815.16 260.82H813.42L817.1 270ZM831.178 265.66V264.66C831.178 261.86 829.878 260.54 827.458 260.54C824.258 260.54 823.218 263 823.218 265.46C823.218 268.76 824.778 270.28 827.498 270.28C829.518 270.28 830.718 269.3 831.178 267.66L829.778 267.38C829.518 268.22 828.738 268.96 827.538 268.96C825.438 268.96 824.958 267.36 824.938 265.66H831.178ZM827.418 261.86C828.858 261.86 829.518 262.8 829.518 264.02V264.38H824.998C825.238 262.64 826.138 261.86 827.418 261.86ZM833.74 264.04C833.74 265 834 265.78 834.5 266.34C833.76 266.86 833.28 267.46 833.28 268.38C833.28 269.48 833.96 269.9 834.74 270.18C834.18 270.56 833.28 271.3 833.28 272.46C833.28 274.44 835.88 274.84 837.54 274.84C840.02 274.84 841.96 273.94 841.96 271.76C841.96 269.46 839.78 269.2 837.82 269.08C836.2 268.98 834.72 268.96 834.72 268C834.72 267.58 834.98 267.28 835.38 267C835.92 267.26 836.58 267.4 837.36 267.4C839.68 267.4 841.1 266.18 841.1 263.96C841.1 263.32 840.98 262.76 840.74 262.28C841.66 261.84 842.1 261.12 842.1 260.22C842.1 260.02 842.08 259.8 842.02 259.56L840.64 259.36V260.06C840.64 260.56 840.5 261.06 840.12 261.46C839.48 260.86 838.58 260.54 837.44 260.54C835.02 260.54 833.74 261.94 833.74 264.04ZM837.38 266.18C836 266.18 835.46 265.38 835.46 264C835.46 262.58 836.04 261.76 837.42 261.76C838.78 261.76 839.38 262.56 839.38 263.96C839.38 265.38 838.78 266.18 837.38 266.18ZM837.6 270.58C839.16 270.68 840.46 270.9 840.46 272C840.46 273.14 839.12 273.56 837.52 273.56C836.32 273.56 834.72 273.32 834.72 272.16C834.72 271.36 835.44 270.84 836.08 270.48C836.66 270.54 836.94 270.54 837.6 270.58ZM851.393 265.66V264.66C851.393 261.86 850.093 260.54 847.673 260.54C844.473 260.54 843.433 263 843.433 265.46C843.433 268.76 844.993 270.28 847.713 270.28C849.733 270.28 850.933 269.3 851.393 267.66L849.993 267.38C849.733 268.22 848.953 268.96 847.753 268.96C845.653 268.96 845.173 267.36 845.153 265.66H851.393ZM847.633 261.86C849.073 261.86 849.733 262.8 849.733 264.02V264.38H845.213C845.453 262.64 846.353 261.86 847.633 261.86ZM852.895 262.1H854.455V267.3C854.455 268.76 854.895 270.2 856.715 270.2C858.095 270.2 858.735 269.38 859.155 268.36L857.935 267.82C857.735 268.54 857.415 268.88 856.915 268.88C856.275 268.88 856.055 268.36 856.055 267.22V262.1H858.655V260.82H856.055V258.1H854.595L854.495 260.82H852.895V262.1ZM868.543 270.14L868.863 268.74C867.643 268.96 867.723 268.24 867.723 267.52V263.88C867.723 261.56 866.763 260.54 864.403 260.54C861.743 260.54 860.523 261.66 860.743 263.42L862.323 263.7C862.223 262.34 863.043 261.86 864.283 261.86C865.703 261.86 866.123 262.52 866.123 264.1V264.62C862.663 264.64 860.423 265.7 860.423 267.8C860.423 269.48 861.843 270.28 863.323 270.28C864.763 270.28 865.843 269.48 866.283 268.66C866.343 269.5 866.803 270.36 868.543 270.14ZM866.123 266.82C866.043 268 864.843 268.96 863.623 268.96C862.683 268.96 862.143 268.46 862.143 267.68C862.143 266.5 863.303 265.86 866.123 265.84V266.82ZM870.927 270H872.527V265.32C872.767 263.94 873.427 262.04 874.787 262.04C875.367 262.04 875.707 262.62 875.707 262.62L876.587 261.36C876.587 261.36 876.127 260.54 875.087 260.54C873.627 260.54 872.787 261.72 872.467 262.6V260.82H870.927V270ZM878.329 270H879.929V265.32C880.169 263.94 880.829 262.04 882.189 262.04C882.769 262.04 883.109 262.62 883.109 262.62L883.989 261.36C883.989 261.36 883.529 260.54 882.489 260.54C881.029 260.54 880.189 261.72 879.869 262.6V260.82H878.329V270ZM892.897 265.66V264.66C892.897 261.86 891.597 260.54 889.177 260.54C885.977 260.54 884.937 263 884.937 265.46C884.937 268.76 886.497 270.28 889.217 270.28C891.237 270.28 892.437 269.3 892.897 267.66L891.497 267.38C891.237 268.22 890.457 268.96 889.257 268.96C887.157 268.96 886.677 267.36 886.657 265.66H892.897ZM889.137 261.86C890.577 261.86 891.237 262.8 891.237 264.02V264.38H886.717C886.957 262.64 887.857 261.86 889.137 261.86ZM894.398 262.1H895.958V267.3C895.958 268.76 896.398 270.2 898.218 270.2C899.598 270.2 900.238 269.38 900.658 268.36L899.438 267.82C899.238 268.54 898.918 268.88 898.418 268.88C897.778 268.88 897.558 268.36 897.558 267.22V262.1H900.158V260.82H897.558V258.1H896.098L895.998 260.82H894.398V262.1ZM901.547 262.1H903.107V267.3C903.107 268.76 903.547 270.2 905.367 270.2C906.747 270.2 907.387 269.38 907.807 268.36L906.587 267.82C906.387 268.54 906.067 268.88 905.567 268.88C904.927 268.88 904.707 268.36 904.707 267.22V262.1H907.307V260.82H904.707V258.1H903.247L903.147 260.82H901.547V262.1ZM917.195 270.14L917.515 268.74C916.295 268.96 916.375 268.24 916.375 267.52V263.88C916.375 261.56 915.415 260.54 913.055 260.54C910.395 260.54 909.175 261.66 909.395 263.42L910.975 263.7C910.875 262.34 911.695 261.86 912.935 261.86C914.355 261.86 914.775 262.52 914.775 264.1V264.62C911.315 264.64 909.075 265.7 909.075 267.8C909.075 269.48 910.495 270.28 911.975 270.28C913.415 270.28 914.495 269.48 914.935 268.66C914.995 269.5 915.455 270.36 917.195 270.14ZM914.775 266.82C914.695 268 913.495 268.96 912.275 268.96C911.335 268.96 910.795 268.46 910.795 267.68C910.795 266.5 911.955 265.86 914.775 265.84V266.82ZM919.579 270H921.179V265.32C921.419 263.94 922.079 262.04 923.439 262.04C924.019 262.04 924.359 262.62 924.359 262.62L925.239 261.36C925.239 261.36 924.779 260.54 923.739 260.54C922.279 260.54 921.439 261.72 921.119 262.6V260.82H919.579V270ZM925.607 268.9C925.607 269.62 926.187 270.2 926.907 270.2C927.627 270.2 928.207 269.62 928.207 268.9C928.207 268.18 927.627 267.6 926.907 267.6C926.187 267.6 925.607 268.18 925.607 268.9Z" fill="#231F20"/>
<path d="M841.504 77.152C841.504 77.472 841.611 77.728 841.824 77.92L843.936 79.936V80H833.28V79.936L835.424 77.92C835.616 77.728 835.712 77.472 835.712 77.152V64.288C835.712 63.648 835.744 63.008 835.808 62.368L828.576 80.256H828.512L821.024 63.808C820.704 63.1467 820.501 62.6773 820.416 62.4V74.624C820.416 74.944 820.555 75.296 820.832 75.68L824.064 79.936V80H816.096V79.936L819.328 75.68C819.605 75.296 819.744 74.944 819.744 74.624V61.952C819.744 61.568 819.648 61.2587 819.456 61.024L816.832 57.568V57.504H824.48L831.168 72.096L837.056 57.504H843.936V57.568L841.824 59.904C841.611 60.1173 841.504 60.384 841.504 60.704V77.152ZM859.618 71.36H850.018V71.424C850.018 73.3867 850.444 74.8587 851.298 75.84C852.151 76.8 853.25 77.28 854.594 77.28C856.855 77.28 858.476 76.2987 859.458 74.336H859.522C858.711 78.2827 856.354 80.256 852.45 80.256C850.252 80.256 848.396 79.5733 846.882 78.208C845.367 76.8427 844.61 74.8373 844.61 72.192C844.61 69.3973 845.367 67.3173 846.882 65.952C848.396 64.5867 850.316 63.904 852.642 63.904C853.538 63.904 854.38 64.0213 855.17 64.256C855.959 64.4907 856.695 64.8533 857.378 65.344C858.082 65.8347 858.636 66.5387 859.042 67.456C859.447 68.352 859.65 69.4187 859.65 70.656C859.65 70.8693 859.639 71.104 859.618 71.36ZM852.578 64.512C851.746 64.512 851.116 65.0027 850.69 65.984C850.263 66.944 850.039 68.544 850.018 70.784H854.722C854.743 70.5067 854.754 70.1867 854.754 69.824C854.754 67.84 854.562 66.464 854.178 65.696C853.815 64.9067 853.282 64.512 852.578 64.512ZM877.887 70.656C877.887 71.424 877.865 72.704 877.823 74.496C877.801 76.2667 877.791 77.3333 877.791 77.696C877.791 78.016 877.887 78.272 878.079 78.464L879.679 79.936V80H870.687V79.936L872.223 78.464C872.415 78.272 872.511 78.0267 872.511 77.728C872.511 77.664 872.521 76.7467 872.543 74.976C872.585 73.184 872.607 71.9893 872.607 71.392C872.607 69.792 872.436 68.5867 872.095 67.776C871.753 66.9653 871.113 66.56 870.175 66.56C869.236 66.56 868.447 67.0293 867.807 67.968V77.696C867.807 78.0373 867.903 78.2933 868.095 78.464L869.663 79.936V80H860.703V79.936L862.271 78.464C862.463 78.2933 862.559 78.0373 862.559 77.696V66.624C862.559 66.304 862.463 66.0373 862.271 65.824L860.703 64.224V64.16H867.807V67.552C868.681 65.12 870.377 63.904 872.895 63.904C874.495 63.904 875.721 64.48 876.575 65.632C877.449 66.784 877.887 68.4587 877.887 70.656ZM892.431 69.472L888.335 79.392C887.503 81.376 886.586 83.1467 885.583 84.704C884.922 85.728 884.25 86.4533 883.567 86.88C882.906 87.328 882.095 87.552 881.135 87.552C880.623 87.552 880.122 87.4453 879.631 87.232L880.815 81.632H880.879L884.047 84.768C884.218 84.9387 884.346 85.024 884.431 85.024C884.58 85.024 884.74 84.896 884.911 84.64C885.338 84.0427 885.743 83.3067 886.127 82.432L886.319 81.92L880.367 66.816C880.26 66.5387 880.1 66.1867 879.887 65.76L879.023 64.224V64.16H887.311V64.224L886.031 65.984C885.882 66.1973 885.86 66.4427 885.967 66.72L889.199 75.68L891.791 69.376C891.898 69.0987 891.951 68.9067 891.951 68.8C891.972 68.672 891.919 68.4693 891.791 68.192L889.839 64.224V64.16H895.311V64.224L893.231 67.808C892.954 68.256 892.687 68.8107 892.431 69.472Z" fill="#231F20"/>
<g clip-path="url(#clip0_447_291)">
<path d="M421.48 166.36C491.294 166.36 547.89 159.259 547.89 150.5C547.89 141.741 491.294 134.64 421.48 134.64C351.666 134.64 295.07 141.741 295.07 150.5C295.07 159.259 351.666 166.36 421.48 166.36Z" stroke="#231F20" stroke-miterlimit="10"/>
<path d="M514.81 231.08C539 192.79 547.88 150.5 547.88 150.5" stroke="#282828" stroke-miterlimit="10"/>
<path d="M313.92 205.86C314.84 207.88 315.81 209.91 316.81 211.96C319.92 218.3 323.41 224.75 327.31 231.08" stroke="#231F20" stroke-miterlimit="10"/>
<path d="M308.71 193.74C300.2 172.62 296.14 155.36 295.26 151.37C295.13 150.8 295.07 150.5 295.07 150.5" stroke="#231F20" stroke-miterlimit="10"/>
<path d="M351.9 262.42C258.16 237.98 232.46 189.52 253.25 183.23C270.96 177.87 299.9 189.79 308.71 193.74C310.29 197.67 312.02 201.72 313.92 205.86C306.12 202.07 281.83 191.01 269.23 193.86C254.49 197.2 272.17 223.47 335.86 243.81C340.69 250.4 346.03 256.69 351.9 262.42V262.42Z" stroke="#231F20" stroke-miterlimit="10"/>
<path d="M355.88 263.43C354.54 263.1 353.21 262.76 351.9 262.42" stroke="#282828" stroke-miterlimit="10"/>
<path d="M341.24 245.48C339.41 244.93 337.61 244.37 335.86 243.81" stroke="#282828" stroke-miterlimit="10"/>
<path d="M514.81 231.08C495.08 262.34 465.13 290.92 421.48 291.65C392.64 292.13 369.78 279.88 351.9 262.42C346.03 256.69 340.69 250.4 335.86 243.81C332.81 239.66 329.97 235.4 327.31 231.08H514.81Z" fill="#231F20" stroke="#231F20" stroke-miterlimit="10"/>
<path d="M447.41 228.85C448.83 227.79 450.19 226.64 451.4 225.31C457.73 218.31 460.23 207.41 463.03 198.62C466.35 188.2 469.07 177.58 471.15 166.84C471.71 163.99 472.37 160.95 471.55 158.08C471.41 157.58 460.4 165.95 459.51 166.64C455.53 169.7 451.1 172.38 446.06 173.18C441.78 173.86 437.41 173.14 433.17 172.28C427.55 171.14 421.83 169.69 417.12 166.41C411.16 162.26 407.95 155.97 405.11 149.51C404.19 147.43 398.77 136.22 397.78 143.65C396.05 156.54 388.22 187.73 388.22 187.73C388.22 187.73 383.69 209.54 392.93 217.24" stroke="#231F20" stroke-miterlimit="10"/>
<path d="M417.94 187.4C414.45 189.34 410.29 190.07 406.07 189.17C401.86 188.27 398.35 185.91 395.96 182.72C399.45 180.78 403.61 180.05 407.83 180.95C412.05 181.85 415.55 184.21 417.94 187.4Z" fill="white" stroke="#231F20" stroke-miterlimit="10"/>
<path d="M406.95 189.25C409.27 189.25 411.15 187.37 411.15 185.05C411.15 182.731 409.27 180.85 406.95 180.85C404.63 180.85 402.75 182.731 402.75 185.05C402.75 187.37 404.63 189.25 406.95 189.25Z" fill="#231F20"/>
<path d="M456.79 195.68C453.3 197.62 449.14 198.35 444.92 197.45C440.7 196.55 437.2 194.19 434.81 191C438.3 189.06 442.46 188.33 446.68 189.23C450.89 190.13 454.4 192.49 456.79 195.68V195.68Z" fill="white" stroke="#231F20" stroke-miterlimit="10"/>
<path d="M445.8 197.53C448.12 197.53 450 195.649 450 193.33C450 191.01 448.12 189.13 445.8 189.13C443.48 189.13 441.6 191.01 441.6 193.33C441.6 195.649 443.48 197.53 445.8 197.53Z" fill="#231F20"/>
<path d="M449.53 213.19L436.81 207.48" stroke="#231F20" stroke-miterlimit="10" stroke-linecap="round"/>
<path d="M453.64 208.26L437.76 204.41" stroke="#231F20" stroke-miterlimit="10" stroke-linecap="round"/>
<path d="M395.39 194.21L412.92 197.81" stroke="#231F20" stroke-miterlimit="10" stroke-linecap="round"/>
<path d="M395.96 200.27L412.3 200.74" stroke="#231F20" stroke-miterlimit="10" stroke-linecap="round"/>
<path d="M399.37 227.47C399.37 233.83 395.18 238.99 390.01 238.99C384.84 238.99 380.66 233.83 380.66 227.47C380.66 221.11 384.85 215.96 390.01 215.96C395.17 215.96 399.37 221.11 399.37 227.47Z" fill="#F5F1EC" stroke="#231F20" stroke-miterlimit="10"/>
<path d="M449.53 238.99C454.699 238.99 458.89 233.837 458.89 227.48C458.89 221.123 454.699 215.97 449.53 215.97C444.361 215.97 440.17 221.123 440.17 227.48C440.17 233.837 444.361 238.99 449.53 238.99Z" fill="#F5F1EC" stroke="#231F20" stroke-miterlimit="10"/>
<path d="M385.32 237.43C385.32 237.43 383.89 229.63 387.1 227.48" stroke="#231F20" stroke-linecap="round" stroke-linejoin="round"/>
<path d="M391.49 238.83C391.49 238.83 388.87 233.25 391.49 228.85" stroke="#231F20" stroke-linecap="round" stroke-linejoin="round"/>
<path d="M445.17 238.12C445.17 238.12 443.74 230.32 446.95 228.17" stroke="#231F20" stroke-linecap="round" stroke-linejoin="round"/>
<path d="M451.34 239.52C451.34 239.52 448.72 233.94 451.34 229.54" stroke="#231F20" stroke-linecap="round" stroke-linejoin="round"/>
<path d="M422.85 83.3999C422.85 83.3999 467.59 85.4499 448.16 91.3299C441.65 93.2999 432.7 95.5599 423.69 97.4699C405.81 101.26 387.73 103.68 388.17 99.7699C388.84 93.8899 430.26 86.9099 430.26 86.9099C430.26 86.9099 430.26 105.03 437.8 101.76C445.35 98.4899 428.98 98.9999 428.98 98.9999C428.98 98.9999 400.34 103.6 397.02 109.48C393.7 115.36 430.77 112.29 430.77 112.29C430.77 112.29 413.37 96.6899 401.62 97.2099C389.87 97.7199 431.02 107.18 431.02 107.18C431.02 107.18 459.48 88.4499 443.04 87.9999C426.59 87.5499 416.71 95.1599 416.71 95.1599C416.71 95.1599 460.75 97.2099 453.05 104.11C445.35 111.01 412.36 108.46 412.36 108.46" stroke="#CC7722" stroke-width="0.8" stroke-miterlimit="10"/>
</g>
<defs>
<clipPath id="clip0_447_291">
<rect width="302.38" height="209.17" fill="white" transform="translate(246 83)"/>
</clipPath>
</defs>
</svg>
