<svg width="1280" height="372" viewBox="0 0 1280 372" fill="none" xmlns="http://www.w3.org/2000/svg">
<path d="M0 0H1280V372H0V0Z" fill="#F5F1EC"/>
<path d="M739 0H1280V372H739V0Z" fill="#FFFDFB"/>
<path d="M848.96 165H850.7V158.94H851.18L856.02 165H858.28L852.6 157.98L857.94 151.78H855.8L851.16 157.26H850.7V151.78H848.96V165ZM867.621 165.14L867.941 163.74C866.721 163.96 866.801 163.24 866.801 162.52V158.88C866.801 156.56 865.841 155.54 863.481 155.54C860.821 155.54 859.601 156.66 859.821 158.42L861.401 158.7C861.301 157.34 862.121 156.86 863.361 156.86C864.781 156.86 865.201 157.52 865.201 159.1V159.62C861.741 159.64 859.501 160.7 859.501 162.8C859.501 164.48 860.921 165.28 862.401 165.28C863.841 165.28 864.921 164.48 865.361 163.66C865.421 164.5 865.881 165.36 867.621 165.14ZM865.201 161.82C865.121 163 863.921 163.96 862.701 163.96C861.761 163.96 861.221 163.46 861.221 162.68C861.221 161.5 862.381 160.86 865.201 160.84V161.82ZM868.985 157.1H870.625V165H872.225V157.1H874.805V155.82H872.225V154.6C872.225 152.8 872.765 151.74 874.225 151.74C875.045 151.74 875.405 152.12 875.705 152.6L876.765 151.44C876.765 151.44 876.225 150.38 874.225 150.38C871.905 150.38 870.625 151.92 870.625 154.4V155.82H868.985V157.1ZM884.006 160.66V159.66C884.006 156.86 882.706 155.54 880.286 155.54C877.086 155.54 876.046 158 876.046 160.46C876.046 163.76 877.606 165.28 880.326 165.28C882.346 165.28 883.546 164.3 884.006 162.66L882.606 162.38C882.346 163.22 881.566 163.96 880.366 163.96C878.266 163.96 877.786 162.36 877.766 160.66H884.006ZM880.246 156.86C881.686 156.86 882.346 157.8 882.346 159.02V159.38H877.826C878.066 157.64 878.966 156.86 880.246 156.86ZM879.286 153.9L880.226 154.54L883.226 150.8L881.926 149.94L879.286 153.9ZM893.948 160.66V159.66C893.948 156.86 892.648 155.54 890.228 155.54C887.028 155.54 885.988 158 885.988 160.46C885.988 163.76 887.548 165.28 890.268 165.28C892.288 165.28 893.488 164.3 893.948 162.66L892.548 162.38C892.288 163.22 891.508 163.96 890.308 163.96C888.208 163.96 887.728 162.36 887.708 160.66H893.948ZM890.188 156.86C891.628 156.86 892.288 157.8 892.288 159.02V159.38H887.768C888.008 157.64 888.908 156.86 890.188 156.86ZM896.489 165H898.089V160.1C898.269 159.28 899.009 156.92 901.069 156.92C902.029 156.92 902.509 157.44 902.509 158.82V165H904.109V158.36C904.109 156.4 902.889 155.54 901.329 155.54C899.169 155.54 898.309 157.02 898.029 157.64V155.82H896.489V165ZM917.88 165H919.48V158.36C919.48 156.4 918.26 155.54 916.7 155.54C914.68 155.54 913.78 156.82 913.46 157.5V150.64H911.86V165H913.46V160.1C913.64 159.28 914.38 156.92 916.44 156.92C917.4 156.92 917.88 157.44 917.88 158.82V165ZM929.945 165.14L930.265 163.74C929.045 163.96 929.125 163.24 929.125 162.52V158.88C929.125 156.56 928.165 155.54 925.805 155.54C923.145 155.54 921.925 156.66 922.145 158.42L923.725 158.7C923.625 157.34 924.445 156.86 925.685 156.86C927.105 156.86 927.525 157.52 927.525 159.1V159.62C924.065 159.64 921.825 160.7 921.825 162.8C921.825 164.48 923.245 165.28 924.725 165.28C926.165 165.28 927.245 164.48 927.685 163.66C927.745 164.5 928.205 165.36 929.945 165.14ZM927.525 161.82C927.445 163 926.245 163.96 925.025 163.96C924.085 163.96 923.545 163.46 923.545 162.68C923.545 161.5 924.705 160.86 927.525 160.84V161.82ZM932.329 165H933.929V160.32C934.169 158.94 934.829 157.04 936.189 157.04C936.769 157.04 937.109 157.62 937.109 157.62L937.989 156.36C937.989 156.36 937.529 155.54 936.489 155.54C935.029 155.54 934.189 156.72 933.869 157.6V155.82H932.329V165ZM951.448 160.66V159.66C951.448 156.86 950.148 155.54 947.728 155.54C944.528 155.54 943.488 158 943.488 160.46C943.488 163.76 945.048 165.28 947.768 165.28C949.788 165.28 950.988 164.3 951.448 162.66L950.048 162.38C949.788 163.22 949.008 163.96 947.808 163.96C945.708 163.96 945.228 162.36 945.208 160.66H951.448ZM947.688 156.86C949.128 156.86 949.788 157.8 949.788 159.02V159.38H945.268C945.508 157.64 946.408 156.86 947.688 156.86ZM953.689 152.64C953.689 153.26 954.149 153.72 954.769 153.72C955.369 153.72 955.849 153.26 955.849 152.64C955.849 152.04 955.369 151.56 954.769 151.56C954.149 151.56 953.689 152.04 953.689 152.64ZM953.989 165H955.589V155.82H953.989V165ZM957.637 157.1H959.197V162.3C959.197 163.76 959.637 165.2 961.457 165.2C962.837 165.2 963.477 164.38 963.897 163.36L962.677 162.82C962.477 163.54 962.157 163.88 961.657 163.88C961.017 163.88 960.797 163.36 960.797 162.22V157.1H963.397V155.82H960.797V153.1H959.337L959.237 155.82H957.637V157.1ZM972.682 165H973.962L977.562 155.82H976.002L973.862 161.48C973.682 161.92 973.502 162.46 973.382 162.88L972.922 161.48L970.742 155.82H969.002L972.682 165ZM986.859 165.14L987.179 163.74C985.959 163.96 986.039 163.24 986.039 162.52V158.88C986.039 156.56 985.079 155.54 982.719 155.54C980.059 155.54 978.839 156.66 979.059 158.42L980.639 158.7C980.539 157.34 981.359 156.86 982.599 156.86C984.019 156.86 984.439 157.52 984.439 159.1V159.62C980.979 159.64 978.739 160.7 978.739 162.8C978.739 164.48 980.159 165.28 981.639 165.28C983.079 165.28 984.159 164.48 984.599 163.66C984.659 164.5 985.119 165.36 986.859 165.14ZM984.439 161.82C984.359 163 983.159 163.96 981.939 163.96C980.999 163.96 980.459 163.46 980.459 162.68C980.459 161.5 981.619 160.86 984.439 160.84V161.82ZM989.243 165H990.843V160.32C991.083 158.94 991.743 157.04 993.103 157.04C993.683 157.04 994.023 157.62 994.023 157.62L994.903 156.36C994.903 156.36 994.443 155.54 993.403 155.54C991.943 155.54 991.103 156.72 990.783 157.6V155.82H989.243V165ZM996.345 152.64C996.345 153.26 996.805 153.72 997.425 153.72C998.025 153.72 998.505 153.26 998.505 152.64C998.505 152.04 998.025 151.56 997.425 151.56C996.805 151.56 996.345 152.04 996.345 152.64ZM996.645 165H998.245V155.82H996.645V165ZM1008.73 160.66V159.66C1008.73 156.86 1007.43 155.54 1005.01 155.54C1001.81 155.54 1000.77 158 1000.77 160.46C1000.77 163.76 1002.33 165.28 1005.05 165.28C1007.07 165.28 1008.27 164.3 1008.73 162.66L1007.33 162.38C1007.07 163.22 1006.29 163.96 1005.09 163.96C1002.99 163.96 1002.51 162.36 1002.49 160.66H1008.73ZM1004.97 156.86C1006.41 156.86 1007.07 157.8 1007.07 159.02V159.38H1002.55C1002.79 157.64 1003.69 156.86 1004.97 156.86ZM1011.27 165H1012.87V160.32C1013.11 158.94 1013.77 157.04 1015.13 157.04C1015.71 157.04 1016.05 157.62 1016.05 157.62L1016.93 156.36C1016.93 156.36 1016.47 155.54 1015.43 155.54C1013.97 155.54 1013.13 156.72 1012.81 157.6V155.82H1011.27V165ZM1017.64 157.1H1019.2V162.3C1019.2 163.76 1019.64 165.2 1021.46 165.2C1022.84 165.2 1023.48 164.38 1023.9 163.36L1022.68 162.82C1022.48 163.54 1022.16 163.88 1021.66 163.88C1021.02 163.88 1020.8 163.36 1020.8 162.22V157.1H1023.4V155.82H1020.8V153.1H1019.34L1019.24 155.82H1017.64V157.1ZM1029.2 157.1H1030.76V162.3C1030.76 163.76 1031.2 165.2 1033.02 165.2C1034.4 165.2 1035.04 164.38 1035.46 163.36L1034.24 162.82C1034.04 163.54 1033.72 163.88 1033.22 163.88C1032.58 163.88 1032.36 163.36 1032.36 162.22V157.1H1034.96V155.82H1032.36V153.1H1030.9L1030.8 155.82H1029.2V157.1ZM1037.09 152.64C1037.09 153.26 1037.55 153.72 1038.17 153.72C1038.77 153.72 1039.25 153.26 1039.25 152.64C1039.25 152.04 1038.77 151.56 1038.17 151.56C1037.55 151.56 1037.09 152.04 1037.09 152.64ZM1037.39 165H1038.99V155.82H1037.39V165ZM1042.08 165H1043.68V150.64H1042.08V165ZM1046.76 165H1048.1L1048.18 163.78C1048.66 164.62 1049.46 165.28 1051 165.28C1053.76 165.28 1055 162.98 1055 160.1C1055 157.84 1054 155.54 1051.16 155.54C1049.84 155.54 1048.92 156.24 1048.36 156.98V150.64H1046.76V165ZM1050.96 163.96C1049.38 163.96 1048.38 162.54 1048.38 160.48C1048.38 158.42 1049.34 156.86 1051.02 156.86C1052.42 156.86 1053.28 157.94 1053.28 160.22C1053.28 162.34 1052.64 163.96 1050.96 163.96ZM1061.24 165.28C1064.22 165.28 1065.48 163.1 1065.48 160.26C1065.48 157.28 1064.06 155.54 1061.24 155.54C1058.32 155.54 1056.96 157.56 1056.96 160.26C1056.96 163.32 1058.22 165.28 1061.24 165.28ZM1061.24 163.96C1059.58 163.96 1058.68 162.76 1058.68 160.46C1058.68 158.18 1059.58 156.86 1061.24 156.86C1062.88 156.86 1063.76 158.14 1063.76 160.46C1063.76 162.58 1062.88 163.96 1061.24 163.96ZM1074.41 165H1075.77V150.64H1074.17V156.58C1073.61 155.96 1072.67 155.54 1071.47 155.54C1068.79 155.54 1067.45 157.64 1067.45 160.56C1067.45 162.78 1068.27 165.28 1071.13 165.28C1072.71 165.28 1073.75 164.56 1074.29 163.54L1074.41 165ZM1071.47 163.96C1069.45 163.96 1069.17 161.9 1069.17 160.46C1069.17 158.14 1069.89 156.86 1071.61 156.86C1073.83 156.86 1074.17 158.9 1074.17 160.16C1074.17 162.18 1073.31 163.96 1071.47 163.96ZM1083.6 165H1085.2V160.1C1085.38 159.28 1086.12 156.92 1088.18 156.92C1089.14 156.92 1089.62 157.44 1089.62 158.82V165H1091.22V160.1C1091.4 159.28 1092.14 156.92 1094.2 156.92C1095.16 156.92 1095.64 157.44 1095.64 158.82V165H1097.24V158.36C1097.24 156.4 1096.02 155.54 1094.46 155.54C1092.14 155.54 1091.3 157.26 1091.1 157.76C1090.8 156.1 1089.76 155.54 1088.44 155.54C1086.28 155.54 1085.42 157.02 1085.14 157.64V155.82H1083.6V165ZM1107.64 160.66V159.66C1107.64 156.86 1106.34 155.54 1103.92 155.54C1100.72 155.54 1099.68 158 1099.68 160.46C1099.68 163.76 1101.24 165.28 1103.96 165.28C1105.98 165.28 1107.18 164.3 1107.64 162.66L1106.24 162.38C1105.98 163.22 1105.2 163.96 1104 163.96C1101.9 163.96 1101.42 162.36 1101.4 160.66H1107.64ZM1103.88 156.86C1105.32 156.86 1105.98 157.8 1105.98 159.02V159.38H1101.46C1101.7 157.64 1102.6 156.86 1103.88 156.86ZM1116.58 165H1117.94V150.64H1116.34V156.58C1115.78 155.96 1114.84 155.54 1113.64 155.54C1110.96 155.54 1109.62 157.64 1109.62 160.56C1109.62 162.78 1110.44 165.28 1113.3 165.28C1114.88 165.28 1115.92 164.56 1116.46 163.54L1116.58 165ZM1113.64 163.96C1111.62 163.96 1111.34 161.9 1111.34 160.46C1111.34 158.14 1112.06 156.86 1113.78 156.86C1116 156.86 1116.34 158.9 1116.34 160.16C1116.34 162.18 1115.48 163.96 1113.64 163.96ZM1131.29 165H1133.35L1129.25 159.96L1133.41 155.82H1131.35L1127.77 159.38H1127.37V150.64H1125.77V165H1127.37V160.66H1127.81L1131.29 165ZM1142.74 165.14L1143.06 163.74C1141.84 163.96 1141.92 163.24 1141.92 162.52V158.88C1141.92 156.56 1140.96 155.54 1138.6 155.54C1135.94 155.54 1134.72 156.66 1134.94 158.42L1136.52 158.7C1136.42 157.34 1137.24 156.86 1138.48 156.86C1139.9 156.86 1140.32 157.52 1140.32 159.1V159.62C1136.86 159.64 1134.62 160.7 1134.62 162.8C1134.62 164.48 1136.04 165.28 1137.52 165.28C1138.96 165.28 1140.04 164.48 1140.48 163.66C1140.54 164.5 1141 165.36 1142.74 165.14ZM1140.32 161.82C1140.24 163 1139.04 163.96 1137.82 163.96C1136.88 163.96 1136.34 163.46 1136.34 162.68C1136.34 161.5 1137.5 160.86 1140.32 160.84V161.82ZM1157.3 165H1158.9V155.82H1153.22V154.6C1153.22 152.76 1153.82 151.7 1155.24 151.7C1156.34 151.7 1156.76 152.36 1157.04 153.2L1158.4 152.34C1158.4 152.34 1158.02 150.38 1155.34 150.38C1152.96 150.38 1151.62 151.92 1151.62 154.4V155.82H1147.34V154.9C1147.34 153.06 1147.86 152 1149.24 152C1149.9 152 1150.32 152.3 1150.6 152.7L1151.58 151.64C1151.58 151.64 1151.08 150.68 1149.24 150.68C1146.98 150.68 1145.74 152.22 1145.74 154.7V155.82H1144.1V157.1H1145.74V165H1147.34V157.1H1151.62V165H1153.22V157.1H1157.3V165ZM1162.28 168.24C1163.48 167.3 1164.36 166.22 1164.36 164.8C1164.36 163.5 1163.62 162.76 1163.02 162.54L1161.52 163.72C1162.28 164.3 1162.8 164.76 1162.8 165.54C1162.8 166.28 1162.32 166.86 1161.58 167.56L1162.28 168.24ZM848.54 190H850.14V175.64H848.54V190ZM853.128 187.48C853.128 189.44 854.268 190.28 855.868 190.28C857.968 190.28 858.868 189 859.208 188.32L859.288 190H860.748V180.82H859.148V186C858.868 186.98 858.068 188.9 856.128 188.9C855.168 188.9 854.728 188.38 854.728 187.02V180.82H853.128V187.48ZM863.833 190H865.433V185.1C865.613 184.28 866.353 181.92 868.413 181.92C869.373 181.92 869.853 182.44 869.853 183.82V190H871.453V183.36C871.453 181.4 870.233 180.54 868.673 180.54C866.513 180.54 865.653 182.02 865.373 182.64V180.82H863.833V190ZM873.778 187.44C873.578 189.46 875.618 190.28 877.478 190.28C879.578 190.28 881.098 189.24 881.098 187.42C881.098 184.02 875.718 185.3 875.718 183C875.718 182.22 876.398 181.86 877.438 181.86C879.078 181.86 879.318 182.84 879.198 183.48L880.798 183.2C881.118 181.42 879.458 180.54 877.518 180.54C875.198 180.54 874.078 181.74 874.078 183.28C874.078 186.62 879.418 185.48 879.418 187.72C879.418 188.56 878.598 188.96 877.418 188.96C875.878 188.96 875.198 188.18 875.298 187.2L873.778 187.44ZM883.24 177.64C883.24 178.26 883.7 178.72 884.32 178.72C884.92 178.72 885.4 178.26 885.4 177.64C885.4 177.04 884.92 176.56 884.32 176.56C883.7 176.56 883.24 177.04 883.24 177.64ZM880.86 194.84C884.7 194.94 885.14 191.94 885.14 189.54V180.82H883.54V189C883.54 191.98 883.14 193.48 880.86 193.48V194.84ZM888.228 190H889.828V185.32C890.068 183.94 890.728 182.04 892.088 182.04C892.668 182.04 893.008 182.62 893.008 182.62L893.888 181.36C893.888 181.36 893.428 180.54 892.388 180.54C890.928 180.54 890.088 181.72 889.768 182.6V180.82H888.228V190ZM902.795 185.66V184.66C902.795 181.86 901.495 180.54 899.075 180.54C895.875 180.54 894.835 183 894.835 185.46C894.835 188.76 896.395 190.28 899.115 190.28C901.135 190.28 902.335 189.3 902.795 187.66L901.395 187.38C901.135 188.22 900.355 188.96 899.155 188.96C897.055 188.96 896.575 187.36 896.555 185.66H902.795ZM899.035 181.86C900.475 181.86 901.135 182.8 901.135 184.02V184.38H896.615C896.855 182.64 897.755 181.86 899.035 181.86ZM904.297 182.1H905.857V187.3C905.857 188.76 906.297 190.2 908.117 190.2C909.497 190.2 910.137 189.38 910.557 188.36L909.337 187.82C909.137 188.54 908.817 188.88 908.317 188.88C907.677 188.88 907.457 188.36 907.457 187.22V182.1H910.057V180.82H907.457V178.1H905.997L905.897 180.82H904.297V182.1ZM911.445 182.1H913.005V187.3C913.005 188.76 913.445 190.2 915.265 190.2C916.645 190.2 917.285 189.38 917.705 188.36L916.485 187.82C916.285 188.54 915.965 188.88 915.465 188.88C914.825 188.88 914.605 188.36 914.605 187.22V182.1H917.205V180.82H914.605V178.1H913.145L913.045 180.82H911.445V182.1ZM927.094 190.14L927.414 188.74C926.194 188.96 926.274 188.24 926.274 187.52V183.88C926.274 181.56 925.314 180.54 922.954 180.54C920.294 180.54 919.074 181.66 919.294 183.42L920.874 183.7C920.774 182.34 921.594 181.86 922.834 181.86C924.254 181.86 924.674 182.52 924.674 184.1V184.62C921.214 184.64 918.974 185.7 918.974 187.8C918.974 189.48 920.394 190.28 921.874 190.28C923.314 190.28 924.394 189.48 924.834 188.66C924.894 189.5 925.354 190.36 927.094 190.14ZM924.674 186.82C924.594 188 923.394 188.96 922.174 188.96C921.234 188.96 920.694 188.46 920.694 187.68C920.694 186.5 921.854 185.86 924.674 185.84V186.82ZM929.478 190H931.078V185.32C931.318 183.94 931.978 182.04 933.338 182.04C933.918 182.04 934.258 182.62 934.258 182.62L935.138 181.36C935.138 181.36 934.678 180.54 933.638 180.54C932.178 180.54 931.338 181.72 931.018 182.6V180.82H929.478V190ZM944.916 190.28C947.896 190.28 949.156 188.1 949.156 185.26C949.156 182.28 947.736 180.54 944.916 180.54C941.996 180.54 940.636 182.56 940.636 185.26C940.636 188.32 941.896 190.28 944.916 190.28ZM944.916 188.96C943.256 188.96 942.356 187.76 942.356 185.46C942.356 183.18 943.256 181.86 944.916 181.86C946.556 181.86 947.436 183.14 947.436 185.46C947.436 187.58 946.556 188.96 944.916 188.96ZM951.705 184.04C951.705 185 951.965 185.78 952.465 186.34C951.725 186.86 951.245 187.46 951.245 188.38C951.245 189.48 951.925 189.9 952.705 190.18C952.145 190.56 951.245 191.3 951.245 192.46C951.245 194.44 953.845 194.84 955.505 194.84C957.985 194.84 959.925 193.94 959.925 191.76C959.925 189.46 957.745 189.2 955.785 189.08C954.165 188.98 952.685 188.96 952.685 188C952.685 187.58 952.945 187.28 953.345 187C953.885 187.26 954.545 187.4 955.325 187.4C957.645 187.4 959.065 186.18 959.065 183.96C959.065 183.32 958.945 182.76 958.705 182.28C959.625 181.84 960.065 181.12 960.065 180.22C960.065 180.02 960.045 179.8 959.985 179.56L958.605 179.36V180.06C958.605 180.56 958.465 181.06 958.085 181.46C957.445 180.86 956.545 180.54 955.405 180.54C952.985 180.54 951.705 181.94 951.705 184.04ZM955.345 186.18C953.965 186.18 953.425 185.38 953.425 184C953.425 182.58 954.005 181.76 955.385 181.76C956.745 181.76 957.345 182.56 957.345 183.96C957.345 185.38 956.745 186.18 955.345 186.18ZM955.565 190.58C957.125 190.68 958.425 190.9 958.425 192C958.425 193.14 957.085 193.56 955.485 193.56C954.285 193.56 952.685 193.32 952.685 192.16C952.685 191.36 953.405 190.84 954.045 190.48C954.625 190.54 954.905 190.54 955.565 190.58ZM972.224 190H974.284L970.184 184.96L974.344 180.82H972.284L968.704 184.38H968.304V175.64H966.704V190H968.304V185.66H968.744L972.224 190ZM983.676 190.14L983.996 188.74C982.776 188.96 982.856 188.24 982.856 187.52V183.88C982.856 181.56 981.896 180.54 979.536 180.54C976.876 180.54 975.656 181.66 975.876 183.42L977.456 183.7C977.356 182.34 978.176 181.86 979.416 181.86C980.836 181.86 981.256 182.52 981.256 184.1V184.62C977.796 184.64 975.556 185.7 975.556 187.8C975.556 189.48 976.976 190.28 978.456 190.28C979.896 190.28 980.976 189.48 981.416 188.66C981.476 189.5 981.936 190.36 983.676 190.14ZM981.256 186.82C981.176 188 979.976 188.96 978.756 188.96C977.816 188.96 977.276 188.46 977.276 187.68C977.276 186.5 978.436 185.86 981.256 185.84V186.82ZM991.58 190H993.64L989.54 184.96L993.7 180.82H991.64L988.06 184.38H987.66V175.64H986.06V190H987.66V185.66H988.1L991.58 190ZM1002.66 185.66V184.66C1002.66 181.86 1001.36 180.54 998.939 180.54C995.739 180.54 994.699 183 994.699 185.46C994.699 188.76 996.259 190.28 998.979 190.28C1001 190.28 1002.2 189.3 1002.66 187.66L1001.26 187.38C1001 188.22 1000.22 188.96 999.019 188.96C996.919 188.96 996.439 187.36 996.419 185.66H1002.66ZM998.899 181.86C1000.34 181.86 1001 182.8 1001 184.02V184.38H996.479C996.719 182.64 997.619 181.86 998.899 181.86ZM1005.2 190H1006.8V185.32C1007.04 183.94 1007.7 182.04 1009.06 182.04C1009.64 182.04 1009.98 182.62 1009.98 182.62L1010.86 181.36C1010.86 181.36 1010.4 180.54 1009.36 180.54C1007.9 180.54 1007.06 181.72 1006.74 182.6V180.82H1005.2V190ZM1011.23 188.9C1011.23 189.62 1011.81 190.2 1012.53 190.2C1013.25 190.2 1013.83 189.62 1013.83 188.9C1013.83 188.18 1013.25 187.6 1012.53 187.6C1011.81 187.6 1011.23 188.18 1011.23 188.9ZM1019.67 190H1021.43L1022.91 186.14H1027.85L1029.33 190H1031.25L1026.11 176.78H1024.79L1019.67 190ZM1024.65 181.6C1024.91 180.92 1025.17 180.1 1025.39 179.38C1025.61 180.1 1025.87 180.96 1026.13 181.6L1027.29 184.68H1023.47L1024.65 181.6ZM1033.19 190H1034.79V175.64H1033.19V190ZM1036.84 182.1H1038.4V187.3C1038.4 188.76 1038.84 190.2 1040.66 190.2C1042.04 190.2 1042.68 189.38 1043.1 188.36L1041.88 187.82C1041.68 188.54 1041.36 188.88 1040.86 188.88C1040.22 188.88 1040 188.36 1040 187.22V182.1H1042.6V180.82H1040V178.1H1038.54L1038.44 180.82H1036.84V182.1ZM1057.17 185.66V184.66C1057.17 181.86 1055.87 180.54 1053.45 180.54C1050.25 180.54 1049.21 183 1049.21 185.46C1049.21 188.76 1050.77 190.28 1053.49 190.28C1055.51 190.28 1056.71 189.3 1057.17 187.66L1055.77 187.38C1055.51 188.22 1054.73 188.96 1053.53 188.96C1051.43 188.96 1050.95 187.36 1050.93 185.66H1057.17ZM1053.41 181.86C1054.85 181.86 1055.51 182.8 1055.51 184.02V184.38H1050.99C1051.23 182.64 1052.13 181.86 1053.41 181.86ZM1059.71 190H1061.31V185.32C1061.55 183.94 1062.21 182.04 1063.57 182.04C1064.15 182.04 1064.49 182.62 1064.49 182.62L1065.37 181.36C1065.37 181.36 1064.91 180.54 1063.87 180.54C1062.41 180.54 1061.57 181.72 1061.25 182.6V180.82H1059.71V190ZM1077.45 190H1079.05V183.36C1079.05 181.4 1077.83 180.54 1076.27 180.54C1074.25 180.54 1073.35 181.82 1073.03 182.5V175.64H1071.43V190H1073.03V185.1C1073.21 184.28 1073.95 181.92 1076.01 181.92C1076.97 181.92 1077.45 182.44 1077.45 183.82V190ZM1089.46 185.66V184.66C1089.46 181.86 1088.16 180.54 1085.74 180.54C1082.54 180.54 1081.5 183 1081.5 185.46C1081.5 188.76 1083.06 190.28 1085.78 190.28C1087.8 190.28 1089 189.3 1089.46 187.66L1088.06 187.38C1087.8 188.22 1087.02 188.96 1085.82 188.96C1083.72 188.96 1083.24 187.36 1083.22 185.66H1089.46ZM1085.7 181.86C1087.14 181.86 1087.8 182.8 1087.8 184.02V184.38H1083.28C1083.52 182.64 1084.42 181.86 1085.7 181.86ZM1091.7 177.64C1091.7 178.26 1092.16 178.72 1092.78 178.72C1093.38 178.72 1093.86 178.26 1093.86 177.64C1093.86 177.04 1093.38 176.56 1092.78 176.56C1092.16 176.56 1091.7 177.04 1091.7 177.64ZM1092 190H1093.6V180.82H1092V190ZM1096.68 190H1098.28V185.1C1098.46 184.28 1099.2 181.92 1101.26 181.92C1102.22 181.92 1102.7 182.44 1102.7 183.82V190H1104.3V185.1C1104.48 184.28 1105.22 181.92 1107.28 181.92C1108.24 181.92 1108.72 182.44 1108.72 183.82V190H1110.32V183.36C1110.32 181.4 1109.1 180.54 1107.54 180.54C1105.22 180.54 1104.38 182.26 1104.18 182.76C1103.88 181.1 1102.84 180.54 1101.52 180.54C1099.36 180.54 1098.5 182.02 1098.22 182.64V180.82H1096.68V190ZM1120.73 185.66V184.66C1120.73 181.86 1119.43 180.54 1117.01 180.54C1113.81 180.54 1112.77 183 1112.77 185.46C1112.77 188.76 1114.33 190.28 1117.05 190.28C1119.07 190.28 1120.27 189.3 1120.73 187.66L1119.33 187.38C1119.07 188.22 1118.29 188.96 1117.09 188.96C1114.99 188.96 1114.51 187.36 1114.49 185.66H1120.73ZM1116.97 181.86C1118.41 181.86 1119.07 182.8 1119.07 184.02V184.38H1114.55C1114.79 182.64 1115.69 181.86 1116.97 181.86ZM1123.27 190H1124.87V175.64H1123.27V190ZM1135.41 190.14L1135.73 188.74C1134.51 188.96 1134.59 188.24 1134.59 187.52V183.88C1134.59 181.56 1133.63 180.54 1131.27 180.54C1128.61 180.54 1127.39 181.66 1127.61 183.42L1129.19 183.7C1129.09 182.34 1129.91 181.86 1131.15 181.86C1132.57 181.86 1132.99 182.52 1132.99 184.1V184.62C1129.53 184.64 1127.29 185.7 1127.29 187.8C1127.29 189.48 1128.71 190.28 1130.19 190.28C1131.63 190.28 1132.71 189.48 1133.15 188.66C1133.21 189.5 1133.67 190.36 1135.41 190.14ZM1132.99 186.82C1132.91 188 1131.71 188.96 1130.49 188.96C1129.55 188.96 1129.01 188.46 1129.01 187.68C1129.01 186.5 1130.17 185.86 1132.99 185.84V186.82ZM1137.82 184.04C1137.82 185 1138.08 185.78 1138.58 186.34C1137.84 186.86 1137.36 187.46 1137.36 188.38C1137.36 189.48 1138.04 189.9 1138.82 190.18C1138.26 190.56 1137.36 191.3 1137.36 192.46C1137.36 194.44 1139.96 194.84 1141.62 194.84C1144.1 194.84 1146.04 193.94 1146.04 191.76C1146.04 189.46 1143.86 189.2 1141.9 189.08C1140.28 188.98 1138.8 188.96 1138.8 188C1138.8 187.58 1139.06 187.28 1139.46 187C1140 187.26 1140.66 187.4 1141.44 187.4C1143.76 187.4 1145.18 186.18 1145.18 183.96C1145.18 183.32 1145.06 182.76 1144.82 182.28C1145.74 181.84 1146.18 181.12 1146.18 180.22C1146.18 180.02 1146.16 179.8 1146.1 179.56L1144.72 179.36V180.06C1144.72 180.56 1144.58 181.06 1144.2 181.46C1143.56 180.86 1142.66 180.54 1141.52 180.54C1139.1 180.54 1137.82 181.94 1137.82 184.04ZM1141.46 186.18C1140.08 186.18 1139.54 185.38 1139.54 184C1139.54 182.58 1140.12 181.76 1141.5 181.76C1142.86 181.76 1143.46 182.56 1143.46 183.96C1143.46 185.38 1142.86 186.18 1141.46 186.18ZM1141.68 190.58C1143.24 190.68 1144.54 190.9 1144.54 192C1144.54 193.14 1143.2 193.56 1141.6 193.56C1140.4 193.56 1138.8 193.32 1138.8 192.16C1138.8 191.36 1139.52 190.84 1140.16 190.48C1140.74 190.54 1141.02 190.54 1141.68 190.58ZM1155.53 190.14L1155.85 188.74C1154.63 188.96 1154.71 188.24 1154.71 187.52V183.88C1154.71 181.56 1153.75 180.54 1151.39 180.54C1148.73 180.54 1147.51 181.66 1147.73 183.42L1149.31 183.7C1149.21 182.34 1150.03 181.86 1151.27 181.86C1152.69 181.86 1153.11 182.52 1153.11 184.1V184.62C1149.65 184.64 1147.41 185.7 1147.41 187.8C1147.41 189.48 1148.83 190.28 1150.31 190.28C1151.75 190.28 1152.83 189.48 1153.27 188.66C1153.33 189.5 1153.79 190.36 1155.53 190.14ZM1153.11 186.82C1153.03 188 1151.83 188.96 1150.61 188.96C1149.67 188.96 1149.13 188.46 1149.13 187.68C1149.13 186.5 1150.29 185.86 1153.11 185.84V186.82ZM848.54 215H850.14V210.1C850.32 209.28 851.06 206.92 853.12 206.92C854.08 206.92 854.56 207.44 854.56 208.82V215H856.16V210.1C856.34 209.28 857.08 206.92 859.14 206.92C860.1 206.92 860.58 207.44 860.58 208.82V215H862.18V208.36C862.18 206.4 860.96 205.54 859.4 205.54C857.08 205.54 856.24 207.26 856.04 207.76C855.74 206.1 854.7 205.54 853.38 205.54C851.22 205.54 850.36 207.02 850.08 207.64V205.82H848.54V215ZM872.581 210.66V209.66C872.581 206.86 871.281 205.54 868.861 205.54C865.661 205.54 864.621 208 864.621 210.46C864.621 213.76 866.181 215.28 868.901 215.28C870.921 215.28 872.121 214.3 872.581 212.66L871.181 212.38C870.921 213.22 870.141 213.96 868.941 213.96C866.841 213.96 866.361 212.36 866.341 210.66H872.581ZM868.821 206.86C870.261 206.86 870.921 207.8 870.921 209.02V209.38H866.401C866.641 207.64 867.541 206.86 868.821 206.86ZM881.522 215H882.882V200.64H881.282V206.58C880.722 205.96 879.782 205.54 878.582 205.54C875.902 205.54 874.562 207.64 874.562 210.56C874.562 212.78 875.382 215.28 878.242 215.28C879.822 215.28 880.862 214.56 881.402 213.54L881.522 215ZM878.582 213.96C876.562 213.96 876.282 211.9 876.282 210.46C876.282 208.14 877.002 206.86 878.722 206.86C880.942 206.86 881.282 208.9 881.282 210.16C881.282 212.18 880.422 213.96 878.582 213.96ZM898.108 210.66V209.66C898.108 206.86 896.808 205.54 894.388 205.54C891.188 205.54 890.148 208 890.148 210.46C890.148 213.76 891.708 215.28 894.428 215.28C896.448 215.28 897.648 214.3 898.108 212.66L896.708 212.38C896.448 213.22 895.668 213.96 894.468 213.96C892.368 213.96 891.888 212.36 891.868 210.66H898.108ZM894.348 206.86C895.788 206.86 896.448 207.8 896.448 209.02V209.38H891.928C892.168 207.64 893.068 206.86 894.348 206.86ZM900.349 202.64C900.349 203.26 900.809 203.72 901.429 203.72C902.029 203.72 902.509 203.26 902.509 202.64C902.509 202.04 902.029 201.56 901.429 201.56C900.809 201.56 900.349 202.04 900.349 202.64ZM900.649 215H902.249V205.82H900.649V215ZM905.337 215H906.937V210.1C907.117 209.28 907.857 206.92 909.917 206.92C910.877 206.92 911.357 207.44 911.357 208.82V215H912.957V208.36C912.957 206.4 911.737 205.54 910.177 205.54C908.017 205.54 907.157 207.02 906.877 207.64V205.82H905.337V215ZM920.028 212.44C919.828 214.46 921.868 215.28 923.728 215.28C925.828 215.28 927.348 214.24 927.348 212.42C927.348 209.02 921.968 210.3 921.968 208C921.968 207.22 922.648 206.86 923.688 206.86C925.328 206.86 925.568 207.84 925.448 208.48L927.048 208.2C927.368 206.42 925.708 205.54 923.768 205.54C921.448 205.54 920.328 206.74 920.328 208.28C920.328 211.62 925.668 210.48 925.668 212.72C925.668 213.56 924.848 213.96 923.668 213.96C922.128 213.96 921.448 213.18 921.548 212.2L920.028 212.44ZM928.75 207.1H930.31V212.3C930.31 213.76 930.75 215.2 932.57 215.2C933.95 215.2 934.59 214.38 935.01 213.36L933.79 212.82C933.59 213.54 933.27 213.88 932.77 213.88C932.13 213.88 931.91 213.36 931.91 212.22V207.1H934.51V205.82H931.91V203.1H930.45L930.35 205.82H928.75V207.1ZM940.658 215.28C943.638 215.28 944.898 213.1 944.898 210.26C944.898 207.28 943.478 205.54 940.658 205.54C937.738 205.54 936.378 207.56 936.378 210.26C936.378 213.32 937.638 215.28 940.658 215.28ZM940.658 213.96C938.998 213.96 938.098 212.76 938.098 210.46C938.098 208.18 938.998 206.86 940.658 206.86C942.298 206.86 943.178 208.14 943.178 210.46C943.178 212.58 942.298 213.96 940.658 213.96ZM947.427 215H949.027V210.32C949.267 208.94 949.927 207.04 951.287 207.04C951.867 207.04 952.207 207.62 952.207 207.62L953.087 206.36C953.087 206.36 952.627 205.54 951.587 205.54C950.127 205.54 949.287 206.72 948.967 207.6V205.82H947.427V215ZM959.145 219.56H960.745V214.02C961.285 214.78 962.265 215.28 963.425 215.28C966.105 215.28 967.485 212.98 967.485 210.12C967.485 207.82 966.645 205.54 963.785 205.54C962.365 205.54 961.305 206.2 960.685 207.14V205.82H959.145V219.56ZM963.285 213.96C961.345 213.96 960.745 212.06 960.745 210.5C960.745 208.92 961.325 206.86 963.445 206.86C965.265 206.86 965.765 208.2 965.765 210.24C965.765 212.12 965.345 213.96 963.285 213.96ZM973.725 215.28C976.705 215.28 977.965 213.1 977.965 210.26C977.965 207.28 976.545 205.54 973.725 205.54C970.805 205.54 969.445 207.56 969.445 210.26C969.445 213.32 970.705 215.28 973.725 215.28ZM973.725 213.96C972.065 213.96 971.165 212.76 971.165 210.46C971.165 208.18 972.065 206.86 973.725 206.86C975.365 206.86 976.245 208.14 976.245 210.46C976.245 212.58 975.365 213.96 973.725 213.96ZM980.493 215H982.093V210.32C982.333 208.94 982.993 207.04 984.353 207.04C984.933 207.04 985.273 207.62 985.273 207.62L986.153 206.36C986.153 206.36 985.693 205.54 984.653 205.54C983.193 205.54 982.353 206.72 982.033 207.6V205.82H980.493V215ZM987.215 212.44C987.015 214.46 989.055 215.28 990.915 215.28C993.015 215.28 994.535 214.24 994.535 212.42C994.535 209.02 989.155 210.3 989.155 208C989.155 207.22 989.835 206.86 990.875 206.86C992.515 206.86 992.755 207.84 992.635 208.48L994.235 208.2C994.555 206.42 992.895 205.54 990.955 205.54C988.635 205.54 987.515 206.74 987.515 208.28C987.515 211.62 992.855 210.48 992.855 212.72C992.855 213.56 992.035 213.96 990.855 213.96C989.315 213.96 988.635 213.18 988.735 212.2L987.215 212.44ZM996.678 202.64C996.678 203.26 997.138 203.72 997.758 203.72C998.358 203.72 998.838 203.26 998.838 202.64C998.838 202.04 998.358 201.56 997.758 201.56C997.138 201.56 996.678 202.04 996.678 202.64ZM994.297 219.84C998.138 219.94 998.578 216.94 998.578 214.54V205.82H996.978V214C996.978 216.98 996.578 218.48 994.297 218.48V219.84ZM1005.39 215.28C1008.37 215.28 1009.63 213.1 1009.63 210.26C1009.63 207.28 1008.21 205.54 1005.39 205.54C1002.47 205.54 1001.11 207.56 1001.11 210.26C1001.11 213.32 1002.37 215.28 1005.39 215.28ZM1005.39 213.96C1003.73 213.96 1002.83 212.76 1002.83 210.46C1002.83 208.18 1003.73 206.86 1005.39 206.86C1007.03 206.86 1007.91 208.14 1007.91 210.46C1007.91 212.58 1007.03 213.96 1005.39 213.96ZM1012.15 215H1013.75V210.1C1013.93 209.28 1014.67 206.92 1016.73 206.92C1017.69 206.92 1018.17 207.44 1018.17 208.82V215H1019.77V208.36C1019.77 206.4 1018.55 205.54 1016.99 205.54C1014.83 205.54 1013.97 207.02 1013.69 207.64V205.82H1012.15V215ZM1033.04 215H1035.1L1031 209.96L1035.16 205.82H1033.1L1029.52 209.38H1029.12V200.64H1027.52V215H1029.12V210.66H1029.56L1033.04 215ZM1036.74 202.64C1036.74 203.26 1037.2 203.72 1037.82 203.72C1038.42 203.72 1038.9 203.26 1038.9 202.64C1038.9 202.04 1038.42 201.56 1037.82 201.56C1037.2 201.56 1036.74 202.04 1036.74 202.64ZM1034.36 219.84C1038.2 219.94 1038.64 216.94 1038.64 214.54V205.82H1037.04V214C1037.04 216.98 1036.64 218.48 1034.36 218.48V219.84ZM1041.06 212.8C1041.06 214.48 1042.48 215.28 1043.96 215.28C1045.42 215.28 1046.52 214.54 1047.26 213.56C1047.96 214.72 1049.18 215.28 1050.82 215.28C1052.84 215.28 1054.04 214.3 1054.5 212.66L1053.1 212.38C1052.84 213.22 1052.06 213.96 1050.86 213.96C1048.78 213.96 1048.3 212.4 1048.26 210.7H1054.5V209.66C1054.5 206.86 1053.2 205.54 1050.78 205.54C1049.44 205.54 1048.48 205.96 1047.82 206.64C1047.32 205.9 1046.4 205.54 1045.04 205.54C1042.38 205.54 1041.16 206.66 1041.38 208.42L1042.96 208.7C1042.86 207.34 1043.68 206.86 1044.92 206.86C1046.34 206.86 1046.76 207.52 1046.76 209.1V209.52C1043.3 209.54 1041.06 210.64 1041.06 212.8ZM1042.78 212.68C1042.78 211.44 1043.94 210.76 1046.76 210.74V211.76C1046.68 212.94 1045.58 213.96 1044.26 213.96C1043.32 213.96 1042.78 213.46 1042.78 212.68ZM1048.32 209.42C1048.56 207.64 1049.44 206.86 1050.74 206.86C1052.18 206.86 1052.84 207.8 1052.84 209.02V209.42H1048.32ZM1057.04 215H1058.64V210.32C1058.88 208.94 1059.54 207.04 1060.9 207.04C1061.48 207.04 1061.82 207.62 1061.82 207.62L1062.7 206.36C1062.7 206.36 1062.24 205.54 1061.2 205.54C1059.74 205.54 1058.9 206.72 1058.58 207.6V205.82H1057.04V215ZM1064.44 215H1066.04V200.64H1064.44V215ZM1076.53 210.66V209.66C1076.53 206.86 1075.23 205.54 1072.81 205.54C1069.61 205.54 1068.57 208 1068.57 210.46C1068.57 213.76 1070.13 215.28 1072.85 215.28C1074.87 215.28 1076.07 214.3 1076.53 212.66L1075.13 212.38C1074.87 213.22 1074.09 213.96 1072.89 213.96C1070.79 213.96 1070.31 212.36 1070.29 210.66H1076.53ZM1072.77 206.86C1074.21 206.86 1074.87 207.8 1074.87 209.02V209.38H1070.35C1070.59 207.64 1071.49 206.86 1072.77 206.86ZM1078.77 202.64C1078.77 203.26 1079.23 203.72 1079.85 203.72C1080.45 203.72 1080.93 203.26 1080.93 202.64C1080.93 202.04 1080.45 201.56 1079.85 201.56C1079.23 201.56 1078.77 202.04 1078.77 202.64ZM1079.07 215H1080.67V205.82H1079.07V215ZM1089.27 215H1091.33L1087.23 209.96L1091.39 205.82H1089.33L1085.75 209.38H1085.35V200.64H1083.75V215H1085.35V210.66H1085.79L1089.27 215ZM1092.95 213.9C1092.95 214.62 1093.53 215.2 1094.25 215.2C1094.97 215.2 1095.55 214.62 1095.55 213.9C1095.55 213.18 1094.97 212.6 1094.25 212.6C1093.53 212.6 1092.95 213.18 1092.95 213.9ZM848.96 240H853.22C857.6 240 859.48 236.7 859.48 233.16C859.48 229.44 857.44 226.78 853.2 226.78H848.96V240ZM850.7 238.52V228.26H853.02C855.74 228.26 857.56 229.56 857.56 233.24C857.56 237.08 855.74 238.52 853.14 238.52H850.7ZM869.495 235.66V234.66C869.495 231.86 868.195 230.54 865.775 230.54C862.575 230.54 861.535 233 861.535 235.46C861.535 238.76 863.095 240.28 865.815 240.28C867.835 240.28 869.035 239.3 869.495 237.66L868.095 237.38C867.835 238.22 867.055 238.96 865.855 238.96C863.755 238.96 863.275 237.36 863.255 235.66H869.495ZM865.735 231.86C867.175 231.86 867.835 232.8 867.835 234.02V234.38H863.315C863.555 232.64 864.455 231.86 865.735 231.86ZM870.996 232.1H872.556V237.3C872.556 238.76 872.996 240.2 874.816 240.2C876.196 240.2 876.836 239.38 877.256 238.36L876.036 237.82C875.836 238.54 875.516 238.88 875.016 238.88C874.376 238.88 874.156 238.36 874.156 237.22V232.1H876.756V230.82H874.156V228.1H872.696L872.596 230.82H870.996V232.1ZM883.931 240H885.531V235.1C885.711 234.28 886.451 231.92 888.511 231.92C889.471 231.92 889.951 232.44 889.951 233.82V240H891.551V235.1C891.731 234.28 892.471 231.92 894.531 231.92C895.491 231.92 895.971 232.44 895.971 233.82V240H897.571V233.36C897.571 231.4 896.351 230.54 894.791 230.54C892.471 230.54 891.631 232.26 891.431 232.76C891.131 231.1 890.091 230.54 888.771 230.54C886.611 230.54 885.751 232.02 885.471 232.64V230.82H883.931V240ZM907.971 235.66V234.66C907.971 231.86 906.671 230.54 904.251 230.54C901.051 230.54 900.011 233 900.011 235.46C900.011 238.76 901.571 240.28 904.291 240.28C906.311 240.28 907.511 239.3 907.971 237.66L906.571 237.38C906.311 238.22 905.531 238.96 904.331 238.96C902.231 238.96 901.751 237.36 901.731 235.66H907.971ZM904.211 231.86C905.651 231.86 906.311 232.8 906.311 234.02V234.38H901.791C902.031 232.64 902.931 231.86 904.211 231.86ZM909.833 237.44C909.633 239.46 911.673 240.28 913.533 240.28C915.633 240.28 917.153 239.24 917.153 237.42C917.153 234.02 911.773 235.3 911.773 233C911.773 232.22 912.453 231.86 913.493 231.86C915.133 231.86 915.373 232.84 915.253 233.48L916.853 233.2C917.173 231.42 915.513 230.54 913.573 230.54C911.253 230.54 910.133 231.74 910.133 233.28C910.133 236.62 915.473 235.48 915.473 237.72C915.473 238.56 914.653 238.96 913.473 238.96C911.933 238.96 911.253 238.18 911.353 237.2L909.833 237.44ZM918.555 232.1H920.115V237.3C920.115 238.76 920.555 240.2 922.375 240.2C923.755 240.2 924.395 239.38 924.815 238.36L923.595 237.82C923.395 238.54 923.075 238.88 922.575 238.88C921.935 238.88 921.715 238.36 921.715 237.22V232.1H924.315V230.82H921.715V228.1H920.255L920.155 230.82H918.555V232.1ZM934.143 235.66V234.66C934.143 231.86 932.843 230.54 930.423 230.54C927.223 230.54 926.183 233 926.183 235.46C926.183 238.76 927.743 240.28 930.463 240.28C932.483 240.28 933.683 239.3 934.143 237.66L932.743 237.38C932.483 238.22 931.703 238.96 930.503 238.96C928.403 238.96 927.923 237.36 927.903 235.66H934.143ZM930.383 231.86C931.823 231.86 932.483 232.8 932.483 234.02V234.38H927.963C928.203 232.64 929.103 231.86 930.383 231.86ZM941.431 244.56H943.031V239.02C943.571 239.78 944.551 240.28 945.711 240.28C948.391 240.28 949.771 237.98 949.771 235.12C949.771 232.82 948.931 230.54 946.071 230.54C944.651 230.54 943.591 231.2 942.971 232.14V230.82H941.431V244.56ZM945.571 238.96C943.631 238.96 943.031 237.06 943.031 235.5C943.031 233.92 943.611 231.86 945.731 231.86C947.551 231.86 948.051 233.2 948.051 235.24C948.051 237.12 947.631 238.96 945.571 238.96ZM959.75 240.14L960.07 238.74C958.85 238.96 958.93 238.24 958.93 237.52V233.88C958.93 231.56 957.97 230.54 955.61 230.54C952.95 230.54 951.73 231.66 951.95 233.42L953.53 233.7C953.43 232.34 954.25 231.86 955.49 231.86C956.91 231.86 957.33 232.52 957.33 234.1V234.62C953.87 234.64 951.63 235.7 951.63 237.8C951.63 239.48 953.05 240.28 954.53 240.28C955.97 240.28 957.05 239.48 957.49 238.66C957.55 239.5 958.01 240.36 959.75 240.14ZM957.33 236.82C957.25 238 956.05 238.96 954.83 238.96C953.89 238.96 953.35 238.46 953.35 237.68C953.35 236.5 954.51 235.86 957.33 235.84V236.82ZM953.41 227.54C953.41 228.44 953.99 229.48 955.43 229.48C956.87 229.48 957.45 228.44 957.45 227.54C957.45 226.62 956.87 225.66 955.43 225.66C953.99 225.66 953.41 226.62 953.41 227.54ZM955.43 228.54C954.79 228.54 954.49 228.02 954.49 227.56C954.49 227.12 954.75 226.6 955.43 226.6C956.09 226.6 956.39 227.12 956.39 227.56C956.39 228.02 956.05 228.54 955.43 228.54ZM966.88 240H968.48V235.1C968.66 234.28 969.4 231.92 971.46 231.92C972.42 231.92 972.9 232.44 972.9 233.82V240H974.5V235.1C974.68 234.28 975.42 231.92 977.48 231.92C978.44 231.92 978.92 232.44 978.92 233.82V240H980.52V233.36C980.52 231.4 979.3 230.54 977.74 230.54C975.42 230.54 974.58 232.26 974.38 232.76C974.08 231.1 973.04 230.54 971.72 230.54C969.56 230.54 968.7 232.02 968.42 232.64V230.82H966.88V240ZM990.92 235.66V234.66C990.92 231.86 989.62 230.54 987.2 230.54C984 230.54 982.96 233 982.96 235.46C982.96 238.76 984.52 240.28 987.24 240.28C989.26 240.28 990.46 239.3 990.92 237.66L989.52 237.38C989.26 238.22 988.48 238.96 987.28 238.96C985.18 238.96 984.7 237.36 984.68 235.66H990.92ZM987.16 231.86C988.6 231.86 989.26 232.8 989.26 234.02V234.38H984.74C984.98 232.64 985.88 231.86 987.16 231.86ZM993.462 240H995.062V235.1C995.242 234.28 995.982 231.92 998.042 231.92C999.002 231.92 999.482 232.44 999.482 233.82V240H1001.08V233.36C1001.08 231.4 999.862 230.54 998.302 230.54C996.142 230.54 995.282 232.02 995.002 232.64V230.82H993.462V240ZM1002.83 244.18C1003.21 244.48 1003.83 244.84 1004.77 244.84C1007.11 244.84 1007.71 242.74 1007.89 241.54L1008.13 239.82L1011.71 230.82H1010.13L1007.95 236.48C1007.77 236.92 1007.59 237.48 1007.45 237.9C1007.31 237.48 1007.09 236.88 1006.93 236.48L1004.59 230.82H1002.85L1006.69 239.82L1006.51 241.22C1006.33 242.74 1005.57 243.52 1004.81 243.52C1004.35 243.52 1003.91 243.3 1003.59 243L1002.83 244.18ZM1020.9 235.66V234.66C1020.9 231.86 1019.6 230.54 1017.18 230.54C1013.98 230.54 1012.94 233 1012.94 235.46C1012.94 238.76 1014.5 240.28 1017.22 240.28C1019.24 240.28 1020.44 239.3 1020.9 237.66L1019.5 237.38C1019.24 238.22 1018.46 238.96 1017.26 238.96C1015.16 238.96 1014.68 237.36 1014.66 235.66H1020.9ZM1017.14 231.86C1018.58 231.86 1019.24 232.8 1019.24 234.02V234.38H1014.72C1014.96 232.64 1015.86 231.86 1017.14 231.86ZM1023.44 240H1025.04V235.1C1025.22 234.28 1025.96 231.92 1028.02 231.92C1028.98 231.92 1029.46 232.44 1029.46 233.82V240H1031.06V233.36C1031.06 231.4 1029.84 230.54 1028.28 230.54C1026.12 230.54 1025.26 232.02 1024.98 232.64V230.82H1023.44V240ZM1044.33 240H1046.39L1042.29 234.96L1046.45 230.82H1044.39L1040.81 234.38H1040.41V225.64H1038.81V240H1040.41V235.66H1040.85L1044.33 240ZM1055.79 240.14L1056.11 238.74C1054.89 238.96 1054.97 238.24 1054.97 237.52V233.88C1054.97 231.56 1054.01 230.54 1051.65 230.54C1048.99 230.54 1047.77 231.66 1047.99 233.42L1049.57 233.7C1049.47 232.34 1050.29 231.86 1051.53 231.86C1052.95 231.86 1053.37 232.52 1053.37 234.1V234.62C1049.91 234.64 1047.67 235.7 1047.67 237.8C1047.67 239.48 1049.09 240.28 1050.57 240.28C1052.01 240.28 1053.09 239.48 1053.53 238.66C1053.59 239.5 1054.05 240.36 1055.79 240.14ZM1053.37 236.82C1053.29 238 1052.09 238.96 1050.87 238.96C1049.93 238.96 1049.39 238.46 1049.39 237.68C1049.39 236.5 1050.55 235.86 1053.37 235.84V236.82ZM1058.17 240H1059.77V235.1C1059.95 234.28 1060.69 231.92 1062.75 231.92C1063.71 231.92 1064.19 232.44 1064.19 233.82V240H1065.79V233.36C1065.79 231.4 1064.57 230.54 1063.01 230.54C1060.85 230.54 1059.99 232.02 1059.71 232.64V230.82H1058.17V240ZM1079.94 240H1081.3V225.64H1079.7V231.58C1079.14 230.96 1078.2 230.54 1077 230.54C1074.32 230.54 1072.98 232.64 1072.98 235.56C1072.98 237.78 1073.8 240.28 1076.66 240.28C1078.24 240.28 1079.28 239.56 1079.82 238.54L1079.94 240ZM1077 238.96C1074.98 238.96 1074.7 236.9 1074.7 235.46C1074.7 233.14 1075.42 231.86 1077.14 231.86C1079.36 231.86 1079.7 233.9 1079.7 235.16C1079.7 237.18 1078.84 238.96 1077 238.96ZM1084.28 237.48C1084.28 239.44 1085.42 240.28 1087.02 240.28C1089.12 240.28 1090.02 239 1090.36 238.32L1090.44 240H1091.9V230.82H1090.3V236C1090.02 236.98 1089.22 238.9 1087.28 238.9C1086.32 238.9 1085.88 238.38 1085.88 237.02V230.82H1084.28V237.48ZM1098.42 232.1H1100.06V240H1101.66V232.1H1104.24V230.82H1101.66V229.6C1101.66 227.8 1102.2 226.74 1103.66 226.74C1104.48 226.74 1104.84 227.12 1105.14 227.6L1106.2 226.44C1106.2 226.44 1105.66 225.38 1103.66 225.38C1101.34 225.38 1100.06 226.92 1100.06 229.4V230.82H1098.42V232.1ZM1113.66 240.14L1113.98 238.74C1112.76 238.96 1112.84 238.24 1112.84 237.52V233.88C1112.84 231.56 1111.88 230.54 1109.52 230.54C1106.86 230.54 1105.64 231.66 1105.86 233.42L1107.44 233.7C1107.34 232.34 1108.16 231.86 1109.4 231.86C1110.82 231.86 1111.24 232.52 1111.24 234.1V234.62C1107.78 234.64 1105.54 235.7 1105.54 237.8C1105.54 239.48 1106.96 240.28 1108.44 240.28C1109.88 240.28 1110.96 239.48 1111.4 238.66C1111.46 239.5 1111.92 240.36 1113.66 240.14ZM1111.24 236.82C1111.16 238 1109.96 238.96 1108.74 238.96C1107.8 238.96 1107.26 238.46 1107.26 237.68C1107.26 236.5 1108.42 235.86 1111.24 235.84V236.82ZM1107.32 227.54C1107.32 228.44 1107.9 229.48 1109.34 229.48C1110.78 229.48 1111.36 228.44 1111.36 227.54C1111.36 226.62 1110.78 225.66 1109.34 225.66C1107.9 225.66 1107.32 226.62 1107.32 227.54ZM1109.34 228.54C1108.7 228.54 1108.4 228.02 1108.4 227.56C1108.4 227.12 1108.66 226.6 1109.34 226.6C1110 226.6 1110.3 227.12 1110.3 227.56C1110.3 228.02 1109.96 228.54 1109.34 228.54ZM848.56 259.04C848.56 260 848.82 260.78 849.32 261.34C848.58 261.86 848.1 262.46 848.1 263.38C848.1 264.48 848.78 264.9 849.56 265.18C849 265.56 848.1 266.3 848.1 267.46C848.1 269.44 850.7 269.84 852.36 269.84C854.84 269.84 856.78 268.94 856.78 266.76C856.78 264.46 854.6 264.2 852.64 264.08C851.02 263.98 849.54 263.96 849.54 263C849.54 262.58 849.8 262.28 850.2 262C850.74 262.26 851.4 262.4 852.18 262.4C854.5 262.4 855.92 261.18 855.92 258.96C855.92 258.32 855.8 257.76 855.56 257.28C856.48 256.84 856.92 256.12 856.92 255.22C856.92 255.02 856.9 254.8 856.84 254.56L855.46 254.36V255.06C855.46 255.56 855.32 256.06 854.94 256.46C854.3 255.86 853.4 255.54 852.26 255.54C849.84 255.54 848.56 256.94 848.56 259.04ZM852.2 261.18C850.82 261.18 850.28 260.38 850.28 259C850.28 257.58 850.86 256.76 852.24 256.76C853.6 256.76 854.2 257.56 854.2 258.96C854.2 260.38 853.6 261.18 852.2 261.18ZM852.42 265.58C853.98 265.68 855.28 265.9 855.28 267C855.28 268.14 853.94 268.56 852.34 268.56C851.14 268.56 849.54 268.32 849.54 267.16C849.54 266.36 850.26 265.84 850.9 265.48C851.48 265.54 851.76 265.54 852.42 265.58ZM858.813 265H860.413V250.64H858.813V265ZM863.401 262.48C863.401 264.44 864.541 265.28 866.141 265.28C868.241 265.28 869.141 264 869.481 263.32L869.561 265H871.021V255.82H869.421V261C869.141 261.98 868.341 263.9 866.401 263.9C865.441 263.9 865.001 263.38 865.001 262.02V255.82H863.401V262.48ZM873.066 257.1H874.626V262.3C874.626 263.76 875.066 265.2 876.886 265.2C878.266 265.2 878.906 264.38 879.326 263.36L878.106 262.82C877.906 263.54 877.586 263.88 877.086 263.88C876.446 263.88 876.226 263.36 876.226 262.22V257.1H878.826V255.82H876.226V253.1H874.766L874.666 255.82H873.066V257.1ZM888.655 260.66V259.66C888.655 256.86 887.355 255.54 884.935 255.54C881.735 255.54 880.695 258 880.695 260.46C880.695 263.76 882.255 265.28 884.975 265.28C886.995 265.28 888.195 264.3 888.655 262.66L887.255 262.38C886.995 263.22 886.215 263.96 885.015 263.96C882.915 263.96 882.435 262.36 882.415 260.66H888.655ZM884.895 256.86C886.335 256.86 886.995 257.8 886.995 259.02V259.38H882.475C882.715 257.64 883.615 256.86 884.895 256.86ZM891.196 265H892.796V260.1C892.976 259.28 893.716 256.92 895.776 256.92C896.736 256.92 897.216 257.44 897.216 258.82V265H898.816V258.36C898.816 256.4 897.596 255.54 896.036 255.54C893.876 255.54 893.016 257.02 892.736 257.64V255.82H891.196V265ZM900.801 257.1H902.441V265H904.041V257.1H906.621V255.82H904.041V254.6C904.041 252.8 904.581 251.74 906.041 251.74C906.861 251.74 907.221 252.12 907.521 252.6L908.581 251.44C908.581 251.44 908.041 250.38 906.041 250.38C903.721 250.38 902.441 251.92 902.441 254.4V255.82H900.801V257.1ZM908.579 265H910.179V260.32C910.419 258.94 911.079 257.04 912.439 257.04C913.019 257.04 913.359 257.62 913.359 257.62L914.239 256.36C914.239 256.36 913.779 255.54 912.739 255.54C911.279 255.54 910.439 256.72 910.119 257.6V255.82H908.579V265ZM915.681 252.64C915.681 253.26 916.141 253.72 916.761 253.72C917.361 253.72 917.841 253.26 917.841 252.64C917.841 252.04 917.361 251.56 916.761 251.56C916.141 251.56 915.681 252.04 915.681 252.64ZM915.981 265H917.581V255.82H915.981V265ZM919.629 257.1H921.189V262.3C921.189 263.76 921.629 265.2 923.449 265.2C924.829 265.2 925.469 264.38 925.889 263.36L924.669 262.82C924.469 263.54 924.149 263.88 923.649 263.88C923.009 263.88 922.789 263.36 922.789 262.22V257.1H925.389V255.82H922.789V253.1H921.329L921.229 255.82H919.629V257.1ZM926.777 257.1H928.337V262.3C928.337 263.76 928.777 265.2 930.597 265.2C931.977 265.2 932.617 264.38 933.037 263.36L931.817 262.82C931.617 263.54 931.297 263.88 930.797 263.88C930.157 263.88 929.937 263.36 929.937 262.22V257.1H932.537V255.82H929.937V253.1H928.477L928.377 255.82H926.777V257.1ZM934.646 263.9C934.646 264.62 935.226 265.2 935.946 265.2C936.666 265.2 937.246 264.62 937.246 263.9C937.246 263.18 936.666 262.6 935.946 262.6C935.226 262.6 934.646 263.18 934.646 263.9ZM945.171 265H946.811V256.16C946.811 255.42 946.771 254.4 946.731 253.78C946.951 254.54 947.231 255.46 947.451 256L951.051 265H952.511L955.971 256.1L956.871 253.66C956.831 254.28 956.791 255.42 956.791 256.22V265H958.431V251.78H956.011L952.311 261.28C952.091 261.8 951.911 262.3 951.771 262.7C951.651 262.3 951.471 261.78 951.271 261.28L947.451 251.78H945.171V265ZM969.124 260.66V259.66C969.124 256.86 967.824 255.54 965.404 255.54C962.204 255.54 961.164 258 961.164 260.46C961.164 263.76 962.724 265.28 965.444 265.28C967.464 265.28 968.664 264.3 969.124 262.66L967.724 262.38C967.464 263.22 966.684 263.96 965.484 263.96C963.384 263.96 962.904 262.36 962.884 260.66H969.124ZM965.364 256.86C966.804 256.86 967.464 257.8 967.464 259.02V259.38H962.944C963.184 257.64 964.084 256.86 965.364 256.86ZM971.665 265H973.265V260.1C973.445 259.28 974.185 256.92 976.245 256.92C977.205 256.92 977.685 257.44 977.685 258.82V265H979.285V258.36C979.285 256.4 978.065 255.54 976.505 255.54C974.345 255.54 973.485 257.02 973.205 257.64V255.82H971.665V265ZM981.033 269.18C981.413 269.48 982.033 269.84 982.973 269.84C985.313 269.84 985.913 267.74 986.093 266.54L986.333 264.82L989.913 255.82H988.333L986.153 261.48C985.973 261.92 985.793 262.48 985.653 262.9C985.513 262.48 985.293 261.88 985.133 261.48L982.793 255.82H981.053L984.893 264.82L984.713 266.22C984.533 267.74 983.773 268.52 983.013 268.52C982.553 268.52 982.113 268.3 981.793 268L981.033 269.18ZM999.104 260.66V259.66C999.104 256.86 997.804 255.54 995.384 255.54C992.184 255.54 991.144 258 991.144 260.46C991.144 263.76 992.704 265.28 995.424 265.28C997.444 265.28 998.644 264.3 999.104 262.66L997.704 262.38C997.444 263.22 996.664 263.96 995.464 263.96C993.364 263.96 992.884 262.36 992.864 260.66H999.104ZM995.344 256.86C996.784 256.86 997.444 257.8 997.444 259.02V259.38H992.924C993.164 257.64 994.064 256.86 995.344 256.86ZM1001.65 265H1003.25V260.1C1003.43 259.28 1004.17 256.92 1006.23 256.92C1007.19 256.92 1007.67 257.44 1007.67 258.82V265H1009.27V258.36C1009.27 256.4 1008.05 255.54 1006.49 255.54C1004.33 255.54 1003.47 257.02 1003.19 257.64V255.82H1001.65V265ZM1016.72 252.64C1016.72 253.26 1017.18 253.72 1017.8 253.72C1018.4 253.72 1018.88 253.26 1018.88 252.64C1018.88 252.04 1018.4 251.56 1017.8 251.56C1017.18 251.56 1016.72 252.04 1016.72 252.64ZM1017.02 265H1018.62V255.82H1017.02V265ZM1021.7 265H1023.3V260.1C1023.48 259.28 1024.22 256.92 1026.28 256.92C1027.24 256.92 1027.72 257.44 1027.72 258.82V265H1029.32V258.36C1029.32 256.4 1028.1 255.54 1026.54 255.54C1024.38 255.54 1023.52 257.02 1023.24 257.64V255.82H1021.7V265ZM1032.33 265H1033.93V260.1C1034.11 259.28 1034.85 256.92 1036.91 256.92C1037.87 256.92 1038.35 257.44 1038.35 258.82V265H1039.95V258.36C1039.95 256.4 1038.73 255.54 1037.17 255.54C1035.01 255.54 1034.15 257.02 1033.87 257.64V255.82H1032.33V265ZM1050.35 260.66V259.66C1050.35 256.86 1049.05 255.54 1046.63 255.54C1043.43 255.54 1042.39 258 1042.39 260.46C1042.39 263.76 1043.95 265.28 1046.67 265.28C1048.69 265.28 1049.89 264.3 1050.35 262.66L1048.95 262.38C1048.69 263.22 1047.91 263.96 1046.71 263.96C1044.61 263.96 1044.13 262.36 1044.11 260.66H1050.35ZM1046.59 256.86C1048.03 256.86 1048.69 257.8 1048.69 259.02V259.38H1044.17C1044.41 257.64 1045.31 256.86 1046.59 256.86ZM1058.92 265H1060.52V258.36C1060.52 256.4 1059.3 255.54 1057.74 255.54C1055.72 255.54 1054.82 256.82 1054.5 257.5V250.64H1052.9V265H1054.5V260.1C1054.68 259.28 1055.42 256.92 1057.48 256.92C1058.44 256.92 1058.92 257.44 1058.92 258.82V265ZM1070.92 260.66V259.66C1070.92 256.86 1069.62 255.54 1067.2 255.54C1064 255.54 1062.96 258 1062.96 260.46C1062.96 263.76 1064.52 265.28 1067.24 265.28C1069.26 265.28 1070.46 264.3 1070.92 262.66L1069.52 262.38C1069.26 263.22 1068.48 263.96 1067.28 263.96C1065.18 263.96 1064.7 262.36 1064.68 260.66H1070.92ZM1067.16 256.86C1068.6 256.86 1069.26 257.8 1069.26 259.02V259.38H1064.74C1064.98 257.64 1065.88 256.86 1067.16 256.86ZM1073.46 265H1075.06V250.64H1073.46V265ZM1084.55 265H1085.91V250.64H1084.31V256.58C1083.75 255.96 1082.81 255.54 1081.61 255.54C1078.93 255.54 1077.59 257.64 1077.59 260.56C1077.59 262.78 1078.41 265.28 1081.27 265.28C1082.85 265.28 1083.89 264.56 1084.43 263.54L1084.55 265ZM1081.61 263.96C1079.59 263.96 1079.31 261.9 1079.31 260.46C1079.31 258.14 1080.03 256.86 1081.75 256.86C1083.97 256.86 1084.31 258.9 1084.31 260.16C1084.31 262.18 1083.45 263.96 1081.61 263.96ZM1097.46 265.28C1100.44 265.28 1101.7 263.1 1101.7 260.26C1101.7 257.28 1100.28 255.54 1097.46 255.54C1094.54 255.54 1093.18 257.56 1093.18 260.26C1093.18 263.32 1094.44 265.28 1097.46 265.28ZM1097.46 263.96C1095.8 263.96 1094.9 262.76 1094.9 260.46C1094.9 258.18 1095.8 256.86 1097.46 256.86C1099.1 256.86 1099.98 258.14 1099.98 260.46C1099.98 262.58 1099.1 263.96 1097.46 263.96ZM1104.24 259.04C1104.24 260 1104.5 260.78 1105 261.34C1104.26 261.86 1103.78 262.46 1103.78 263.38C1103.78 264.48 1104.46 264.9 1105.24 265.18C1104.68 265.56 1103.78 266.3 1103.78 267.46C1103.78 269.44 1106.38 269.84 1108.04 269.84C1110.52 269.84 1112.46 268.94 1112.46 266.76C1112.46 264.46 1110.28 264.2 1108.32 264.08C1106.7 263.98 1105.22 263.96 1105.22 263C1105.22 262.58 1105.48 262.28 1105.88 262C1106.42 262.26 1107.08 262.4 1107.86 262.4C1110.18 262.4 1111.6 261.18 1111.6 258.96C1111.6 258.32 1111.48 257.76 1111.24 257.28C1112.16 256.84 1112.6 256.12 1112.6 255.22C1112.6 255.02 1112.58 254.8 1112.52 254.56L1111.14 254.36V255.06C1111.14 255.56 1111 256.06 1110.62 256.46C1109.98 255.86 1109.08 255.54 1107.94 255.54C1105.52 255.54 1104.24 256.94 1104.24 259.04ZM1107.88 261.18C1106.5 261.18 1105.96 260.38 1105.96 259C1105.96 257.58 1106.54 256.76 1107.92 256.76C1109.28 256.76 1109.88 257.56 1109.88 258.96C1109.88 260.38 1109.28 261.18 1107.88 261.18ZM1108.1 265.58C1109.66 265.68 1110.96 265.9 1110.96 267C1110.96 268.14 1109.62 268.56 1108.02 268.56C1106.82 268.56 1105.22 268.32 1105.22 267.16C1105.22 266.36 1105.94 265.84 1106.58 265.48C1107.16 265.54 1107.44 265.54 1108.1 265.58ZM1113.82 262.44C1113.62 264.46 1115.66 265.28 1117.52 265.28C1119.62 265.28 1121.14 264.24 1121.14 262.42C1121.14 259.02 1115.76 260.3 1115.76 258C1115.76 257.22 1116.44 256.86 1117.48 256.86C1119.12 256.86 1119.36 257.84 1119.24 258.48L1120.84 258.2C1121.16 256.42 1119.5 255.54 1117.56 255.54C1115.24 255.54 1114.12 256.74 1114.12 258.28C1114.12 261.62 1119.46 260.48 1119.46 262.72C1119.46 263.56 1118.64 263.96 1117.46 263.96C1115.92 263.96 1115.24 263.18 1115.34 262.2L1113.82 262.44ZM1131.04 265.14L1131.36 263.74C1130.14 263.96 1130.22 263.24 1130.22 262.52V258.88C1130.22 256.56 1129.26 255.54 1126.9 255.54C1124.24 255.54 1123.02 256.66 1123.24 258.42L1124.82 258.7C1124.72 257.34 1125.54 256.86 1126.78 256.86C1128.2 256.86 1128.62 257.52 1128.62 259.1V259.62C1125.16 259.64 1122.92 260.7 1122.92 262.8C1122.92 264.48 1124.34 265.28 1125.82 265.28C1127.26 265.28 1128.34 264.48 1128.78 263.66C1128.84 264.5 1129.3 265.36 1131.04 265.14ZM1128.62 261.82C1128.54 263 1127.34 263.96 1126.12 263.96C1125.18 263.96 1124.64 263.46 1124.64 262.68C1124.64 261.5 1125.8 260.86 1128.62 260.84V261.82ZM1124.7 252.54C1124.7 253.44 1125.28 254.48 1126.72 254.48C1128.16 254.48 1128.74 253.44 1128.74 252.54C1128.74 251.62 1128.16 250.66 1126.72 250.66C1125.28 250.66 1124.7 251.62 1124.7 252.54ZM1126.72 253.54C1126.08 253.54 1125.78 253.02 1125.78 252.56C1125.78 252.12 1126.04 251.6 1126.72 251.6C1127.38 251.6 1127.68 252.12 1127.68 252.56C1127.68 253.02 1127.34 253.54 1126.72 253.54ZM851.1 290H852.38L855.98 280.82H854.42L852.28 286.48C852.1 286.92 851.92 287.46 851.8 287.88L851.34 286.48L849.16 280.82H847.42L851.1 290ZM865.178 285.66V284.66C865.178 281.86 863.878 280.54 861.458 280.54C858.258 280.54 857.218 283 857.218 285.46C857.218 288.76 858.778 290.28 861.498 290.28C863.518 290.28 864.718 289.3 865.178 287.66L863.778 287.38C863.518 288.22 862.738 288.96 861.538 288.96C859.438 288.96 858.958 287.36 858.938 285.66H865.178ZM861.418 281.86C862.858 281.86 863.518 282.8 863.518 284.02V284.38H858.998C859.238 282.64 860.138 281.86 861.418 281.86ZM867.74 284.04C867.74 285 868 285.78 868.5 286.34C867.76 286.86 867.28 287.46 867.28 288.38C867.28 289.48 867.96 289.9 868.74 290.18C868.18 290.56 867.28 291.3 867.28 292.46C867.28 294.44 869.88 294.84 871.54 294.84C874.02 294.84 875.96 293.94 875.96 291.76C875.96 289.46 873.78 289.2 871.82 289.08C870.2 288.98 868.72 288.96 868.72 288C868.72 287.58 868.98 287.28 869.38 287C869.92 287.26 870.58 287.4 871.36 287.4C873.68 287.4 875.1 286.18 875.1 283.96C875.1 283.32 874.98 282.76 874.74 282.28C875.66 281.84 876.1 281.12 876.1 280.22C876.1 280.02 876.08 279.8 876.02 279.56L874.64 279.36V280.06C874.64 280.56 874.5 281.06 874.12 281.46C873.48 280.86 872.58 280.54 871.44 280.54C869.02 280.54 867.74 281.94 867.74 284.04ZM871.38 286.18C870 286.18 869.46 285.38 869.46 284C869.46 282.58 870.04 281.76 871.42 281.76C872.78 281.76 873.38 282.56 873.38 283.96C873.38 285.38 872.78 286.18 871.38 286.18ZM871.6 290.58C873.16 290.68 874.46 290.9 874.46 292C874.46 293.14 873.12 293.56 871.52 293.56C870.32 293.56 868.72 293.32 868.72 292.16C868.72 291.36 869.44 290.84 870.08 290.48C870.66 290.54 870.94 290.54 871.6 290.58ZM885.393 285.66V284.66C885.393 281.86 884.093 280.54 881.673 280.54C878.473 280.54 877.433 283 877.433 285.46C877.433 288.76 878.993 290.28 881.713 290.28C883.733 290.28 884.933 289.3 885.393 287.66L883.993 287.38C883.733 288.22 882.953 288.96 881.753 288.96C879.653 288.96 879.173 287.36 879.153 285.66H885.393ZM881.633 281.86C883.073 281.86 883.733 282.8 883.733 284.02V284.38H879.213C879.453 282.64 880.353 281.86 881.633 281.86ZM886.895 282.1H888.455V287.3C888.455 288.76 888.895 290.2 890.715 290.2C892.095 290.2 892.735 289.38 893.155 288.36L891.935 287.82C891.735 288.54 891.415 288.88 890.915 288.88C890.275 288.88 890.055 288.36 890.055 287.22V282.1H892.655V280.82H890.055V278.1H888.595L888.495 280.82H886.895V282.1ZM902.543 290.14L902.863 288.74C901.643 288.96 901.723 288.24 901.723 287.52V283.88C901.723 281.56 900.763 280.54 898.403 280.54C895.743 280.54 894.523 281.66 894.743 283.42L896.323 283.7C896.223 282.34 897.043 281.86 898.283 281.86C899.703 281.86 900.123 282.52 900.123 284.1V284.62C896.663 284.64 894.423 285.7 894.423 287.8C894.423 289.48 895.843 290.28 897.323 290.28C898.763 290.28 899.843 289.48 900.283 288.66C900.343 289.5 900.803 290.36 902.543 290.14ZM900.123 286.82C900.043 288 898.843 288.96 897.623 288.96C896.683 288.96 896.143 288.46 896.143 287.68C896.143 286.5 897.303 285.86 900.123 285.84V286.82ZM904.927 290H906.527V285.32C906.767 283.94 907.427 282.04 908.787 282.04C909.367 282.04 909.707 282.62 909.707 282.62L910.587 281.36C910.587 281.36 910.127 280.54 909.087 280.54C907.627 280.54 906.787 281.72 906.467 282.6V280.82H904.927V290ZM912.329 290H913.929V285.32C914.169 283.94 914.829 282.04 916.189 282.04C916.769 282.04 917.109 282.62 917.109 282.62L917.989 281.36C917.989 281.36 917.529 280.54 916.489 280.54C915.029 280.54 914.189 281.72 913.869 282.6V280.82H912.329V290ZM926.897 285.66V284.66C926.897 281.86 925.597 280.54 923.177 280.54C919.977 280.54 918.937 283 918.937 285.46C918.937 288.76 920.497 290.28 923.217 290.28C925.237 290.28 926.437 289.3 926.897 287.66L925.497 287.38C925.237 288.22 924.457 288.96 923.257 288.96C921.157 288.96 920.677 287.36 920.657 285.66H926.897ZM923.137 281.86C924.577 281.86 925.237 282.8 925.237 284.02V284.38H920.717C920.957 282.64 921.857 281.86 923.137 281.86ZM928.398 282.1H929.958V287.3C929.958 288.76 930.398 290.2 932.218 290.2C933.598 290.2 934.238 289.38 934.658 288.36L933.438 287.82C933.238 288.54 932.918 288.88 932.418 288.88C931.778 288.88 931.558 288.36 931.558 287.22V282.1H934.158V280.82H931.558V278.1H930.098L929.998 280.82H928.398V282.1ZM935.547 282.1H937.107V287.3C937.107 288.76 937.547 290.2 939.367 290.2C940.747 290.2 941.387 289.38 941.807 288.36L940.587 287.82C940.387 288.54 940.067 288.88 939.567 288.88C938.927 288.88 938.707 288.36 938.707 287.22V282.1H941.307V280.82H938.707V278.1H937.247L937.147 280.82H935.547V282.1ZM951.195 290.14L951.515 288.74C950.295 288.96 950.375 288.24 950.375 287.52V283.88C950.375 281.56 949.415 280.54 947.055 280.54C944.395 280.54 943.175 281.66 943.395 283.42L944.975 283.7C944.875 282.34 945.695 281.86 946.935 281.86C948.355 281.86 948.775 282.52 948.775 284.1V284.62C945.315 284.64 943.075 285.7 943.075 287.8C943.075 289.48 944.495 290.28 945.975 290.28C947.415 290.28 948.495 289.48 948.935 288.66C948.995 289.5 949.455 290.36 951.195 290.14ZM948.775 286.82C948.695 288 947.495 288.96 946.275 288.96C945.335 288.96 944.795 288.46 944.795 287.68C944.795 286.5 945.955 285.86 948.775 285.84V286.82ZM953.579 290H955.179V285.32C955.419 283.94 956.079 282.04 957.439 282.04C958.019 282.04 958.359 282.62 958.359 282.62L959.239 281.36C959.239 281.36 958.779 280.54 957.739 280.54C956.279 280.54 955.439 281.72 955.119 282.6V280.82H953.579V290ZM959.607 288.9C959.607 289.62 960.187 290.2 960.907 290.2C961.627 290.2 962.207 289.62 962.207 288.9C962.207 288.18 961.627 287.6 960.907 287.6C960.187 287.6 959.607 288.18 959.607 288.9Z" fill="#231F20"/>
<path d="M875.504 97.152C875.504 97.472 875.611 97.728 875.824 97.92L877.936 99.936V100H867.28V99.936L869.424 97.92C869.616 97.728 869.712 97.472 869.712 97.152V84.288C869.712 83.648 869.744 83.008 869.808 82.368L862.576 100.256H862.512L855.024 83.808C854.704 83.1467 854.501 82.6773 854.416 82.4V94.624C854.416 94.944 854.555 95.296 854.832 95.68L858.064 99.936V100H850.096V99.936L853.328 95.68C853.605 95.296 853.744 94.944 853.744 94.624V81.952C853.744 81.568 853.648 81.2587 853.456 81.024L850.832 77.568V77.504H858.48L865.168 92.096L871.056 77.504H877.936V77.568L875.824 79.904C875.611 80.1173 875.504 80.384 875.504 80.704V97.152ZM893.618 91.36H884.018V91.424C884.018 93.3867 884.444 94.8587 885.298 95.84C886.151 96.8 887.25 97.28 888.594 97.28C890.855 97.28 892.476 96.2987 893.458 94.336H893.522C892.711 98.2827 890.354 100.256 886.45 100.256C884.252 100.256 882.396 99.5733 880.882 98.208C879.367 96.8427 878.61 94.8373 878.61 92.192C878.61 89.3973 879.367 87.3173 880.882 85.952C882.396 84.5867 884.316 83.904 886.642 83.904C887.538 83.904 888.38 84.0213 889.17 84.256C889.959 84.4907 890.695 84.8533 891.378 85.344C892.082 85.8347 892.636 86.5387 893.042 87.456C893.447 88.352 893.65 89.4187 893.65 90.656C893.65 90.8693 893.639 91.104 893.618 91.36ZM886.578 84.512C885.746 84.512 885.116 85.0027 884.69 85.984C884.263 86.944 884.039 88.544 884.018 90.784H888.722C888.743 90.5067 888.754 90.1867 888.754 89.824C888.754 87.84 888.562 86.464 888.178 85.696C887.815 84.9067 887.282 84.512 886.578 84.512ZM911.887 90.656C911.887 91.424 911.865 92.704 911.823 94.496C911.801 96.2667 911.791 97.3333 911.791 97.696C911.791 98.016 911.887 98.272 912.079 98.464L913.679 99.936V100H904.687V99.936L906.223 98.464C906.415 98.272 906.511 98.0267 906.511 97.728C906.511 97.664 906.521 96.7467 906.543 94.976C906.585 93.184 906.607 91.9893 906.607 91.392C906.607 89.792 906.436 88.5867 906.095 87.776C905.753 86.9653 905.113 86.56 904.175 86.56C903.236 86.56 902.447 87.0293 901.807 87.968V97.696C901.807 98.0373 901.903 98.2933 902.095 98.464L903.663 99.936V100H894.703V99.936L896.271 98.464C896.463 98.2933 896.559 98.0373 896.559 97.696V86.624C896.559 86.304 896.463 86.0373 896.271 85.824L894.703 84.224V84.16H901.807V87.552C902.681 85.12 904.377 83.904 906.895 83.904C908.495 83.904 909.721 84.48 910.575 85.632C911.449 86.784 911.887 88.4587 911.887 90.656ZM926.431 89.472L922.335 99.392C921.503 101.376 920.586 103.147 919.583 104.704C918.922 105.728 918.25 106.453 917.567 106.88C916.906 107.328 916.095 107.552 915.135 107.552C914.623 107.552 914.122 107.445 913.631 107.232L914.815 101.632H914.879L918.047 104.768C918.218 104.939 918.346 105.024 918.431 105.024C918.58 105.024 918.74 104.896 918.911 104.64C919.338 104.043 919.743 103.307 920.127 102.432L920.319 101.92L914.367 86.816C914.26 86.5387 914.1 86.1867 913.887 85.76L913.023 84.224V84.16H921.311V84.224L920.031 85.984C919.882 86.1973 919.86 86.4427 919.967 86.72L923.199 95.68L925.791 89.376C925.898 89.0987 925.951 88.9067 925.951 88.8C925.972 88.672 925.919 88.4693 925.791 88.192L923.839 84.224V84.16H929.311V84.224L927.231 87.808C926.954 88.256 926.687 88.8107 926.431 89.472Z" fill="#231F20"/>
<path d="M340.112 220.148C346.845 221.892 354.538 222.817 362.746 221.857" stroke="#231F20" stroke-miterlimit="10" stroke-linecap="round"/>
<path d="M370.299 146.459C375.51 158.274 379.784 170.499 377.688 182.478" stroke="#231F20" stroke-miterlimit="10" stroke-linecap="round"/>
<path d="M318.871 199.785L330.744 192.291" stroke="#231F20" stroke-miterlimit="10" stroke-linecap="round"/>
<path d="M314.082 195.452L329.374 189.363" stroke="#231F20" stroke-miterlimit="10" stroke-linecap="round"/>
<path d="M370.17 173.204L353.203 179.281" stroke="#231F20" stroke-miterlimit="10" stroke-linecap="round"/>
<path d="M370.463 179.34L354.245 182.115" stroke="#231F20" stroke-miterlimit="10" stroke-linecap="round"/>
<path d="M366.879 217.466C382.921 205.522 402.781 200.042 422.617 199.679C432.57 199.492 442.546 200.546 452.277 202.63C462.815 204.878 472.616 209.574 483.12 211.646C488.857 212.782 494.946 212.806 500.403 210.721C505.86 208.637 510.602 204.211 512.148 198.579" stroke="#231F20" stroke-miterlimit="10" stroke-linecap="round"/>
<path d="M470.708 159.34C465.134 161.319 459.502 163.333 454.549 166.576C449.596 169.82 445.322 174.445 443.659 180.124C441.458 187.642 444.514 194.949 448.788 201.073" stroke="#231F20" stroke-linecap="round" stroke-linejoin="round"/>
<path d="M311.716 182.033C311.716 182.033 320.967 184.914 327.372 178.146" stroke="#231F20" stroke-linecap="round" stroke-linejoin="round"/>
<path d="M348.343 172.127C348.343 172.127 358.004 172.841 362.723 164.808" stroke="#231F20" stroke-linecap="round" stroke-linejoin="round"/>
<path d="M527.405 189.715C527.452 194.984 526.574 200.487 524.572 206.225C522.043 213.473 517.511 220.183 511.094 224.398C504.221 228.906 495.673 230.265 487.464 229.867C479.256 229.468 471.223 227.419 463.202 225.628C444.315 221.389 424.491 218.438 405.744 223.274C396.013 225.78 386.938 230.311 377.36 233.344C374.561 234.234 371.646 234.995 368.718 234.679C365.791 234.363 362.852 232.782 361.681 230.089C359.397 224.843 364.058 222.232 365.826 218.134C367.254 214.808 365.264 211.178 362.114 209C356.341 204.995 347.664 207.501 342.735 214.621C341.505 216.377 340.627 218.274 340.088 220.159C327.009 216.799 313.075 210.136 306.283 197.935C301.763 189.832 299.866 180.64 296.154 172.185C292.794 164.527 287.524 155.57 288.356 146.928C292.77 149.188 297.185 151.401 301.506 153.837C305.897 156.331 310.698 158.38 315.826 158.462C320.194 158.532 324.444 157.197 328.555 155.745C334.011 153.813 339.515 151.553 343.742 147.619C351.564 140.347 351.622 129.75 356.716 121.015C357.055 120.441 357.536 119.82 358.203 119.856C358.894 119.926 359.269 120.699 359.479 121.366C362.161 129.364 366.47 137.818 370.287 146.483C369.807 145.406 378.835 138.146 379.596 137.502C385.381 132.572 391.669 128.263 398.355 124.645C412.348 117.08 428.366 112.549 444.35 114.34C460.462 116.132 475.275 124.059 488.553 133.345C507.171 146.366 527.183 165.312 527.394 189.75L527.405 189.715Z" stroke="#231F20" stroke-miterlimit="10"/>
<path d="M366.88 217.466C365.955 218.134 365.838 218.625 365.299 219.187C364.514 220.019 363.262 222.056 362.735 222.911C360.791 226.108 360.709 228.333 362.254 230.897C357.196 236.611 349.515 238.391 344.245 234.738C339.901 231.728 338.449 225.885 340.088 220.148C340.615 218.251 341.505 216.365 342.723 214.609C347.653 207.49 356.329 204.984 362.102 208.988C364.877 210.909 366.482 213.988 366.856 217.466H366.88Z" fill="#F5F1EC" stroke="#231F20" stroke-miterlimit="10"/>
<path d="M340.24 229.351C340.24 229.351 344.702 219.515 349.947 219.597" stroke="#231F20" stroke-linecap="round" stroke-linejoin="round"/>
<path d="M346.037 235.71C346.037 235.71 347.431 227.443 353.777 224.55" stroke="#231F20" stroke-linecap="round" stroke-linejoin="round"/>
<path d="M330.592 210.885C338.051 215.276 341.213 223.754 337.653 229.82C334.093 235.873 325.147 237.232 317.688 232.841C310.229 228.45 307.079 219.984 310.639 213.93C314.199 207.876 323.133 206.506 330.604 210.885H330.592Z" fill="#F5F1EC" stroke="#231F20" stroke-miterlimit="10"/>
<path d="M327.805 221.038C327.805 221.038 337.09 226.541 336.435 231.752" stroke="#231F20" stroke-linecap="round" stroke-linejoin="round"/>
<path d="M320.861 226.108C320.861 226.108 328.929 228.403 331.107 235.019" stroke="#231F20" stroke-linecap="round" stroke-linejoin="round"/>
<path d="M483.225 285.276L257.688 270.077L254 235.405L479.537 250.592L483.225 285.276Z" stroke="#231F20" stroke-miterlimit="10"/>
<path d="M479.537 250.592L573.248 185.265V194.129L486.504 254.656L489.092 275.698L581 213.321V224.48L483.225 285.276" stroke="#231F20" stroke-miterlimit="10"/>
<path d="M527.405 185.265H573.248" stroke="#231F20" stroke-miterlimit="10"/>
<path d="M566.878 198.567L569.395 221.19" stroke="#231F20" stroke-miterlimit="10"/>
<path d="M487.394 261.927L567.814 207.08" stroke="#231F20" stroke-miterlimit="10"/>
<path d="M254 235.405L310.416 203.743" stroke="#231F20" stroke-miterlimit="10"/>
<path d="M581 211.951L569.396 213.801L488.354 268.321" stroke="#231F20" stroke-miterlimit="10"/>
<path d="M308.812 90.8863C308.812 90.8863 360.299 80.898 339.807 92.9471C332.945 96.9752 323.367 102.01 313.648 106.659C294.339 115.898 274.433 123.626 273.859 119.048C273.004 112.174 318.226 92.83 318.226 92.83C318.226 92.83 323.203 113.462 330.896 107.654C338.589 101.858 320.1 106.94 320.1 106.94C320.1 106.94 288.777 120.055 286.611 127.666C284.445 135.277 325.803 121.577 325.803 121.577C325.803 121.577 301.716 108.614 288.473 112.432C275.241 116.249 324.678 115.687 324.678 115.687C324.678 115.687 351.915 86.542 333.074 90.5584C314.234 94.5748 305.065 105.956 305.065 105.956C305.065 105.956 355.755 96.1672 348.882 106.144C342.008 116.12 303.765 122.279 303.765 122.279" stroke="#CC7722" stroke-width="0.8" stroke-miterlimit="10"/>
</svg>
