<svg width="28" height="26" viewBox="0 0 28 26" fill="none" xmlns="http://www.w3.org/2000/svg">
<path d="M19.2498 2.16647C20.7501 2.17076 22.1877 2.74286 23.2486 3.75783C24.3095 4.77279 24.9075 6.14815 24.912 7.58353V18.4165C24.9075 19.8518 24.3095 21.2272 23.2486 22.2422C22.1877 23.2571 20.7501 23.8292 19.2498 23.8335H7.92667C6.42635 23.8292 4.98875 23.2571 3.92786 22.2422C2.86697 21.2272 2.26898 19.8518 2.2645 18.4165V7.58353C2.26898 6.14815 2.86697 4.77279 3.92786 3.75783C4.98875 2.74286 6.42635 2.17076 7.92667 2.16647H19.2498ZM19.2498 0H7.92667C3.56691 0 0 3.4125 0 7.58353V18.4165C0 22.5875 3.56691 26 7.92667 26H19.2498C23.6095 26 27.1765 22.5875 27.1765 18.4165V7.58353C27.1765 3.4125 23.6095 0 19.2498 0Z" fill="#CC7722"/>
<path d="M20.9491 7.5835C20.6132 7.5835 20.2848 7.48819 20.0055 7.30964C19.7262 7.13108 19.5084 6.87729 19.3799 6.58036C19.2513 6.28343 19.2177 5.95669 19.2832 5.64147C19.3488 5.32626 19.5105 5.03671 19.7481 4.80945C19.9856 4.58219 20.2883 4.42742 20.6178 4.36472C20.9472 4.30202 21.2888 4.3342 21.5991 4.45719C21.9095 4.58018 22.1748 4.78847 22.3614 5.0557C22.548 5.32293 22.6477 5.6371 22.6477 5.9585C22.6481 6.17202 22.6045 6.38354 22.5193 6.5809C22.4341 6.77826 22.3091 6.95758 22.1512 7.10857C21.9934 7.25956 21.806 7.37923 21.5997 7.46074C21.3934 7.54224 21.1723 7.58396 20.9491 7.5835ZM13.589 8.66644C14.4849 8.66644 15.3607 8.9206 16.1056 9.39677C16.8504 9.87295 17.431 10.5498 17.7739 11.3416C18.1167 12.1334 18.2064 13.0048 18.0316 13.8454C17.8568 14.686 17.4254 15.4582 16.792 16.0642C16.1585 16.6703 15.3514 17.083 14.4727 17.2502C13.5941 17.4174 12.6833 17.3316 11.8556 17.0036C11.028 16.6756 10.3205 16.1202 9.8228 15.4075C9.32508 14.6949 9.05943 13.8571 9.05943 13C9.06071 11.851 9.53835 10.7495 10.3875 9.93706C11.2367 9.12463 12.3881 8.66767 13.589 8.66644ZM13.589 6.49997C12.2453 6.49997 10.9317 6.88119 9.81443 7.59542C8.69715 8.30965 7.82633 9.32481 7.3121 10.5125C6.79787 11.7002 6.66332 13.0072 6.92547 14.2681C7.18762 15.5289 7.8347 16.6871 8.78487 17.5962C9.73505 18.5052 10.9456 19.1243 12.2636 19.3751C13.5815 19.6259 14.9476 19.4972 16.189 19.0052C17.4305 18.5132 18.4916 17.6801 19.2381 16.6112C19.9847 15.5423 20.3832 14.2855 20.3832 13C20.3832 11.2761 19.6673 9.62276 18.3932 8.40378C17.1191 7.18479 15.391 6.49997 13.589 6.49997Z" fill="#CC7722"/>
</svg>
