<?xml version="1.0" encoding="UTF-8"?><svg id="Layer_2" xmlns="http://www.w3.org/2000/svg" viewBox="0 0 856.66 615.4"><defs><style>.cls-1{fill:none;stroke:#282828;stroke-miterlimit:10;stroke-width:2px;}.cls-2{font-family:FuturaPT-Book, 'Futura PT';font-size:124px;}</style></defs><g id="Layer_1-2"><g><rect class="cls-1" x="37.06" y="228.94" width="250.1" height="163.46"/><polygon class="cls-1" points="540.32 244.96 540.32 392.4 495.59 392.4 489.8 379.13 473.88 342.61 473.88 392.4 373.5 392.4 373.5 342.61 357.57 379.15 351.79 392.4 303.09 392.4 303.09 244.96 540.32 244.96"/><rect class="cls-1" x="556.24" y="228.94" width="268.75" height="163.46"/><polygon class="cls-1" points="336.9 426.58 341.79 462.07 37.06 462.07 37.06 392.4 351.79 392.4 336.9 426.58"/><polygon class="cls-1" points="473.88 392.4 505.59 462.07 341.79 462.07 373.5 392.4 473.88 392.4"/><polygon class="cls-1" points="825 392.4 825 462.07 505.59 462.07 510.49 426.58 495.59 392.4 825 392.4"/><polygon class="cls-1" points="854.65 228.94 556.24 228.94 556.24 147.21 576.03 162.12 585.61 149.39 540.01 115.03 760.34 115.03 760.34 97.47 764.33 89.29 768.31 97.47 768.31 115.03 854.65 228.94"/><line class="cls-1" x1="540.01" y1="115.03" x2="536.96" y2="115.03"/><line class="cls-1" x1="300.48" y1="118.39" x2="300.47" y2="118.39"/><rect class="cls-1" x="303.09" y="200.54" width="237.23" height="44.42"/><path class="cls-1" d="M91.01,265.04v96.69l3.35,5.45,3.36-5.45v-8.67h42.75v8.67l3.35,5.45,3.36-5.45v-96.69h-56.16Zm49.46,6.52v26.31h-17.55v-26.31h17.55Zm-42.75,0h17.55v26.31h-17.55v-26.31Zm0,75.93v-41.94h17.55v41.94h-17.55Zm42.75,0h-17.55v-41.94h17.55v41.94Z"/><path class="cls-1" d="M201.03,265.04v96.69l3.35,5.45,3.36-5.45v-8.67h42.75v8.67l3.35,5.45,3.36-5.45v-96.69h-56.16Zm49.46,6.52v26.31h-17.55v-26.31h17.55Zm-42.75,0h17.55v26.31h-17.55v-26.31Zm0,75.93v-41.94h17.55v41.94h-17.55Zm42.75,0h-17.55v-41.94h17.55v41.94Z"/><path class="cls-1" d="M600.03,265.04v96.69l3.35,5.45,3.36-5.45v-8.67h42.75v8.67l3.35,5.45,3.36-5.45v-96.69h-56.16Zm49.46,6.52v26.31h-17.55v-26.31h17.55Zm-42.75,0h17.55v26.31h-17.55v-26.31Zm0,75.93v-41.94h17.55v41.94h-17.55Zm42.75,0h-17.55v-41.94h17.55v41.94Z"/><path class="cls-1" d="M714.87,265.04v96.69l3.35,5.45,3.36-5.45v-8.67h42.75v8.67l3.35,5.45,3.36-5.45v-96.69h-56.16Zm49.46,6.52v26.31h-17.55v-26.31h17.55Zm-42.75,0h17.55v26.31h-17.55v-26.31Zm0,75.93v-41.94h17.55v41.94h-17.55Zm42.75,0h-17.55v-41.94h17.55v41.94Z"/><polygon class="cls-1" points="373.5 244.96 373.5 342.61 357.57 379.15 357.57 244.96 373.5 244.96"/><polygon class="cls-1" points="489.8 244.96 489.8 379.13 473.88 342.61 473.88 244.96 489.8 244.96"/><polygon class="cls-1" points="357.57 342.61 357.57 379.15 351.79 392.4 303.09 392.4 303.09 342.61 357.57 342.61"/><polygon class="cls-1" points="540.32 342.61 540.32 392.4 495.59 392.4 489.8 379.13 489.8 342.61 540.32 342.61"/><path class="cls-1" d="M585.61,149.39l-9.58,12.72-19.78-14.91v245.19h-15.92V135.22l-23.71-17.87h-17.46c-5.15-11.68-12.89-21.97-22.5-30.12-2.47-2.1-5.07-4.06-7.78-5.86-13.28-8.86-29.24-14.02-46.41-14.02s-32.96,5.11-46.2,13.88c-2.87,1.9-5.63,3.97-8.23,6.2-9.5,8.13-17.15,18.34-22.27,29.92h-17.43l-25.24,19.02V392.4h-15.93V148.36l-18.25,13.75-9.59-12.71,41.15-31.01h.01L419.24,28.9V10.46l3.99-8.18,3.99,8.18V30.04l112.79,84.99,45.6,34.36Z"/><path class="cls-1" d="M368.03,87.43c2.61-2.24,5.36-4.31,8.23-6.2l-8.23,6.2Z"/><path class="cls-1" d="M476.65,87.23l-7.78-5.86c2.71,1.8,5.31,3.76,7.78,5.86Z"/><path class="cls-1" d="M351.11,120.51l-20.78,15.36v64.66h41.55v-64.66l-20.77-15.36Zm-2.83,76.37h-12.98v-31.03h12.98v31.03Zm0-36.71h-12.98v-19.46h12.98v19.46Zm18.64,36.71h-12.98v-31.03h12.98v31.03Zm0-36.71h-12.98v-19.46h12.98v19.46Z"/><path class="cls-1" d="M420.4,120.38l-20.78,15.36v64.8h41.55v-64.8l-20.77-15.36Zm-2.83,76.37h-12.98v-31.03h12.98v31.03Zm0-36.71h-12.98v-19.46h12.98v19.46Zm18.64,36.71h-12.98v-31.03h12.98v31.03Zm0-36.71h-12.98v-19.46h12.98v19.46Z"/><path class="cls-1" d="M490.76,120.25l-20.78,15.36v64.93h41.55v-64.93l-20.77-15.36Zm-2.83,76.37h-12.98v-31.03h12.98v31.03Zm0-36.71h-12.98v-19.46h12.98v19.46Zm18.64,36.71h-12.98v-31.03h12.98v31.03Zm0-36.71h-12.98v-19.46h12.98v19.46Z"/><line class="cls-1" x1="427.21" y1="30.08" x2="427.21" y2="30.04"/><polygon class="cls-1" points="268.91 162.12 287.16 148.36 287.16 228.94 2.16 228.94 96.05 118.39 96.69 118.39 96.69 99.68 100.67 91.5 104.66 99.68 104.66 118.39 300.47 118.39 259.32 149.4 268.91 162.12"/><line class="cls-1" x1="368.03" y1="404.42" x2="479.35" y2="404.42"/><line class="cls-1" x1="365.54" y1="409.89" x2="481.84" y2="409.89"/><line class="cls-1" x1="359.89" y1="422.3" x2="488.16" y2="422.3"/><line class="cls-1" x1="357.65" y1="427.23" x2="489.8" y2="427.23"/><line class="cls-1" x1="351.79" y1="440.09" x2="495.59" y2="440.09"/><line class="cls-1" x1="349.69" y1="444.71" x2="497.69" y2="444.71"/><line class="cls-1" x1="344.04" y1="457.13" x2="503.34" y2="457.13"/><rect class="cls-1" x="386.08" y="265.04" width="75.44" height="127.36"/><rect class="cls-1" x="394.92" y="273.55" width="58.22" height="118.97"/><line class="cls-1" x1="424.03" y1="273.61" x2="424.03" y2="392.46"/><polyline class="cls-1" points="721.58 297.73 721.58 271.41 739.13 271.41 739.13 297.73"/><rect class="cls-1" x="429.72" y="283.31" width="17.55" height="26.31"/><rect class="cls-1" x="400.33" y="283.31" width="17.55" height="26.31"/></g><text class="cls-2" transform="translate(24.6 584.4)"><tspan x="0" y="0">FRU SVENDSEN</tspan></text></g></svg>