<?xml version="1.0" encoding="UTF-8"?><svg id="Layer_2" xmlns="http://www.w3.org/2000/svg" viewBox="0 0 854.57 614.76"><defs><style>.cls-1{fill:none;stroke:#282828;stroke-miterlimit:10;}.cls-2{letter-spacing:-.02em;}.cls-3{font-family:FuturaPT-Light, 'Futura PT';font-size:126px;}.cls-4{letter-spacing:0em;}</style></defs><g id="Layer_1-2"><g><rect class="cls-1" x="35.98" y="227.79" width="250.1" height="163.46"/><polygon class="cls-1" points="539.24 243.82 539.24 391.26 494.51 391.26 488.72 377.99 472.8 341.47 472.8 391.26 372.42 391.26 372.42 341.47 356.49 378.01 350.71 391.26 302.01 391.26 302.01 243.82 539.24 243.82"/><rect class="cls-1" x="555.16" y="227.79" width="268.75" height="163.46"/><polygon class="cls-1" points="335.82 425.44 340.71 460.93 35.98 460.93 35.98 391.26 350.71 391.26 335.82 425.44"/><polygon class="cls-1" points="472.8 391.26 504.51 460.93 340.71 460.93 372.42 391.26 472.8 391.26"/><polygon class="cls-1" points="823.91 391.26 823.91 460.93 504.51 460.93 509.41 425.44 494.51 391.26 823.91 391.26"/><polygon class="cls-1" points="853.57 227.79 555.16 227.79 555.16 146.07 574.95 160.98 584.53 148.25 538.92 113.89 759.26 113.89 759.26 96.33 763.25 88.15 767.23 96.33 767.23 113.89 853.57 227.79"/><line class="cls-1" x1="538.92" y1="113.89" x2="535.87" y2="113.89"/><line class="cls-1" x1="299.4" y1="117.25" x2="299.39" y2="117.25"/><rect class="cls-1" x="302.01" y="199.4" width="237.23" height="44.42"/><path class="cls-1" d="M89.93,263.89v96.69l3.35,5.45,3.36-5.45v-8.67h42.75v8.67l3.35,5.45,3.36-5.45v-96.69h-56.16Zm49.46,6.52v26.31h-17.55v-26.31h17.55Zm-42.75,0h17.55v26.31h-17.55v-26.31Zm0,75.93v-41.94h17.55v41.94h-17.55Zm42.75,0h-17.55v-41.94h17.55v41.94Z"/><path class="cls-1" d="M199.95,263.89v96.69l3.35,5.45,3.36-5.45v-8.67h42.75v8.67l3.35,5.45,3.36-5.45v-96.69h-56.16Zm49.46,6.52v26.31h-17.55v-26.31h17.55Zm-42.75,0h17.55v26.31h-17.55v-26.31Zm0,75.93v-41.94h17.55v41.94h-17.55Zm42.75,0h-17.55v-41.94h17.55v41.94Z"/><path class="cls-1" d="M598.95,263.89v96.69l3.35,5.45,3.36-5.45v-8.67h42.75v8.67l3.35,5.45,3.36-5.45v-96.69h-56.16Zm49.46,6.52v26.31h-17.55v-26.31h17.55Zm-42.75,0h17.55v26.31h-17.55v-26.31Zm0,75.93v-41.94h17.55v41.94h-17.55Zm42.75,0h-17.55v-41.94h17.55v41.94Z"/><path class="cls-1" d="M713.79,263.89v96.69l3.35,5.45,3.36-5.45v-8.67h42.75v8.67l3.35,5.45,3.36-5.45v-96.69h-56.16Zm49.46,6.52v26.31h-17.55v-26.31h17.55Zm-42.75,0h17.55v26.31h-17.55v-26.31Zm0,75.93v-41.94h17.55v41.94h-17.55Zm42.75,0h-17.55v-41.94h17.55v41.94Z"/><polygon class="cls-1" points="372.42 243.82 372.42 341.47 356.49 378.01 356.49 243.82 372.42 243.82"/><polygon class="cls-1" points="488.72 243.82 488.72 377.99 472.8 341.47 472.8 243.82 488.72 243.82"/><polygon class="cls-1" points="356.49 341.47 356.49 378.01 350.71 391.26 302.01 391.26 302.01 341.47 356.49 341.47"/><polygon class="cls-1" points="539.24 341.47 539.24 391.26 494.51 391.26 488.72 377.99 488.72 341.47 539.24 341.47"/><path class="cls-1" d="M584.53,148.25l-9.58,12.72-19.78-14.91v245.19h-15.92V134.07l-23.71-17.87h-17.46c-5.15-11.68-12.89-21.97-22.5-30.12-2.47-2.1-5.07-4.06-7.78-5.86-13.28-8.86-29.24-14.02-46.41-14.02s-32.96,5.11-46.2,13.88c-2.87,1.9-5.63,3.97-8.23,6.2-9.5,8.13-17.15,18.34-22.27,29.92h-17.43l-25.24,19.02V391.26h-15.93V147.22l-18.25,13.75-9.59-12.71,41.15-31.01h.01L418.16,27.75V9.32l3.99-8.18,3.99,8.18V28.9l112.79,84.99,45.6,34.36Z"/><path class="cls-1" d="M366.95,86.29c2.61-2.24,5.36-4.31,8.23-6.2l-8.23,6.2Z"/><path class="cls-1" d="M475.57,86.09l-7.78-5.86c2.71,1.8,5.31,3.76,7.78,5.86Z"/><path class="cls-1" d="M350.03,119.37l-20.78,15.36v64.66h41.55v-64.66l-20.77-15.36Zm-2.83,76.37h-12.98v-31.03h12.98v31.03Zm0-36.71h-12.98v-19.46h12.98v19.46Zm18.64,36.71h-12.98v-31.03h12.98v31.03Zm0-36.71h-12.98v-19.46h12.98v19.46Z"/><path class="cls-1" d="M419.32,119.24l-20.78,15.36v64.8h41.55v-64.8l-20.77-15.36Zm-2.83,76.37h-12.98v-31.03h12.98v31.03Zm0-36.71h-12.98v-19.46h12.98v19.46Zm18.64,36.71h-12.98v-31.03h12.98v31.03Zm0-36.71h-12.98v-19.46h12.98v19.46Z"/><path class="cls-1" d="M489.67,119.1l-20.78,15.36v64.93h41.55v-64.93l-20.77-15.36Zm-2.83,76.37h-12.98v-31.03h12.98v31.03Zm0-36.71h-12.98v-19.46h12.98v19.46Zm18.64,36.71h-12.98v-31.03h12.98v31.03Zm0-36.71h-12.98v-19.46h12.98v19.46Z"/><line class="cls-1" x1="426.13" y1="28.94" x2="426.13" y2="28.9"/><polygon class="cls-1" points="267.83 160.98 286.08 147.22 286.08 227.79 1.08 227.79 94.96 117.25 95.61 117.25 95.61 98.54 99.59 90.36 103.58 98.54 103.58 117.25 299.39 117.25 258.24 148.26 267.83 160.98"/><line class="cls-1" x1="366.95" y1="403.28" x2="478.27" y2="403.28"/><line class="cls-1" x1="364.46" y1="408.75" x2="480.76" y2="408.75"/><line class="cls-1" x1="358.81" y1="421.16" x2="487.08" y2="421.16"/><line class="cls-1" x1="356.57" y1="426.09" x2="488.72" y2="426.09"/><line class="cls-1" x1="350.71" y1="438.95" x2="494.51" y2="438.95"/><line class="cls-1" x1="348.61" y1="443.57" x2="496.61" y2="443.57"/><line class="cls-1" x1="342.96" y1="455.99" x2="502.26" y2="455.99"/><rect class="cls-1" x="384.99" y="263.89" width="75.44" height="127.36"/><rect class="cls-1" x="393.84" y="272.41" width="58.22" height="118.97"/><line class="cls-1" x1="422.94" y1="272.47" x2="422.94" y2="391.32"/><polyline class="cls-1" points="720.5 296.58 720.5 270.27 738.05 270.27 738.05 296.58"/><rect class="cls-1" x="428.64" y="282.17" width="17.55" height="26.31"/><rect class="cls-1" x="399.25" y="282.17" width="17.55" height="26.31"/></g><text class="cls-3" transform="translate(28.52 583.26)"><tspan x="0" y="0">FRU </tspan><tspan class="cls-2" x="219.36" y="0">S</tspan><tspan class="cls-4" x="281.48" y="0">VENDSEN</tspan></text></g></svg>