<svg width="43" height="26" viewBox="0 0 43 26" fill="none" xmlns="http://www.w3.org/2000/svg">
<g clip-path="url(#clip0_106_35)">
<path fill-rule="evenodd" clip-rule="evenodd" d="M39.349 8.67001C42.173 7.98843 42.173 5.80339 42.173 5.80339H35.1858C30.9546 1.45335 26.7914 0 21.1822 0C15.5731 0 11.4196 1.45335 7.18843 5.80339H0.210938C0.210938 5.80339 0.210938 7.98843 3.02523 8.67001C2.48178 9.44179 1.93833 10.384 1.4337 11.4364C0.734978 12.8697 0.210938 14.5135 0.210938 15.9268C0.210938 21.8705 4.25769 26 10.0124 26C13.2634 26 16.4756 24.1157 18.4068 21.7001L21.1822 26L23.9771 21.7001C25.9083 24.1157 29.1205 26 32.3715 26C38.1262 26 42.173 21.8705 42.173 15.9268C42.173 14.5837 41.6683 13.0401 41.0084 11.6268C40.5038 10.5243 39.9118 9.46183 39.349 8.67001ZM10.0124 23.1334C6.15006 23.1334 3.02523 19.8658 3.02523 15.9268C3.02523 13.7918 3.93744 11.8674 5.34459 10.5744C6.57705 9.4017 8.2074 8.67001 10.0027 8.67001C11.0896 8.67001 12.0989 8.9707 13.0499 9.39167C15.3693 10.5944 16.9802 13.0601 16.9802 15.9268C16.9802 19.8658 13.8651 23.1334 10.0027 23.1334H10.0124ZM21.1822 20.2467C21.1822 16.0671 19.3384 11.9275 16.6794 9.16114C14.7482 7.11642 12.3609 5.80339 10.0124 5.80339C10.0124 5.80339 14.195 1.46338 21.1822 1.46338C28.1694 1.46338 32.3715 5.80339 32.3715 5.80339C29.9842 5.80339 27.5969 7.11642 25.6657 9.18119C23.0455 11.9776 21.1822 16.1172 21.1822 20.2467ZM32.3715 14.4734C31.6048 14.4734 30.9643 15.1049 30.9643 15.9067C30.9643 16.7086 31.6048 17.34 32.3715 17.34C33.1381 17.34 33.7786 16.7086 33.7786 15.9067C33.7786 15.1049 33.1381 14.4734 32.3715 14.4734ZM32.3715 11.5867C30.0521 11.5867 28.1694 13.5312 28.1694 15.9268C28.1694 18.3223 30.0618 20.2467 32.3715 20.2467C34.6811 20.2467 36.5541 18.3223 36.5541 15.9268C36.5541 13.5312 34.6908 11.5867 32.3715 11.5867ZM32.3715 18.7934C30.8285 18.7934 29.5766 17.5004 29.5766 15.9268C29.5766 14.3531 30.8285 13.0401 32.3715 13.0401C33.9145 13.0401 35.1955 14.3331 35.1955 15.9268C35.1955 17.5204 33.9242 18.7934 32.3715 18.7934ZM10.0124 14.4634C9.23607 14.4634 8.60528 15.0948 8.60528 15.8967C8.60528 16.6985 9.24578 17.33 10.0124 17.33C10.7791 17.33 11.4196 16.6985 11.4196 15.8967C11.4196 15.0948 10.7791 14.4634 10.0124 14.4634ZM10.0124 11.5767C7.69307 11.5767 5.8007 13.5212 5.8007 15.9167C5.8007 18.3123 7.68336 20.2367 10.0124 20.2367C12.3415 20.2367 14.195 18.3123 14.195 15.9167C14.195 13.5212 12.3318 11.5767 10.0124 11.5767ZM10.0124 18.7833C8.46942 18.7833 7.18843 17.4904 7.18843 15.9167C7.18843 14.3431 8.45972 13.0301 10.0124 13.0301C11.5651 13.0301 12.8073 14.3231 12.8073 15.9167C12.8073 17.5104 11.5554 18.7833 10.0124 18.7833ZM32.3618 23.1234C28.4994 23.1234 25.3843 19.8558 25.3843 15.9167C25.3843 13.1002 26.9273 10.6546 29.2078 9.45181C30.1589 8.96068 31.2069 8.64996 32.3715 8.64996C34.2832 8.64996 35.9621 9.45181 37.214 10.6947C38.5532 12.0378 39.349 13.8419 39.349 15.9067C39.349 19.8458 36.2338 23.1133 32.3618 23.1133V23.1234Z" fill="#CC7722"/>
</g>
<defs>
<clipPath id="clip0_106_35">
<rect width="41.962" height="26" fill="white" transform="translate(0.210938)"/>
</clipPath>
</defs>
</svg>
