<svg width="28" height="26" viewBox="0 0 28 26" fill="none" xmlns="http://www.w3.org/2000/svg">
<path d="M19.3592 2.16647C20.8595 2.17076 22.2971 2.74286 23.358 3.75783C24.4189 4.77279 25.0168 6.14815 25.0213 7.58353V18.4165C25.0168 19.8518 24.4189 21.2272 23.358 22.2422C22.2971 23.2571 20.8595 23.8292 19.3592 23.8335H8.03604C6.53572 23.8292 5.09813 23.2571 4.03724 22.2422C2.97634 21.2272 2.37836 19.8518 2.37388 18.4165V7.58353C2.37836 6.14815 2.97634 4.77279 4.03724 3.75783C5.09813 2.74286 6.53572 2.17076 8.03604 2.16647H19.3592ZM19.3592 0H8.03604C3.67628 0 0.109375 3.4125 0.109375 7.58353V18.4165C0.109375 22.5875 3.67628 26 8.03604 26H19.3592C23.7189 26 27.2858 22.5875 27.2858 18.4165V7.58353C27.2858 3.4125 23.7189 0 19.3592 0Z" fill="#CC7722"/>
<path d="M21.0575 7.5835C20.7216 7.5835 20.3932 7.48819 20.1139 7.30964C19.8346 7.13108 19.6168 6.87729 19.4883 6.58036C19.3597 6.28343 19.3261 5.95669 19.3916 5.64147C19.4572 5.32626 19.6189 5.03671 19.8565 4.80945C20.094 4.58219 20.3967 4.42742 20.7262 4.36472C21.0556 4.30202 21.3972 4.3342 21.7075 4.45719C22.0179 4.58018 22.2832 4.78847 22.4698 5.0557C22.6564 5.32293 22.7561 5.6371 22.7561 5.9585C22.7565 6.17202 22.7129 6.38354 22.6277 6.5809C22.5425 6.77826 22.4175 6.95758 22.2596 7.10857C22.1018 7.25956 21.9144 7.37923 21.7081 7.46074C21.5018 7.54224 21.2807 7.58396 21.0575 7.5835ZM13.6974 8.66644C14.5933 8.66644 15.4691 8.9206 16.214 9.39677C16.9588 9.87295 17.5394 10.5498 17.8823 11.3416C18.2251 12.1334 18.3148 13.0048 18.14 13.8454C17.9652 14.686 17.5338 15.4582 16.9004 16.0642C16.2669 16.6703 15.4598 17.083 14.5811 17.2502C13.7025 17.4174 12.7917 17.3316 11.964 17.0036C11.1364 16.6756 10.4289 16.1202 9.9312 15.4075C9.43348 14.6949 9.16783 13.8571 9.16783 13C9.16911 11.851 9.64675 10.7495 10.4959 9.93706C11.3451 9.12463 12.4965 8.66767 13.6974 8.66644ZM13.6974 6.49997C12.3537 6.49997 11.0401 6.88119 9.92283 7.59542C8.80554 8.30965 7.93472 9.32481 7.42049 10.5125C6.90626 11.7002 6.77172 13.0072 7.03387 14.2681C7.29602 15.5289 7.9431 16.6871 8.89327 17.5962C9.84345 18.5052 11.054 19.1243 12.372 19.3751C13.6899 19.6259 15.056 19.4972 16.2974 19.0052C17.5389 18.5132 18.6 17.6801 19.3465 16.6112C20.0931 15.5423 20.4916 14.2855 20.4916 13C20.4916 11.2761 19.7757 9.62276 18.5016 8.40378C17.2275 7.18479 15.4993 6.49997 13.6974 6.49997Z" fill="#CC7722"/>
</svg>
