<svg width="257" height="226" viewBox="0 0 257 226" fill="none" xmlns="http://www.w3.org/2000/svg">
<g clip-path="url(#clip0_446_536)">
<path d="M148.199 95.34C146.389 97.41 144.239 99.22 142.789 101.58C140.849 104.74 139.339 108.99 139.789 112.74C139.469 110.07 161.819 102.93 163.989 102.16C170.629 99.8 178.009 97.87 185.229 98.76C189.889 99.34 202.049 102.9 200.599 109.65C199.759 113.55 194.229 113.23 191.249 113.06C186.329 112.78 181.479 110.95 176.549 111.82C173.679 112.33 170.829 113.21 168.129 114.29C159.779 117.6 152.569 123.31 147.119 130.43C158.779 136.82 171.979 143.79 181.179 153.51C184.899 157.44 185.019 162.09 178.639 162.7C174.939 163.05 170.869 161.12 167.979 158.9C154.919 148.86 138.649 141.82 122.099 140.81C113.889 140.31 106.429 141.86 98.5792 143.99C95.0892 144.94 87.2792 148.9 83.6592 148.32C90.6992 149.44 107.589 152.49 102.299 163.47C100.369 167.48 96.2392 169.86 92.2992 171.92C88.3592 173.98 84.1592 176.15 81.8992 179.98C81.3892 180.85 80.9792 181.82 80.9392 182.83C80.8592 184.89 82.3092 186.72 83.9792 187.93C90.0392 192.32 97.8192 194.81 102.379 201.07C103.309 202.35 103.689 204.16 102.889 205.52C101.879 207.23 99.5192 207.55 97.5692 207.24C92.1392 206.38 87.7892 202.36 82.6792 200.35C78.7192 198.79 74.3792 198.46 70.3392 197.11C60.8392 193.93 59.5892 185.12 62.0892 176.47C64.9392 166.62 53.1392 171.22 53.1392 171.22C53.1392 171.22 54.4592 167.64 53.1392 171.22C50.3392 178.79 41.6692 181.74 39.1092 189.43C35.5992 199.95 43.5892 215.67 33.1392 223.71C32.1392 224.48 30.7792 224.89 29.6092 224.43C28.6692 224.07 27.9892 223.2 27.6092 222.26C26.1492 218.6 26.4592 213.69 26.4692 209.82C26.4692 205.32 26.7592 200.83 26.9592 196.34C27.2292 190.04 25.3492 182.5 27.0392 176.49C30.0992 165.61 31.6292 153.24 19.7792 146.29C-5.05082 131.73 -5.97082 94.71 17.3792 78.08C27.1992 71.08 39.8092 69.83 51.5492 67.05C59.0992 65.26 66.8492 62.53 72.8592 57.47C75.8692 54.93 78.3692 51.86 79.6992 48.12C81.2292 43.81 81.6392 39.24 83.5792 35.03C83.9992 34.11 84.4992 33.19 85.2792 32.54C88.4292 29.93 92.0992 34.42 93.3692 36.95C94.9692 40.14 95.2592 43.92 94.8492 47.43C94.6792 48.86 94.4192 50.22 94.0892 51.53C88.9392 71.38 64.8392 77.69 46.6292 79.98C9.96918 84.59 10.4292 109.67 10.4292 109.68C10.3592 114.35 10.9392 122.89 16.5692 124.08C27.8392 126.45 37.6392 101.01 44.2892 95.47C53.7692 87.57 67.5192 88.31 79.7992 89.48C93.4692 90.77 106.429 95.64 107.549 78.28C107.549 78.28 108.259 58.63 107.649 50.7C107.299 46.13 111.969 52.14 112.779 53.27C115.299 56.77 118.029 60.12 122.119 61.85C125.359 63.21 128.959 63.35 132.469 63.31C135.119 63.28 137.819 63.16 140.299 62.21C143.209 61.09 145.519 58.92 147.509 56.58C147.949 56.06 153.469 49.65 153.619 49.93C154.469 51.54 154.469 53.44 154.499 55.22C154.619 61.91 154.349 68.6 153.689 75.26C153.139 80.87 153.029 87.71 150.129 92.7C149.579 93.65 148.909 94.51 148.199 95.33V95.34Z" stroke="#231F20" stroke-miterlimit="10"/>
<path d="M53.1484 171.24C53.1484 171.24 61.2884 147.12 72.6784 144.27" stroke="#231F20" stroke-miterlimit="10" stroke-linecap="round"/>
<path d="M138.568 119.46C138.568 119.46 139.718 126.21 147.108 130.44" stroke="#231F20" stroke-linecap="round" stroke-linejoin="round"/>
<path d="M27.2598 221.13C27.2598 221.13 30.3698 220.61 31.1798 214.92" stroke="#231F20" stroke-linecap="round" stroke-linejoin="round"/>
<path d="M30.1797 224.05C30.1797 224.05 34.7897 220.25 34.5197 215.91" stroke="#231F20" stroke-linecap="round" stroke-linejoin="round"/>
<path d="M94.3691 201.09C94.3691 201.09 99.8691 203.74 98.1991 207.3" stroke="#231F20" stroke-linecap="round" stroke-linejoin="round"/>
<path d="M98.5098 200C98.5098 200 103.86 202.45 101.41 206.78" stroke="#231F20" stroke-linecap="round" stroke-linejoin="round"/>
<path d="M172.369 155.26C172.369 155.26 176.999 156.45 177.259 162.64" stroke="#231F20" stroke-linecap="round" stroke-linejoin="round"/>
<path d="M175.988 153.9C175.988 153.9 181.228 156.18 181.498 162.63" stroke="#231F20" stroke-linecap="round" stroke-linejoin="round"/>
<path d="M132.299 74.3C130.459 75.9 128.059 76.87 125.429 76.87C122.799 76.87 120.399 75.9 118.559 74.3C120.399 72.7 122.799 71.73 125.429 71.73C128.059 71.73 130.459 72.7 132.299 74.3Z" fill="white" stroke="#231F20" stroke-width="0.81" stroke-miterlimit="10"/>
<path d="M125.42 76.87C126.839 76.87 127.99 75.7194 127.99 74.3C127.99 72.8806 126.839 71.73 125.42 71.73C124 71.73 122.85 72.8806 122.85 74.3C122.85 75.7194 124 76.87 125.42 76.87Z" fill="#231F20"/>
<path d="M156.58 74.3C154.74 75.9 152.34 76.87 149.71 76.87C147.08 76.87 144.68 75.9 142.84 74.3C144.68 72.7 147.08 71.73 149.71 71.73C152.34 71.73 154.74 72.7 156.58 74.3Z" fill="white" stroke="#231F20" stroke-width="0.81" stroke-miterlimit="10"/>
<path d="M149.709 76.87C151.128 76.87 152.279 75.7194 152.279 74.3C152.279 72.8806 151.128 71.73 149.709 71.73C148.289 71.73 147.139 72.8806 147.139 74.3C147.139 75.7194 148.289 76.87 149.709 76.87Z" fill="#231F20"/>
<path d="M194.453 107.363C194.787 105.909 194.201 104.535 193.146 104.293C192.091 104.051 190.966 105.034 190.633 106.487C190.299 107.941 190.885 109.315 191.94 109.557C192.995 109.799 194.12 108.816 194.453 107.363Z" fill="#231F20"/>
<path d="M196.83 106.6C197.338 106.6 197.75 106.188 197.75 105.68C197.75 105.172 197.338 104.76 196.83 104.76C196.322 104.76 195.91 105.172 195.91 105.68C195.91 106.188 196.322 106.6 196.83 106.6Z" fill="#231F20"/>
<path d="M195.59 110.84C196.098 110.84 196.51 110.428 196.51 109.92C196.51 109.412 196.098 109 195.59 109C195.082 109 194.67 109.412 194.67 109.92C194.67 110.428 195.082 110.84 195.59 110.84Z" fill="#231F20"/>
<path d="M197.379 109.06C197.887 109.06 198.299 108.648 198.299 108.14C198.299 107.632 197.887 107.22 197.379 107.22C196.871 107.22 196.459 107.632 196.459 108.14C196.459 108.648 196.871 109.06 197.379 109.06Z" fill="#231F20"/>
<path d="M154.479 85.7099L146.139 83.9099" stroke="#231F20" stroke-miterlimit="10" stroke-linecap="round"/>
<path d="M156.308 82.23L146.318 81.95" stroke="#231F20" stroke-miterlimit="10" stroke-linecap="round"/>
<path d="M119.68 81.2499L130.62 81.1699" stroke="#231F20" stroke-miterlimit="10" stroke-linecap="round"/>
<path d="M120.789 84.81L130.619 83.01" stroke="#231F20" stroke-miterlimit="10" stroke-linecap="round"/>
<path d="M129.699 0.349976C129.699 0.349976 168.689 2.12998 151.759 7.25998C146.089 8.97998 138.289 10.94 130.439 12.61C114.859 15.91 99.1092 18.02 99.4892 14.62C100.069 9.49998 136.159 3.41998 136.159 3.41998C136.159 3.41998 136.159 19.21 142.729 16.36C149.309 13.51 135.049 13.95 135.049 13.95C135.049 13.95 110.099 17.96 107.199 23.08C104.299 28.2 136.609 25.53 136.609 25.53C136.609 25.53 121.449 11.94 111.209 12.39C100.969 12.84 136.829 21.08 136.829 21.08C136.829 21.08 161.629 4.75998 147.299 4.36998C132.969 3.97998 124.349 10.61 124.349 10.61C124.349 10.61 162.729 12.39 156.009 18.41C149.299 24.43 120.559 22.2 120.559 22.2" stroke="#CC7722" stroke-width="0.7" stroke-miterlimit="10"/>
<path d="M236.9 204.7L206.38 216.23C204.42 216.97 203.58 214.05 204.5 209.72L217.8 146.98C218.72 142.64 221.05 138.53 223.01 137.79L253.53 126.26C255.49 125.52 256.33 128.44 255.41 132.77L242.11 195.51C241.19 199.85 238.86 203.96 236.9 204.7Z" stroke="#231F20" stroke-miterlimit="10"/>
<path d="M208.559 192.86L159.499 191.53C158.739 191.5 157.979 191.63 157.289 191.93L129.759 210C129.019 210.32 129.239 211.42 130.039 211.43L204.119 212.08" stroke="#231F20" stroke-miterlimit="10"/>
<path d="M205.219 216.18L132.099 215.01C131.409 215 130.799 214.57 130.559 213.92L129.309 210.52" stroke="#231F20" stroke-miterlimit="10"/>
<path d="M207.73 194.93L184.46 194.31C184.11 194.3 183.76 194.36 183.45 194.5L167.37 209.05C167.13 209.15 167.2 209.49 167.46 209.49L204.5 209.71" stroke="#231F20" stroke-miterlimit="10"/>
</g>
<defs>
<clipPath id="clip0_446_536">
<rect width="256.28" height="225.13" fill="white"/>
</clipPath>
</defs>
</svg>
