<svg width="118" height="89" viewBox="0 0 118 89" fill="none" xmlns="http://www.w3.org/2000/svg">
<path d="M9.00547 78H10.267V73.7225H14.1675V72.606H10.267V69.532H14.7765V68.4155H9.00547V78ZM16.7936 78H18.0551V73.8675H19.3746C20.6651 73.8675 20.9406 74.5925 21.1001 75.419C21.3031 76.4775 21.4626 78.203 23.2461 78.087L23.4781 77.014C22.6516 77.0285 22.4776 76.2165 22.3036 75.0855C22.1586 74.1285 21.6511 73.708 21.2306 73.5195C22.0281 73.2005 22.9561 72.5045 22.9561 70.9965C22.9561 69.387 21.9266 68.4155 19.7226 68.4155H16.7936V78ZM19.5776 69.4885C21.0566 69.4885 21.5931 70.025 21.5931 71.0835C21.5931 72.1565 21.0711 72.7945 19.5776 72.7945H18.0551V69.4885H19.5776ZM25.4852 74.259C25.4852 76.6805 26.6452 78.203 29.2552 78.203C31.9377 78.203 33.0542 76.608 33.0542 74.375V68.4155H31.8652V74.375C31.8652 75.7525 31.3577 77.1155 29.2842 77.1155C27.1817 77.1155 26.7467 75.6945 26.7467 74.259V68.4155H25.4852V74.259ZM38.5562 75.3755C38.4547 76.724 39.5567 78.203 41.8187 78.203C44.0517 78.203 45.2117 76.985 45.2117 75.4915C45.2117 72.1565 40.1077 73.2005 40.1077 70.6195C40.1077 69.764 40.7457 69.2565 41.8187 69.2565C43.1527 69.2565 43.8342 69.8655 43.8777 71.04L45.0957 70.779C45.1682 69.271 43.8632 68.2125 41.8767 68.2125C39.9772 68.2125 38.8172 69.213 38.8172 70.7645C38.8172 74.404 43.9212 73.273 43.9212 75.6945C43.9212 76.6225 43.0657 77.159 41.8477 77.159C40.6732 77.159 39.7887 76.55 39.7742 75.1145L38.5562 75.3755ZM49.9325 78H50.8895L54.6015 68.4155H53.3255L50.991 74.5055C50.7735 75.042 50.5995 75.709 50.4545 76.2455C50.3095 75.709 50.1065 75.0275 49.918 74.5055L47.598 68.4155H46.206L49.9325 78ZM56.3146 78H62.2596V76.8835H57.5761V73.7225H61.4041V72.606H57.5761V69.532H62.1726V68.4155H56.3146V78ZM64.5274 78H65.7889V71.939C65.7889 71.504 65.7744 70.8805 65.7454 70.344C66.0064 70.7645 66.3689 71.3155 66.6734 71.736L71.2119 78H72.1689V68.4155H70.9074V74.0705C70.9074 74.4475 70.9219 75.129 70.9364 75.7235C70.6609 75.2885 70.3709 74.8535 70.1679 74.5635L65.7164 68.4155H64.5274V78ZM75.006 78H78.0945C81.27 78 82.633 75.6075 82.633 73.041C82.633 70.344 81.154 68.4155 78.08 68.4155H75.006V78ZM76.2675 76.927V69.4885H77.9495C79.9215 69.4885 81.241 70.431 81.241 73.099C81.241 75.883 79.9215 76.927 78.0365 76.927H76.2675ZM84.2369 75.3755C84.1354 76.724 85.2374 78.203 87.4994 78.203C89.7324 78.203 90.8924 76.985 90.8924 75.4915C90.8924 72.1565 85.7884 73.2005 85.7884 70.6195C85.7884 69.764 86.4264 69.2565 87.4994 69.2565C88.8334 69.2565 89.5149 69.8655 89.5584 71.04L90.7764 70.779C90.8489 69.271 89.5439 68.2125 87.5574 68.2125C85.6579 68.2125 84.4979 69.213 84.4979 70.7645C84.4979 74.404 89.6019 73.273 89.6019 75.6945C89.6019 76.6225 88.7464 77.159 87.5284 77.159C86.3539 77.159 85.4694 76.55 85.4549 75.1145L84.2369 75.3755ZM93.1451 78H99.0901V76.8835H94.4066V73.7225H98.2346V72.606H94.4066V69.532H99.0031V68.4155H93.1451V78ZM101.358 78H102.62V71.939C102.62 71.504 102.605 70.8805 102.576 70.344C102.837 70.7645 103.2 71.3155 103.504 71.736L108.043 78H109V68.4155H107.738V74.0705C107.738 74.4475 107.753 75.129 107.767 75.7235C107.492 75.2885 107.202 74.8535 106.999 74.5635L102.547 68.4155H101.358V78Z" fill="#282828"/>
<g clip-path="url(#clip0_342_47)">
<path d="M41.5539 29.0487H11.3145V49.9228H41.5539V29.0487Z" stroke="#282828" stroke-width="0.7" stroke-miterlimit="10"/>
<path d="M72.162 31.0947V49.9228H66.7529L66.0528 48.2282L64.1281 43.5652V49.9228H51.992V43.5652L50.0661 48.2308L49.3672 49.9228H43.4785V31.0947H72.162Z" stroke="#282828" stroke-width="0.7" stroke-miterlimit="10"/>
<path d="M106.582 29.0487H74.0879V49.9228H106.582V29.0487Z" stroke="#282828" stroke-width="0.7" stroke-miterlimit="10"/>
<path d="M47.5671 54.2884L48.1589 58.8198H11.3145V49.9228H49.3685L47.5671 54.2884Z" stroke="#282828" stroke-width="0.7" stroke-miterlimit="10"/>
<path d="M64.1288 49.9228L67.9632 58.8198H48.1582L51.9926 49.9228H64.1288Z" stroke="#282828" stroke-width="0.7" stroke-miterlimit="10"/>
<path d="M106.582 49.9228V58.8198H67.9635L68.5553 54.2884L66.7539 49.9228H106.582Z" stroke="#282828" stroke-width="0.7" stroke-miterlimit="10"/>
<path d="M110.168 29.0487H74.0883V18.6123L76.4801 20.5162L77.6387 18.8913L72.125 14.5033H98.7654V12.2613L99.2475 11.2166L99.7284 12.2613V14.5033L110.168 29.0487Z" stroke="#282828" stroke-width="0.7" stroke-miterlimit="10"/>
<path d="M72.1246 14.5033H71.7559" stroke="#282828" stroke-width="0.7" stroke-miterlimit="10"/>
<path d="M43.1649 14.9323H43.1621" stroke="#282828" stroke-width="0.7" stroke-miterlimit="10"/>
<path d="M72.162 25.4226H43.4785V31.0947H72.162V25.4226Z" stroke="#282828" stroke-width="0.7" stroke-miterlimit="10"/>
<path d="M17.8359 33.6591V46.0059L18.2408 46.7019L18.6469 46.0059V44.8994H23.8156V46.0059L24.2204 46.7019L24.6265 46.0059V33.6591H17.8359V33.6591ZM23.8156 34.4919V37.8523H21.694V34.4919H23.8156ZM18.6469 34.4919H20.7684V37.8523H18.6469V34.4919ZM18.6469 44.1875V38.8312H20.7684V44.1875H18.6469ZM23.8156 44.1875H21.694V38.8312H23.8156V44.1875Z" stroke="#282828" stroke-width="0.7" stroke-miterlimit="10"/>
<path d="M31.1387 33.6591V46.0059L31.5435 46.7019L31.9497 46.0059V44.8994H37.1183V46.0059L37.5232 46.7019L37.9293 46.0059V33.6591H31.1387V33.6591ZM37.1183 34.4919V37.8523H34.9968V34.4919H37.1183ZM31.9497 34.4919H34.0712V37.8523H31.9497V34.4919ZM31.9497 44.1875V38.8312H34.0712V44.1875H31.9497ZM37.1183 44.1875H34.9968V38.8312H37.1183V44.1875Z" stroke="#282828" stroke-width="0.7" stroke-miterlimit="10"/>
<path d="M79.3828 33.6591V46.0059L79.7877 46.7019L80.1938 46.0059V44.8994H85.3624V46.0059L85.7673 46.7019L86.1734 46.0059V33.6591H79.3828V33.6591ZM85.3624 34.4919V37.8523H83.2409V34.4919H85.3624ZM80.1938 34.4919H82.3153V37.8523H80.1938V34.4919ZM80.1938 44.1875V38.8312H82.3153V44.1875H80.1938ZM85.3624 44.1875H83.2409V38.8312H85.3624V44.1875Z" stroke="#282828" stroke-width="0.7" stroke-miterlimit="10"/>
<path d="M93.2676 33.6591V46.0059L93.6724 46.7019L94.0786 46.0059V44.8994H99.2472V46.0059L99.6521 46.7019L100.058 46.0059V33.6591H93.2676V33.6591ZM99.2472 34.4919V37.8523H97.1257V34.4919H99.2472ZM94.0786 34.4919H96.2001V37.8523H94.0786V34.4919ZM94.0786 44.1875V38.8312H96.2001V44.1875H94.0786ZM99.2472 44.1875H97.1257V38.8312H99.2472V44.1875Z" stroke="#282828" stroke-width="0.7" stroke-miterlimit="10"/>
<path d="M51.9923 31.0947V43.5652L50.0664 48.2308V31.0947H51.9923Z" stroke="#282828" stroke-width="0.7" stroke-miterlimit="10"/>
<path d="M66.0536 31.0947V48.2282L64.1289 43.5652V31.0947H66.0536Z" stroke="#282828" stroke-width="0.7" stroke-miterlimit="10"/>
<path d="M50.0661 43.5652V48.2308L49.3672 49.9228H43.4785V43.5652H50.0661Z" stroke="#282828" stroke-width="0.7" stroke-miterlimit="10"/>
<path d="M72.1619 43.5652V49.9228H66.7528L66.0527 48.2282V43.5652H72.1619Z" stroke="#282828" stroke-width="0.7" stroke-miterlimit="10"/>
<path d="M77.638 18.8913L76.4795 20.5162L74.0876 18.6123V49.9228H72.1629V17.0808L69.2965 14.7994H67.1849C66.562 13.3073 65.6265 11.9942 64.4642 10.9535C64.1652 10.6851 63.8513 10.4351 63.5236 10.2048C61.9179 9.07329 59.9882 8.41411 57.9128 8.41411C55.8373 8.41411 53.9276 9.06671 52.3268 10.1864C51.9792 10.4285 51.6466 10.693 51.3314 10.9785C50.1829 12.0166 49.2573 13.3205 48.6394 14.7994H46.5316L43.4795 17.2282V49.9228H41.5535V18.7597L39.3473 20.5162L38.1875 18.8926L43.163 14.9322H43.1643L57.5228 3.50379V1.14995L58.0049 0.105255L58.487 1.14995V3.64984L72.1243 14.5033L77.638 18.8913V18.8913Z" stroke="#282828" stroke-width="0.7" stroke-miterlimit="10"/>
<path d="M51.332 10.9785C51.6472 10.693 51.9798 10.4285 52.3274 10.1864L51.332 10.9785Z" stroke="#282828" stroke-width="0.7" stroke-miterlimit="10"/>
<path d="M64.464 10.9535L63.5234 10.2048C63.8511 10.4351 64.165 10.6851 64.464 10.9535Z" stroke="#282828" stroke-width="0.7" stroke-miterlimit="10"/>
<path d="M49.2861 15.2033L46.7734 17.165V25.4226H51.7976V17.165L49.2861 15.2033V15.2033ZM48.9435 24.9555H47.3739V20.9925H48.9435V24.9555ZM48.9435 20.2675H47.3739V17.7821H48.9435V20.2675ZM51.1971 24.9555H49.6275V20.9925H51.1971V24.9555ZM51.1971 20.2675H49.6275V17.7821H51.1971V20.2675Z" stroke="#282828" stroke-width="0.7" stroke-miterlimit="10"/>
<path d="M57.6631 15.1862L55.1504 17.1479V25.4226H60.1745V17.1479L57.6631 15.1862V15.1862ZM57.3205 24.9384H55.7508V20.9754H57.3205V24.9384ZM57.3205 20.2504H55.7508V17.765H57.3205V20.2504ZM59.5741 24.9384H58.0044V20.9754H59.5741V24.9384ZM59.5741 20.2504H58.0044V17.765H59.5741V20.2504Z" stroke="#282828" stroke-width="0.7" stroke-miterlimit="10"/>
<path d="M66.1689 15.1691L63.6562 17.1308V25.4226H68.6804V17.1308L66.1689 15.1691V15.1691ZM65.8264 24.9213H64.2567V20.9583H65.8264V24.9213ZM65.8264 20.2333H64.2567V17.7479H65.8264V20.2333ZM68.0799 24.9213H66.5103V20.9583H68.0799V24.9213ZM68.0799 20.2333H66.5103V17.7479H68.0799V20.2333Z" stroke="#282828" stroke-width="0.7" stroke-miterlimit="10"/>
<path d="M58.4863 3.65487V3.64984" stroke="#282828" stroke-width="0.7" stroke-miterlimit="10"/>
<path d="M39.3463 20.5162L41.5525 18.7597V29.0487H7.09375L18.4451 14.9322H18.5235V12.5429L19.0044 11.4982L19.4865 12.5429V14.9322H43.162L38.1865 18.8926L39.3463 20.5162Z" stroke="#282828" stroke-width="0.7" stroke-miterlimit="10"/>
<path d="M51.332 51.457H64.7912" stroke="#282828" stroke-width="0.7" stroke-miterlimit="10"/>
<path d="M51.0293 52.157H65.0914" stroke="#282828" stroke-width="0.7" stroke-miterlimit="10"/>
<path d="M50.3477 53.7411H65.8548" stroke="#282828" stroke-width="0.7" stroke-miterlimit="10"/>
<path d="M50.0762 54.3713H66.0542" stroke="#282828" stroke-width="0.7" stroke-miterlimit="10"/>
<path d="M49.3672 56.0133H66.7529" stroke="#282828" stroke-width="0.7" stroke-miterlimit="10"/>
<path d="M49.1133 56.6028H67.0085" stroke="#282828" stroke-width="0.7" stroke-miterlimit="10"/>
<path d="M48.4297 58.1896H67.6903" stroke="#282828" stroke-width="0.7" stroke-miterlimit="10"/>
<path d="M62.6331 33.6591H53.5117V49.9228H62.6331V33.6591Z" stroke="#282828" stroke-width="0.7" stroke-miterlimit="10"/>
<path d="M61.6205 34.7458H54.582V49.9373H61.6205V34.7458Z" stroke="#282828" stroke-width="0.7" stroke-miterlimit="10"/>
<path d="M58.1016 34.7538V49.9307" stroke="#282828" stroke-width="0.7" stroke-miterlimit="10"/>
<path d="M94.0781 37.8325V34.4722H96.1996V37.8325" stroke="#282828" stroke-width="0.7" stroke-miterlimit="10"/>
<path d="M60.9106 35.9919H58.7891V39.3522H60.9106V35.9919Z" stroke="#282828" stroke-width="0.7" stroke-miterlimit="10"/>
<path d="M57.3578 35.9919H55.2363V39.3522H57.3578V35.9919Z" stroke="#282828" stroke-width="0.7" stroke-miterlimit="10"/>
</g>
<defs>
<clipPath id="clip0_342_47">
<rect width="103.254" height="58.8659" fill="white" transform="translate(7)"/>
</clipPath>
</defs>
</svg>
