<svg width="317" height="244" viewBox="0 0 317 244" fill="none" xmlns="http://www.w3.org/2000/svg">
<g clip-path="url(#clip0_237_798)">
<path d="M181.779 94.08C183.479 96.26 186.729 96.64 189.379 95.85C192.029 95.06 194.279 93.34 196.629 91.89C198.979 90.44 201.569 89.2 204.329 89.02C207.089 88.84 210.059 89.9 211.579 92.21C216.109 99.12 206.869 100.12 202.679 101.13C191.649 103.79 184.339 114.58 173.739 118.63C172.239 119.2 170.549 119.63 169.059 119.03C164.479 117.19 168.119 102.56 168.989 99.1C170.899 91.42 170.689 82.39 175.499 76.11C179.329 71.1 192.669 69.43 193.799 62.72C194.049 61.22 193.789 59.68 193.759 58.15C193.559 48.05 202.439 39.02 206.829 30.52C206.979 30.22 207.219 29.88 207.549 29.9C207.859 29.92 208.049 30.26 208.159 30.55C209.939 35.06 209.189 40.09 212.369 44.1C214.089 46.27 216.529 47.74 218.969 49.05C220.809 50.04 222.729 50.98 224.799 51.27C227.239 51.6 229.659 50.98 231.929 50.13C234.149 49.29 236.409 48.55 238.659 47.81C238.419 51.97 235.279 55.82 233.129 59.22C229.649 64.71 225.819 72.95 219.849 76.14C217.459 77.42 214.379 77.7 212.079 76.26" stroke="#282828" stroke-width="0.88" stroke-miterlimit="10"/>
<path d="M209.811 53.93C207.931 54.34 205.901 54.09 204.081 53.09C202.261 52.09 200.971 50.5 200.311 48.7C202.191 48.29 204.221 48.54 206.041 49.54C207.861 50.54 209.151 52.13 209.811 53.93Z" fill="white" stroke="#231F20" stroke-width="0.48" stroke-miterlimit="10"/>
<path d="M205.059 53.34C206.18 53.34 207.089 52.4312 207.089 51.31C207.089 50.1889 206.18 49.28 205.059 49.28C203.938 49.28 203.029 50.1889 203.029 51.31C203.029 52.4312 203.938 53.34 205.059 53.34Z" fill="#231F20"/>
<path d="M226.609 63.18C224.729 63.59 222.699 63.34 220.879 62.34C219.059 61.34 217.769 59.75 217.109 57.95C218.989 57.54 221.019 57.79 222.839 58.79C224.659 59.79 225.949 61.38 226.609 63.18Z" fill="white" stroke="#231F20" stroke-width="0.48" stroke-miterlimit="10"/>
<path d="M221.86 62.59C222.981 62.59 223.89 61.6812 223.89 60.56C223.89 59.4389 222.981 58.53 221.86 58.53C220.739 58.53 219.83 59.4389 219.83 60.56C219.83 61.6812 220.739 62.59 221.86 62.59Z" fill="#231F20"/>
<path d="M220.81 70.26L215.73 65.84" stroke="#231F20" stroke-width="0.48" stroke-miterlimit="10" stroke-linecap="round"/>
<path d="M223.4 68.5501L216.6 64.5601" stroke="#231F20" stroke-width="0.48" stroke-miterlimit="10" stroke-linecap="round"/>
<path d="M198.439 53.9301L206.039 58.0401" stroke="#231F20" stroke-width="0.48" stroke-miterlimit="10" stroke-linecap="round"/>
<path d="M197.859 56.8101L205.339 59.3101" stroke="#231F20" stroke-width="0.48" stroke-miterlimit="10" stroke-linecap="round"/>
<path d="M214.59 110.77C217.36 115.35 223.73 116.38 228.94 115.17C234.15 113.96 238.82 111.06 243.94 109.48C250.44 107.47 257.6 107.69 263.96 110.08C264.93 110.45 265.94 110.87 266.97 110.75C269 110.5 270.22 108.11 269.83 106.1C269.44 104.09 267.89 102.52 266.23 101.33C257.25 94.93 245.01 97.2 234.13 95.39C230.9 94.85 227.64 93.89 225.06 91.87C220.74 88.49 219.82 81.31 219.98 76.11" stroke="#282828" stroke-width="0.88" stroke-miterlimit="10"/>
<path d="M218.809 151.63C214.269 164.53 218.739 180.52 232.749 185.37C228.689 189.01 226.539 194.68 227.159 200.1C227.619 204.14 229.929 208.31 233.809 209.53C237.689 210.75 242.679 207.49 242.019 203.48C241.819 202.24 241.149 201.13 240.829 199.92C239.799 196.06 242.309 192.27 244.359 188.85C251.109 177.58 253.629 162.6 246.599 151.51C243.139 146.05 237.799 142.11 233.299 137.48C226.869 130.86 225.869 124.5 225.129 115.71" stroke="#282828" stroke-width="0.88" stroke-miterlimit="10"/>
<path d="M176.45 117.26C176.45 117.26 168.92 153.54 196.01 173.11" stroke="#282828" stroke-width="0.88" stroke-miterlimit="10"/>
<path d="M228.2 182.51C221.9 191.44 216.01 201.78 218.55 213.09C218.96 214.89 219.51 216.78 218.97 218.55C218.5 220.08 217.29 221.25 216.13 222.35C213.06 225.25 209.99 228.15 206.92 231.05C204.93 232.93 202.87 234.85 200.3 235.8C196.92 237.05 192.58 236 191.96 231.99C191.24 227.34 197.87 224.06 200.37 220.93C201.14 219.97 201.9 218.85 201.81 217.62C201.69 215.98 200.16 214.86 198.84 213.87C184.03 202.83 182.45 183.41 189.61 167.56" stroke="#282828" stroke-width="0.88" stroke-miterlimit="10"/>
<path d="M250.98 171.12C262.99 171.2 275.44 171.2 286.4 166.27C301.31 159.57 311.18 144.5 315.28 128.68C315.96 126.06 316.5 123.3 315.91 120.66C315.32 118.02 313.3 115.52 310.62 115.16C308.15 114.83 305.74 116.37 304.28 118.38C302.82 120.39 302.09 122.83 301.29 125.19C297.74 135.65 291.79 149.78 281.78 155.54C277.09 158.24 254.26 162.73 248.6 154.34" stroke="#282828" stroke-width="0.88" stroke-miterlimit="10"/>
<path d="M89.0995 66.99C89.4295 65.5 90.2395 64.17 90.8395 62.77C94.7795 53.47 89.8995 41.79 88.9995 32.26C88.9695 31.92 88.8795 31.52 88.5595 31.42C88.2595 31.32 87.9595 31.57 87.7495 31.8C84.4195 35.32 83.2395 40.27 78.7895 42.81C76.3895 44.19 73.5695 44.64 70.8195 44.95C68.7395 45.18 66.6095 45.34 64.5795 44.84C62.1895 44.24 60.1795 42.77 58.3895 41.12C56.6395 39.51 54.8195 37.99 53.0095 36.46C51.6795 40.41 53.1695 45.16 53.8995 49.11C55.0895 55.5 55.5695 64.57 59.9195 69.76C61.6695 71.84 64.4195 73.24 67.0895 72.77" stroke="#231F20" stroke-width="0.88" stroke-miterlimit="10" stroke-linecap="round"/>
<path d="M77.5 50.22C79.09 51.3 81.07 51.83 83.13 51.57C85.19 51.31 86.98 50.33 88.27 48.9C86.68 47.82 84.7 47.29 82.64 47.55C80.58 47.81 78.79 48.79 77.5 50.22Z" fill="white" stroke="#231F20" stroke-width="0.48" stroke-miterlimit="10"/>
<path d="M82.8796 51.59C84.0007 51.59 84.9096 50.6812 84.9096 49.56C84.9096 48.4389 84.0007 47.53 82.8796 47.53C81.7585 47.53 80.8496 48.4389 80.8496 49.56C80.8496 50.6812 81.7585 51.59 82.8796 51.59Z" fill="#231F20"/>
<path d="M58.4688 52.55C60.0588 53.63 62.0387 54.16 64.0987 53.9C66.1587 53.64 67.9487 52.66 69.2387 51.23C67.6487 50.15 65.6687 49.62 63.6087 49.88C61.5487 50.14 59.7587 51.12 58.4688 52.55Z" fill="white" stroke="#231F20" stroke-width="0.48" stroke-miterlimit="10"/>
<path d="M63.8503 53.92C64.9714 53.92 65.8803 53.0111 65.8803 51.89C65.8803 50.7688 64.9714 49.86 63.8503 49.86C62.7292 49.86 61.8203 50.7688 61.8203 51.89C61.8203 53.0111 62.7292 53.92 63.8503 53.92Z" fill="#231F20"/>
<path d="M61.209 61.2801L67.569 59.0701" stroke="#231F20" stroke-width="0.88" stroke-miterlimit="10" stroke-linecap="round"/>
<path d="M59.4492 58.7301L67.2492 57.5601" stroke="#231F20" stroke-width="0.88" stroke-miterlimit="10" stroke-linecap="round"/>
<path d="M88.0488 54.4501L79.4688 55.4401" stroke="#231F20" stroke-width="0.88" stroke-miterlimit="10" stroke-linecap="round"/>
<path d="M87.5204 57.34L79.6504 56.87" stroke="#231F20" stroke-width="0.88" stroke-miterlimit="10" stroke-linecap="round"/>
<path d="M66.4896 72.84C56.0396 74.49 45.4096 71.48 36.4896 66.01C28.4896 61.11 21.7896 54.31 16.1296 46.84C14.5396 44.74 12.9896 42.55 10.8796 40.97C7.3696 38.34 1.6496 37.85 0.589601 42.9C-0.160399 46.49 2.1796 51.23 3.7796 54.32C8.1196 62.71 16.0496 68.58 23.8496 73.91C35.6596 81.97 52.0996 92.36 67.2496 91.52" stroke="#231F20" stroke-width="0.88" stroke-miterlimit="10" stroke-linecap="round"/>
<path d="M61.21 91.55C61.21 91.55 64.6 116.68 51 119.67" stroke="#231F20" stroke-width="0.88" stroke-miterlimit="10" stroke-linecap="round"/>
<path d="M43.5 167.57C39.16 164.73 34.87 161.7 31.54 157.72C28.21 153.74 25.91 148.7 26.15 143.52C26.43 137.57 30.02 132.2 34.45 128.22C39.67 123.53 46.3 120.29 53.28 119.64C63.95 118.65 80.41 126.22 83.58 137.4C84.32 140.03 83.43 143.28 80.97 144.48C75.99 146.91 71.21 140.54 67.96 137.75C64.46 134.76 60.09 132.6 55.49 132.39C50.89 132.18 46.08 134.13 43.47 137.93C40.86 141.73 40.93 147.36 44.12 150.68" stroke="#231F20" stroke-width="0.88" stroke-miterlimit="10" stroke-linecap="round"/>
<path d="M71.2404 178.36C74.2204 189.19 62.7804 201.48 53.7204 205.56C51.6904 206.47 49.4804 207.24 48.0504 208.94C45.7804 211.66 46.3304 215.67 47.0104 219.14C47.6604 222.46 48.3004 225.78 48.9504 229.1C49.5704 232.3 50.1804 235.72 48.9704 238.75C47.7604 241.78 43.9404 243.99 41.1304 242.33C38.2204 240.61 38.3604 236.48 38.3804 233.1C38.4004 228.67 37.5704 224.24 35.9304 220.13C34.1904 215.74 31.4904 211.14 32.8104 206.6C34.3404 201.35 40.5704 198.81 42.8304 193.83C44.7004 189.72 43.4604 184.93 42.2004 180.59C41.0404 176.61 36.8104 168.38 38.8604 164.48" stroke="#231F20" stroke-width="0.88" stroke-miterlimit="10" stroke-linecap="round"/>
<path d="M51.959 159.03C59.859 169.56 70.259 179.46 82.359 184.9C88.639 187.72 95.739 189.52 100.419 194.57C105.259 199.8 106.629 207.66 111.849 212.52C117.469 217.75 126.129 218.33 133.399 217.84C134.159 217.79 134.969 217.7 135.549 217.21C136.249 216.62 136.409 215.6 136.339 214.69C136.149 212.38 134.699 210.32 132.879 208.87C128.989 205.76 123.829 204.91 120.379 201.1C116.589 196.92 114.319 191.51 112.549 186.22C109.989 178.56 108.049 170.4 102.919 164.16C99.759 160.31 95.539 157.42 92.409 153.54C89.279 149.66 87.339 144.1 89.679 139.7" stroke="#231F20" stroke-width="0.88" stroke-miterlimit="10" stroke-linecap="round"/>
<path d="M103.109 88.3201C104.349 98.8201 105.289 109.7 103.679 120.21C102.099 130.53 97.5989 140.81 89.3789 147.26" stroke="#231F20" stroke-width="0.88" stroke-miterlimit="10" stroke-linecap="round"/>
<path d="M89.0996 66.9901C92.7696 64.7201 97.3496 66.1901 100.12 69.2001C102.59 71.8801 103.81 75.4501 104.91 78.9201C106.01 82.3901 107.1 85.9801 109.36 88.8301C112.21 92.4101 116.58 94.4101 120.89 95.9201C125.2 97.4301 129.71 98.6401 133.54 101.14C137.37 103.64 140.51 107.8 140.3 112.37C140.23 113.8 139.78 115.3 138.64 116.17C137.08 117.36 134.78 116.92 133.09 115.91C131.4 114.9 130.06 113.39 128.38 112.36C120.86 107.73 111.78 111.72 104.61 105.43" stroke="#231F20" stroke-width="0.88" stroke-miterlimit="10" stroke-linecap="round"/>
<path d="M68.8109 0.280029C68.8109 0.280029 99.7009 1.69003 86.2809 5.75003C81.7909 7.11003 75.6009 8.67003 69.3909 9.99003C57.0509 12.61 44.5609 14.28 44.8709 11.58C45.3309 7.52003 73.9309 2.70003 73.9309 2.70003C73.9309 2.70003 73.9309 15.21 79.1309 12.95C84.3409 10.69 73.0409 11.04 73.0409 11.04C73.0409 11.04 53.2709 14.22 50.9809 18.28C48.6909 22.34 74.2809 20.22 74.2809 20.22C74.2809 20.22 62.2709 9.45003 54.1609 9.81003C46.0509 10.17 74.4609 16.69 74.4609 16.69C74.4609 16.69 94.1109 3.76003 82.7609 3.45003C71.4109 3.14003 64.5809 8.39003 64.5809 8.39003C64.5809 8.39003 94.9909 9.80003 89.6709 14.57C84.3509 19.34 61.5809 17.57 61.5809 17.57" stroke="#CC7722" stroke-width="0.55" stroke-miterlimit="10"/>
<path d="M239.53 9.16996C239.53 9.16996 266.88 23.59 253.01 21.56C248.36 20.88 242.11 19.66 235.92 18.2C223.64 15.32 211.63 11.52 213.06 9.19996C215.21 5.71996 243.13 13.53 243.13 13.53C243.13 13.53 237.8 24.85 243.48 25.02C249.16 25.19 238.78 20.71 238.78 20.71C238.78 20.71 219.54 15.17 215.73 17.87C211.92 20.57 235.99 29.54 235.99 29.54C235.99 29.54 229.7 14.69 222.21 11.55C214.72 8.40996 237.65 26.42 237.65 26.42C237.65 26.42 260.93 23.08 250.79 17.97C240.65 12.86 232.23 14.71 232.23 14.71C232.23 14.71 259.14 28.93 252.3 30.98C245.46 33.03 225.61 21.74 225.61 21.74" stroke="#CC7722" stroke-width="0.55" stroke-miterlimit="10"/>
</g>
<defs>
<clipPath id="clip0_237_798">
<rect width="316.6" height="243.34" fill="white"/>
</clipPath>
</defs>
</svg>
