<svg width="281" height="171" viewBox="0 0 281 171" fill="none" xmlns="http://www.w3.org/2000/svg">
<g clip-path="url(#clip0_420_639)">
<path d="M74.0996 114.11C79.8496 115.6 86.4196 116.39 93.4296 115.57" stroke="#231F20" stroke-miterlimit="10" stroke-linecap="round"/>
<path d="M99.8809 51.1801C104.331 61.2701 107.981 71.7101 106.191 81.9401" stroke="#231F20" stroke-miterlimit="10" stroke-linecap="round"/>
<path d="M55.9609 96.7199L66.1009 90.3199" stroke="#231F20" stroke-miterlimit="10" stroke-linecap="round"/>
<path d="M51.8691 93.0199L64.9291 87.8199" stroke="#231F20" stroke-miterlimit="10" stroke-linecap="round"/>
<path d="M99.7693 74.02L85.2793 79.21" stroke="#231F20" stroke-miterlimit="10" stroke-linecap="round"/>
<path d="M100.02 79.26L86.1699 81.63" stroke="#231F20" stroke-miterlimit="10" stroke-linecap="round"/>
<path d="M96.9609 111.82C110.661 101.62 127.621 96.9399 144.561 96.6299C153.061 96.4699 161.581 97.3699 169.891 99.1499C178.891 101.07 187.261 105.08 196.231 106.85C201.131 107.82 206.331 107.84 210.991 106.06C215.651 104.28 219.701 100.5 221.021 95.6899" stroke="#231F20" stroke-miterlimit="10" stroke-linecap="round"/>
<path d="M185.631 62.1801C180.871 63.8701 176.061 65.5901 171.831 68.3601C167.601 71.1301 163.951 75.0801 162.531 79.9301C160.651 86.3501 163.261 92.5901 166.911 97.8201" stroke="#231F20" stroke-linecap="round" stroke-linejoin="round"/>
<path d="M49.8496 81.56C49.8496 81.56 57.7496 84.02 63.2196 78.24" stroke="#231F20" stroke-linecap="round" stroke-linejoin="round"/>
<path d="M81.1309 73.1C81.1309 73.1 89.3809 73.71 93.4109 66.85" stroke="#231F20" stroke-linecap="round" stroke-linejoin="round"/>
<path d="M234.049 88.12C234.089 92.62 233.339 97.32 231.629 102.22C229.469 108.41 225.599 114.14 220.119 117.74C214.249 121.59 206.949 122.75 199.939 122.41C192.929 122.07 186.069 120.32 179.219 118.79C163.089 115.17 146.159 112.65 130.149 116.78C121.839 118.92 114.089 122.79 105.909 125.38C103.519 126.14 101.029 126.79 98.5291 126.52C96.0291 126.25 93.5191 124.9 92.5191 122.6C90.5691 118.12 94.5491 115.89 96.0591 112.39C97.2791 109.55 95.5791 106.45 92.8891 104.59C87.9591 101.17 80.5491 103.31 76.3391 109.39C75.2891 110.89 74.5391 112.51 74.0791 114.12C62.9091 111.25 51.0091 105.56 45.2091 95.14C41.3491 88.22 39.7291 80.37 36.5591 73.15C33.6891 66.61 29.1891 58.96 29.8991 51.58C33.6691 53.51 37.4391 55.4 41.1291 57.48C44.8791 59.61 48.9791 61.36 53.3591 61.43C57.0891 61.49 60.7191 60.35 64.2291 59.11C68.8891 57.46 73.5891 55.53 77.1991 52.17C83.8791 45.96 83.9291 36.91 88.2791 29.45C88.5691 28.96 88.9791 28.43 89.5491 28.46C90.1391 28.52 90.4591 29.18 90.6391 29.75C92.9291 36.58 96.6091 43.8 99.8691 51.2C99.4591 50.28 107.169 44.08 107.819 43.53C112.759 39.32 118.129 35.64 123.839 32.55C135.789 26.09 149.469 22.22 163.119 23.75C176.879 25.28 189.529 32.05 200.869 39.98C216.769 51.1 233.859 67.28 234.039 88.15L234.049 88.12Z" stroke="#231F20" stroke-miterlimit="10"/>
<path d="M96.9596 111.82C96.1696 112.39 96.0696 112.81 95.6096 113.29C94.9396 114 93.8696 115.74 93.4196 116.47C91.7596 119.2 91.6896 121.1 93.0096 123.29C88.6896 128.17 82.1296 129.69 77.6296 126.57C73.9196 124 72.6796 119.01 74.0796 114.11C74.5296 112.49 75.2896 110.88 76.3296 109.38C80.5396 103.3 87.9496 101.16 92.8796 104.58C95.2496 106.22 96.6196 108.85 96.9396 111.82H96.9596Z" fill="#F5F1EC" stroke="#231F20" stroke-miterlimit="10"/>
<path d="M74.2109 121.97C74.2109 121.97 78.0209 113.57 82.5009 113.64" stroke="#231F20" stroke-linecap="round" stroke-linejoin="round"/>
<path d="M79.1602 127.4C79.1602 127.4 80.3501 120.34 85.7701 117.87" stroke="#231F20" stroke-linecap="round" stroke-linejoin="round"/>
<path d="M65.9706 106.2C72.3406 109.95 75.0406 117.19 72.0006 122.37C68.9606 127.54 61.3206 128.7 54.9506 124.95C48.5806 121.2 45.8906 113.97 48.9306 108.8C51.9706 103.63 59.6006 102.46 65.9806 106.2H65.9706Z" fill="#F5F1EC" stroke="#231F20" stroke-miterlimit="10"/>
<path d="M63.5898 114.87C63.5898 114.87 71.5198 119.57 70.9598 124.02" stroke="#231F20" stroke-linecap="round" stroke-linejoin="round"/>
<path d="M57.6602 119.2C57.6602 119.2 64.5502 121.16 66.4102 126.81" stroke="#231F20" stroke-linecap="round" stroke-linejoin="round"/>
<path d="M196.321 169.73L3.71055 156.75L0.560547 127.14L193.171 140.11L196.321 169.73Z" stroke="#231F20" stroke-miterlimit="10"/>
<path d="M193.17 140.11L273.2 84.3199V91.8899L199.12 143.58L201.33 161.55L279.82 108.28V117.81L196.32 169.73" stroke="#231F20" stroke-miterlimit="10"/>
<path d="M234.051 84.3199H273.201" stroke="#231F20" stroke-miterlimit="10"/>
<path d="M267.76 95.6801L269.91 115" stroke="#231F20" stroke-miterlimit="10"/>
<path d="M199.881 149.79L268.561 102.95" stroke="#231F20" stroke-miterlimit="10"/>
<path d="M0.560547 127.14L48.7405 100.1" stroke="#231F20" stroke-miterlimit="10"/>
<path d="M279.819 107.11L269.909 108.69L200.699 155.25" stroke="#231F20" stroke-miterlimit="10"/>
<path d="M47.37 3.72001C47.37 3.72001 91.34 -4.80999 73.84 5.48001C67.98 8.92001 59.8 13.22 51.5 17.19C35.01 25.08 18.01 31.68 17.52 27.77C16.79 21.9 55.41 5.38001 55.41 5.38001C55.41 5.38001 59.66 23 66.23 18.04C72.8 13.09 57.01 17.43 57.01 17.43C57.01 17.43 30.26 28.63 28.41 35.13C26.56 41.63 61.88 29.93 61.88 29.93C61.88 29.93 41.31 18.86 30 22.12C18.7 25.38 60.92 24.9 60.92 24.9C60.92 24.9 84.18 0.0100098 68.09 3.44001C52 6.87001 44.17 16.59 44.17 16.59C44.17 16.59 87.46 8.23001 81.59 16.75C75.72 25.27 43.06 30.53 43.06 30.53" stroke="#CC7722" stroke-width="0.8" stroke-miterlimit="10"/>
</g>
<defs>
<clipPath id="clip0_420_639">
<rect width="280.32" height="170.27" fill="white"/>
</clipPath>
</defs>
</svg>
