<svg width="167" height="106" viewBox="0 0 167 106" fill="none" xmlns="http://www.w3.org/2000/svg">
<g clip-path="url(#clip0_196_820)">
<path d="M29.5149 28.3735C24.6838 20.2389 29.8073 12.9679 36.9913 10.6696C44.9828 8.09277 53.2388 6.282 61.3835 4.16478C73.1758 1.10039 85.2048 -0.431801 97.3591 0.111431C110.307 0.696451 123.227 1.78292 136.119 3.07832C143.094 3.77477 149.847 5.76662 156.126 9.09566C161.862 12.1461 166.136 16.2552 166.888 23.0804C167.445 28.2202 165.83 30.4489 160.915 32.0229C160.108 32.2736 159.258 33.2347 158.966 34.0565C157.49 38.2491 157.045 42.4975 158.507 46.8573C160.247 52.0389 160.692 57.4016 160.484 62.8339C160.33 66.943 158.493 70.2999 155.959 73.3085C153.912 75.7322 151.128 76.958 147.926 76.944C134.142 76.8604 120.846 79.2841 107.926 84.1453C104.961 85.2597 101.689 85.9004 98.5147 86.1233C92.5002 86.5411 86.5135 87.9201 80.4294 86.6665C79.6637 86.5133 78.5777 87.2237 77.8677 87.8087C77.0045 88.5191 76.2944 89.4523 75.6679 90.3855C72.1734 95.7622 66.7715 97.6844 60.8405 98.8405C49.8 101.013 38.7595 103.228 27.7607 105.638C19.2541 107.49 12.2511 102.42 10.4551 95.2189C9.13244 89.9398 8.86791 84.3961 8.06041 78.9777C7.51743 75.3422 6.96053 71.6928 6.12518 68.113C5.77712 66.6087 5.02531 64.8675 3.88367 63.9343C-1.40687 59.5884 -0.627214 54.5879 2.24081 48.4452C6.02773 40.3246 12.9611 35.3798 20.883 31.7443C23.6118 30.4907 26.4938 29.5714 29.5149 28.4152V28.3735ZM60.2001 6.95059C60.214 7.17345 60.2418 7.39632 60.2557 7.61918C61.1607 7.6749 62.0657 7.75847 62.9706 7.7724C71.8253 7.93955 80.4851 9.24888 88.9639 11.8815C94.5468 13.6087 99.3361 16.5059 102.956 21.1304C105.323 24.153 104.975 26.8273 102.023 29.3206C101.592 29.6828 101.146 30.0728 100.659 30.3374C96.6212 32.5522 95.758 36.0484 96.5516 40.2689C97.1642 43.5282 97.9299 46.7598 98.3337 50.047C99.0855 56.0505 99.7538 62.0678 100.227 68.113C100.645 73.5314 99.1551 78.5737 95.939 83.6857C97.6376 83.5603 98.7653 83.6439 99.7955 83.3792C103.457 82.4321 107.133 81.5406 110.711 80.3288C118.897 77.543 127.209 75.3561 135.855 74.7432C140.101 74.4368 144.361 74.3254 148.622 74.1025C151.044 73.9771 153.035 72.8767 154.455 70.9963C156.307 68.5587 157.657 65.9122 157.657 62.6807C157.671 57.7359 157.588 52.8189 155.945 48.083C154.33 43.4029 154.553 38.7784 156.265 34.1819C156.474 33.6108 156.53 32.984 156.738 32.0368C152.882 32.2318 149.318 32.4129 145.74 32.6079C139.697 32.9561 133.655 33.2765 127.613 33.6943C121.57 34.1122 115.542 34.6555 109.5 35.0594C108.302 35.143 107.077 34.7808 105.866 34.6137C105.838 34.2376 105.81 33.8615 105.768 33.4854C107.119 33.1511 108.469 32.6218 109.848 32.4964C113.802 32.1482 117.825 32.2318 121.751 31.6746C134.073 29.9335 146.464 29.8499 158.869 29.6271C162.92 29.5574 164.744 27.6213 164.243 23.5401C163.769 19.7235 162.085 16.4641 158.91 14.1798C154.01 10.6418 148.58 8.17635 142.621 7.15953C136.286 6.08699 129.924 5.09803 123.533 4.49908C108.636 3.09225 93.6836 1.97792 78.7448 3.69119C72.5214 4.40158 66.3955 5.8502 60.214 6.96452L60.2001 6.95059ZM59.7963 47.8463C59.7963 45.924 59.8938 43.9322 59.7824 41.9543C59.5318 37.7616 57.2346 35.0176 53.1274 34.3072C46.7231 33.1929 40.3188 33.0258 33.998 34.9897C25.728 37.5527 17.7504 40.8121 10.831 46.1191C8.2414 48.097 5.94419 50.6042 3.9672 53.2089C1.9206 55.9112 2.01805 58.1816 4.18996 60.1317C8.64515 64.1432 9.77287 69.4502 10.4829 74.9382C11.2347 80.6631 11.5132 86.4576 12.5017 92.1267C13.7825 99.4812 19.3237 104.719 28.5264 102.601C39.3163 100.136 50.2176 98.1719 61.0493 95.8457C63.7085 95.2746 66.5487 94.62 68.7624 93.1714C74.1643 89.6473 74.9579 87.2933 72.9391 82.3903C72.2987 80.8163 71.7279 79.1866 70.8925 77.724C68.7484 73.9353 66.6183 70.1188 64.2376 66.4833C60.5203 60.8003 58.4319 54.7968 59.8102 47.8602L59.7963 47.8463ZM81.1116 83.9364C84.2163 83.9782 87.0147 84.1035 89.7992 84.02C92.0686 83.9503 93.5722 82.7385 94.6164 80.6352C96.5655 76.7212 97.3452 72.626 97.3313 68.2802C97.3034 59.6859 95.7302 51.3146 94.0316 42.9572C92.7508 36.6194 93.3077 31.1314 99.6842 27.5099C102.371 25.9916 102.316 24.5987 100.283 22.2029C96.9832 18.3306 92.7647 15.9487 87.9615 14.4305C80.8749 12.1879 73.5795 11.1572 66.2006 10.5721C55.8702 9.76426 45.7764 11.2129 35.8775 13.9708C30.8654 15.3637 28.7492 21.7989 31.4502 26.0752C32.2577 27.3427 33.0791 27.6074 34.4853 27.2313C37.228 26.493 39.9846 25.7827 42.783 25.3369C49.076 24.3201 55.3968 24.0972 61.6758 25.5041C66.1867 26.5209 69.361 29.9056 69.904 34.5162C70.1825 36.8423 70.1268 39.266 69.8066 41.5782C69.0547 47.2194 69.6256 52.5403 72.8417 57.3876C73.6213 58.5716 74.3592 59.7974 75.0275 61.0371C77.3804 65.4665 79.789 69.8681 82.0026 74.3671C83.1304 76.6654 83.1443 79.1309 81.933 81.4988C81.6407 82.0699 81.5153 82.7106 81.1116 83.9225V83.9364ZM8.15786 44.4754C14.9381 39.8231 22.3727 36.6612 30.0161 33.7779C37.7153 30.8807 45.4562 30.2121 53.4337 31.6886C58.8078 32.6775 61.9404 36.0623 62.539 41.4668C62.7757 43.6118 62.6922 45.8265 62.4276 47.9716C61.7454 53.4318 62.5808 58.4602 65.5324 63.21C69.7091 69.9238 74.3035 76.4426 76.545 84.2568C80.0953 81.1785 80.7496 78.8802 79.2599 74.9522C78.8283 73.81 78.3271 72.6678 77.7284 71.5953C75.1806 67.0544 72.605 62.5414 69.9736 58.0423C67.2448 53.3761 66.1728 48.4313 66.855 43.0407C67.1752 40.5196 67.1891 37.9427 67.2031 35.3937C67.217 31.8 65.1425 29.7246 62.0239 28.3177C58.8635 26.883 55.5917 27.2591 52.2782 27.2173C41.1402 27.1059 30.8376 30.4767 20.7438 34.6137C15.7317 36.6752 11.4853 40.0321 8.15786 44.4615V44.4754Z" fill="#CC7722"/>
</g>
<defs>
<clipPath id="clip0_196_820">
<rect width="167" height="106" fill="white"/>
</clipPath>
</defs>
</svg>
