<svg width="231" height="165" viewBox="0 0 231 165" fill="none" xmlns="http://www.w3.org/2000/svg">
<path d="M101.217 46.097C99.4384 32.7238 91.3819 19.5787 81.1783 10.9743C70.8316 2.2662 57.7653 -0.47063 44.5764 1.31246C37.1538 2.3284 30.0583 4.71276 24.0057 9.27415C18.9346 13.0891 13.5772 17.4017 9.85566 22.6058C1.30839 34.5898 -2.10642 50.0985 1.30839 64.4669C6.80891 89.1606 35.3339 102.554 58.8082 100.419C71.7313 99.2578 83.3253 93.4732 91.3205 83.0027C95.3692 77.7157 98.416 72.0761 100.277 65.6487C102.138 59.2213 102.076 52.6902 101.197 46.097H101.217ZM93.3858 73.1128C87.7217 83.8321 78.5814 92.4365 66.7829 95.5051C43.2881 101.621 12.5139 90.84 4.86635 65.5658C0.981225 52.7732 4.41649 36.9742 11.9005 26.2549C20.2637 14.3124 32.144 8.05087 45.9259 4.67129C45.9668 4.67129 46.0077 4.65056 46.0282 4.62983C54.9026 3.59315 64.3087 4.7957 71.8745 8.98388C82.0371 14.6234 89.8892 25.1353 94.5104 35.7094C99.602 47.3617 99.3361 61.8752 93.3858 73.1335V73.1128Z" fill="#CC7722"/>
<path d="M57.2941 29.6968C55.5764 27.2295 53.9815 24.7 52.2843 22.2534C51.4255 21.0094 50.1168 19.8276 48.6446 20.9057C46.9474 22.1497 46.109 25.6122 46.0681 27.5612C46.0068 30.3395 46.702 32.8483 49.1762 34.1337C49.9123 34.5069 50.5462 33.7605 50.2395 33.0556C49.5034 31.3347 48.9922 29.448 48.8695 27.5612C48.7877 26.4416 49.074 25.3634 49.3807 24.306C49.5034 23.8914 49.6261 23.4974 49.7488 23.1035C50.2191 22.5437 50.5871 22.6681 50.8121 23.456C51.8754 24.4719 52.5092 26.3379 53.3067 27.5612C54.1246 28.8052 54.9425 29.987 56.1285 30.8993C56.8033 31.4176 57.7848 30.4017 57.3145 29.6968H57.2941Z" fill="#CC7722"/>
<path d="M82.2817 25.0938C80.196 22.8545 75.4521 22.6472 72.5894 22.2533C69.3381 21.8179 66.1892 21.9215 62.9788 21.9215C63.6945 20.8848 64.8191 19.7445 65.2894 19.0188C66.3732 17.3394 67.5387 15.8051 68.2544 13.9184C68.602 13.0061 67.7432 12.3011 66.9662 12.2182C65.3099 12.0316 63.3878 13.3171 61.9769 14.0635C59.8503 15.2038 57.8668 16.904 55.7402 18.1273C55.8016 14.105 55.4744 8.90084 52.5299 6.41281C52.08 6.0396 51.5893 6.06034 51.1599 6.41281C48.6857 8.3825 47.7246 12.9853 46.7431 16.3442C44.1667 14.6648 41.5698 13.089 38.5435 12.2804C37.9709 12.1353 37.2348 12.467 37.1121 13.1098C36.4578 16.4271 40.486 19.6823 42.674 22.3155C41.9174 22.1289 41.1812 21.9215 40.4042 21.7971C38.4412 21.4446 36.4169 21.7556 34.4334 21.6312C30.5687 21.3824 26.745 20.3458 22.8803 19.9518C21.8783 19.8482 21.6943 21.258 22.41 21.7349C24.9455 23.4143 26.8676 25.8402 29.669 27.1256C32.1432 28.266 34.781 28.7636 37.4188 29.2612C36.744 29.5515 36.0692 29.8625 35.4354 30.1942C33.1861 31.3553 30.9981 32.8274 29.1169 34.5483C27.1744 36.3106 25.0682 38.2803 23.6573 40.5195C22.7576 41.9501 21.2649 44.1479 21.408 45.9103C21.4898 46.864 22.3691 47.3823 23.2279 46.9677C26.4382 45.3919 29.3623 43.2564 32.5931 41.6391C35.1695 40.3537 37.7869 39.2133 40.486 38.2803C37.8891 41.2867 36.0488 44.9565 34.4948 48.7093C33.002 52.3169 29.5054 60.403 32.3477 64.1143C35.2922 67.9708 39.1365 60.0713 40.1589 58.3089C42.1832 54.8879 44.2484 51.5083 46.3137 48.108C47.6837 45.8481 49.0537 42.6551 50.8736 40.3951C50.8736 41.3281 50.7305 42.3648 50.8123 43.1112C50.9963 44.8321 51.4052 46.5115 51.8142 48.1909C52.1618 49.663 52.5094 51.1351 52.8775 52.6072C53.6341 55.5514 54.4725 60.5689 57.008 62.58C60.8727 65.6486 61.711 57.8528 61.9769 55.7794C62.4472 52.2547 62.3245 48.7508 62.0382 45.226C61.8542 42.9246 61.0976 40.8305 60.5864 38.6742C64.6556 39.6695 68.8474 41.6184 72.344 43.754C74.3888 44.998 76.4336 46.6359 77.8241 48.6471C78.458 49.5594 78.6011 50.4094 79.7666 50.596C80.7277 50.7412 81.4025 50.057 81.2593 49.0825C80.5641 44.7077 77.6809 40.7683 74.716 37.6583C73.2437 36.124 71.6488 34.6519 69.9107 33.4494C68.7861 32.6615 66.3732 32.0188 64.9623 31.0858C67.9886 29.3234 72.6712 29.1161 75.7997 28.7014C77.9263 28.4111 81.4025 28.7636 82.4862 26.628C82.752 26.1097 82.6907 25.4877 82.2817 25.0523V25.0938ZM74.2457 26.5036C72.344 26.7732 70.4832 27.0634 68.602 27.4781C66.2505 27.9965 64.0421 28.5563 62.1609 30.132C61.7724 30.4637 61.6906 31.2102 61.9769 31.6456C62.529 32.4542 63.0197 32.703 63.8581 33.1384C66.3119 34.4446 68.602 35.5435 70.7491 37.4095C72.8348 39.2133 74.9409 41.4111 76.5154 43.8784C75.2476 42.821 73.8572 41.9294 72.4258 41.1415C68.4793 39.006 63.8581 36.8912 59.4209 36.124C58.4803 35.9581 57.8873 36.6424 58.01 37.5546C58.2758 39.5243 59.1959 41.4111 59.4822 43.443C59.8707 46.242 59.9934 49.2069 59.8912 52.0474C59.8298 54.0793 59.5436 56.0904 59.1755 58.1016L58.8892 59.5322C58.9301 60.9006 58.7052 61.1702 58.2144 60.3408C57.3556 59.8432 56.7831 57.3759 56.4559 56.5051C55.638 54.2037 55.0246 51.8193 54.4316 49.435C53.859 47.175 53.082 44.8528 52.9184 42.4892C52.7957 40.7683 53.4092 39.1718 52.4685 37.6376C52.1618 37.1607 51.4257 36.8497 50.9145 37.2229C48.1336 39.317 46.4364 43.36 44.5961 46.2627C41.6107 51.0107 37.9096 55.6965 35.3127 60.6518C34.781 61.6678 35.2104 62.7874 34.597 61.3775C34.0653 60.1335 34.7606 58.3711 35.006 57.0649C35.4967 54.6184 36.1919 52.1718 37.0712 49.8289C38.8911 45.0187 41.3448 39.939 45.4753 36.746C46.3955 36.0411 45.9252 34.258 44.6165 34.6727C40.5269 35.9581 36.6009 37.3888 32.7158 39.2133C29.9348 40.5195 27.2971 42.116 24.5979 43.5674C25.4567 42.0538 26.8267 40.4573 27.4606 39.7731C29.3828 37.6998 31.3662 35.7508 33.7382 34.1958C35.7012 32.9103 37.7869 31.7078 40.0566 31.1687C41.4062 30.8577 42.3263 30.837 43.2056 29.6551C43.6759 29.0124 43.2056 27.9343 42.449 27.7891C38.7275 27.022 34.8219 27.0634 31.2026 25.8194C28.892 25.0316 27.3993 23.6631 25.8452 22.2325C31.5911 22.9997 37.3575 24.0778 43.1647 23.5595C43.3283 23.7875 43.5941 23.9327 43.9826 23.8912C44.1053 23.8912 44.2075 23.8705 44.3302 23.8497C45.0664 23.7875 45.7412 22.9582 45.2504 22.2325C44.3711 20.947 43.1852 19.8689 42.2241 18.6249C41.7333 17.9821 40.3838 16.5515 39.709 15.2868C42.2241 16.4064 44.4938 17.9614 46.8045 19.4542C47.5201 19.9104 48.4198 19.4542 48.6652 18.6871C49.2173 16.9455 49.749 15.2038 50.2193 13.4622C50.4033 12.7573 50.5669 12.0523 50.7714 11.3681C51.0576 10.3937 50.9758 8.40323 52.1005 9.29477C53.2456 10.1863 53.0002 12.7365 53.1433 14.0842C53.3683 16.1783 53.3887 18.0443 53.266 20.1384C53.2251 20.8848 54.0839 21.6105 54.7996 21.3202C56.7831 20.5324 58.4394 19.1432 60.2592 18.0443C61.2407 17.4431 62.7948 16.3235 64.3079 15.5978C62.4881 18.1273 59.8912 20.4287 59.564 23.3107C59.4822 24.0778 60.2592 24.6998 60.934 24.6998C64.1035 24.762 67.1707 24.4717 70.3401 24.8035C72.0782 24.9901 73.7958 25.2389 75.5134 25.5914C76.2087 25.7365 77.4151 25.8402 78.4989 26.0682C76.9039 26.3585 74.7569 26.4207 74.2252 26.4829L74.2457 26.5036Z" fill="#CC7722"/>
<g clip-path="url(#clip0_318_558)">
<path d="M215.798 68.0812C217.293 68.5271 218.624 68.8785 219.928 69.3244C228.378 72.2298 232.915 80.6758 230.212 89.1623C229.193 92.3515 227.291 95.2569 225.702 98.2434C223.637 102.122 221.124 105.811 219.439 109.851C216.885 115.987 212.945 120.203 206.289 121.703C204.59 122.081 202.933 122.73 201.33 123.433C198.695 124.581 196.725 126.473 195.624 129.162C191.753 138.581 184.389 142.635 174.486 142.676C169.527 142.703 164.678 143.149 160.344 145.797C159.203 146.5 158.089 147.378 157.274 148.419C148.973 159.081 137.82 164.108 124.534 164.987C122.89 165.095 122.455 164.378 123.012 162.797C120.037 163.514 117.619 163.041 115.595 160.77C114.019 159.014 113.489 157.73 114.793 155.257C115.88 153.189 115.513 150.27 115.418 147.743C115.35 146.135 114.684 144.527 114.141 142.96C111.601 135.514 113.448 128.838 117.7 122.595C119.303 120.243 121.45 118.203 122.74 115.703C123.963 113.324 124.832 110.568 125.05 107.919C125.444 103.378 126.34 99.0677 127.916 94.7839C129.044 91.7298 129.968 88.4596 130.199 85.2298C130.756 77.3109 133.989 71.0136 140.197 66.0271C146.283 61.1488 150.875 55.1758 153.103 47.5271C154.57 42.5001 157.926 38.9596 162.721 36.7569C168.672 34.0271 179.703 38.865 182.392 46.1893C183.466 49.0947 184.24 52.1758 184.607 55.2433C185.15 59.7704 186.862 60.4461 191.264 59.4461C193.383 58.9731 195.325 57.7569 197.336 56.8244C198.504 56.2839 199.605 55.5947 200.787 55.0542C207.824 51.8109 215.228 56.1893 215.785 63.9325C215.88 65.2974 215.798 66.6623 215.798 68.0677V68.0812ZM163.007 140.635C167.653 140.27 172.231 139.851 176.809 139.554C183.561 139.108 188.94 136.203 191.481 129.946C194.062 123.581 198.491 119.919 204.957 118.514C210.772 117.243 214.168 113.73 216.342 108.351C217.863 104.554 220.186 101.068 222.142 97.4325C223.745 94.4461 225.62 91.5677 226.87 88.4461C228.527 84.2974 227.59 80.2839 224.9 76.7433C222.047 72.9866 218.04 71.6082 213.462 71.6893C210.038 71.7433 206.615 72.0271 203.354 70.6352C199.333 68.919 196.181 69.6488 193.464 73.3109C190.72 77.0136 186.685 78.419 182.134 77.4866C175.423 76.1082 170.669 79.0542 167.381 84.3244C163.822 89.9866 159.882 95.1352 154.679 99.4596C150.726 102.743 149.476 106.946 151.228 112.338C153.144 118.216 152.75 124.095 147.642 128.865C146.283 130.135 145.835 132.351 144.938 134.108C143.879 136.189 143.186 138.676 141.596 140.243C138.852 142.96 136.747 145.919 135.008 149.338C133.391 152.514 131.285 155.433 129.397 158.46C128.962 159.162 128.582 159.892 128.161 160.622C128.365 160.797 128.555 160.96 128.759 161.135C133.853 158.851 138.947 156.473 142.846 152.324C146.759 148.176 150.386 143.757 154.068 139.392C154.665 138.676 155.222 137.541 155.1 136.703C154.584 132.933 155.521 129.406 156.377 125.824C157.79 119.892 158.89 113.933 156.934 107.878C156.798 107.46 156.649 106.851 156.839 106.541C157.423 105.595 158.034 104.46 158.945 104C159.393 103.77 160.629 104.716 161.308 105.351C161.797 105.824 161.974 106.649 162.246 107.324C164.27 112.338 163.822 117.378 162.585 122.487C162.001 124.878 161.784 127.365 161.404 129.811C162.45 129.311 162.898 128.622 163.455 128.041C166.702 124.662 169.677 120.96 173.304 118.054C178.154 114.162 178.792 113.257 177.04 107.203C176.836 106.5 176.429 105.811 176.374 105.108C176.157 102.108 175.573 99.0407 175.98 96.1217C176.497 92.5136 177.814 89.0271 178.915 85.5136C179.2 84.5947 179.825 83.6352 180.572 83.0542C181.278 82.5001 182.42 82.1082 183.235 82.2704C183.669 82.3515 184.145 83.8515 184.023 84.6217C183.724 86.6893 183.248 88.7704 182.61 90.7569C180.45 97.4461 181.591 103.892 183.832 110.878C186.386 108.351 188.791 106.311 190.774 103.946C194.32 99.6893 199.061 97.2704 203.857 94.865C204.726 94.4325 205.827 94.2028 206.791 94.2569C208.557 94.3379 209.182 95.7028 208.136 97.1352C207.212 98.392 206.194 99.6217 205.025 100.649C197.458 107.257 190 113.987 182.216 120.324C174.866 126.311 168.413 133.027 163.007 140.649V140.635ZM212.592 68.5812C213.312 64.1758 212.633 60.9461 209.508 58.5271C206.642 56.2974 203.803 57.1623 200.963 58.6488C199.007 59.6893 197.051 60.7163 195.067 61.6893C191.671 63.3515 188.18 63.4866 184.566 62.3244C182.732 61.7298 180.844 61.2163 178.942 60.9325C174.663 60.2974 171.062 61.5136 168.59 65.2298C167.218 67.2974 165.914 69.4055 164.705 71.5677C162.613 75.3109 160.059 78.6352 156.472 81.0947C152.668 83.7028 150.087 87.0271 149.272 91.7298C148.525 96.0001 146.107 99.3785 142.249 101.5C139.844 102.824 137.29 103.906 134.736 104.933C132.182 105.96 129.777 107.122 128.826 109.919C127.115 114.973 124.153 119.23 120.825 123.338C117.551 127.378 115.554 132.149 116.247 137.392C116.844 141.946 118.217 146.406 119.29 151.041C119.752 150.649 120.227 150.338 120.567 149.919C123.814 145.919 127.074 141.933 130.212 137.851C130.837 137.027 131.231 135.851 131.299 134.811C131.802 126.743 132.168 118.676 132.63 110.608C132.685 109.716 132.834 108.743 133.269 107.987C134.057 106.635 135.592 106.716 136.353 108.095C136.706 108.716 136.937 109.487 136.95 110.189C137.113 114.946 137.236 119.689 137.29 124.446C137.304 125.946 137.086 127.46 136.937 129.608C137.969 128.689 138.621 128.311 138.988 127.757C141.895 123.297 144.775 118.811 147.587 114.297C147.873 113.851 147.818 113.014 147.615 112.473C145.332 106.365 147.424 101.189 151.908 97.3109C157.151 92.7839 161.512 87.7028 164.963 81.7704C165.234 81.2974 165.615 80.8785 165.982 80.4731C170.275 75.6893 175.206 72.6352 182.066 74.0947C185.15 74.7569 188.153 74.3244 190.503 71.8244C191.318 70.9596 192.31 70.2163 193.03 69.2839C194.796 66.9731 197.173 66.2704 199.89 66.5812C201.615 66.7839 203.3 67.365 205.025 67.6352C207.443 68.0001 209.889 68.2434 212.619 68.5677L212.592 68.5812ZM182.053 57.6488C181.672 55.6758 181.36 53.8785 180.993 52.0812C179.54 45.1623 175.41 40.865 168.386 39.4461C165.506 38.865 161.227 40.6893 159.705 43.1488C158.496 45.0947 158.917 46.7974 160.887 48.0001C161.363 48.2839 161.852 48.5542 162.314 48.8515C166.634 51.6623 167.625 55.5542 164.963 59.9731C163.971 61.6082 162.599 63.0271 161.404 64.5271C159.678 66.6758 157.586 68.6217 156.282 71.0001C153.415 76.2028 149.517 79.8515 143.607 81.2434C140.809 81.9055 139.219 83.8379 138.716 86.6352C138.499 87.8109 138.39 89.0001 138.159 90.1623C137.657 92.6758 137.141 95.1893 136.584 97.6758C136.325 98.7974 135.931 99.892 135.415 101.622C141.08 99.4866 145.224 96.7028 146.215 91.0136C147.166 85.5406 150.182 81.6217 154.584 78.5542C157.926 76.2298 160.29 73.1352 162.246 69.6352C163.672 67.0812 165.248 64.5677 167.041 62.2569C169.487 59.0947 172.829 57.5001 176.931 57.6217C178.575 57.6758 180.232 57.6217 182.094 57.6217L182.053 57.6488ZM127.998 104.433C128.283 104.635 128.582 104.838 128.867 105.027C130.144 103.757 132.005 102.689 132.59 101.162C133.771 98.0136 134.831 94.6217 134.926 91.2974C135.13 83.7974 138.037 78.865 145.753 77.1893C148.022 76.7028 149.775 75.1893 151.133 73.1352C153.456 69.6217 156.01 66.2569 158.51 62.8515C159.705 61.2298 161.213 59.7974 162.232 58.0812C163.835 55.4055 163.142 53.1623 160.548 51.4731C159.176 50.5812 157.803 49.7163 156.513 48.9055C155.086 51.8109 153.864 54.7704 152.234 57.5001C149.462 62.1082 145.753 65.9461 141.529 69.3244C136.651 73.2298 133.989 78.3109 133.717 84.5406C133.541 88.4596 132.644 92.1217 131.082 95.7298C129.859 98.5542 129.017 101.527 127.998 104.433V104.433ZM116.885 157.716C118.841 160.622 119.86 160.933 122.903 159.784C127.984 157.851 130.593 153.622 132.59 149.041C134.165 145.446 135.945 142.068 138.92 139.46C140.713 137.892 141.596 135.973 141.692 133.662C141.814 130.433 143.213 127.824 145.577 125.716C148.158 123.419 148.674 120.5 148.131 117.189C147.18 118.406 146.541 119.784 145.672 121.014C143.199 124.541 140.673 128.027 138.051 131.446C137.643 131.973 136.502 132.446 135.959 132.243C135.442 132.054 134.981 130.946 134.981 130.243C135.021 127.865 135.293 125.487 135.456 123.095C135.714 119.203 136.162 115.284 134.885 110.96C134.396 118.433 133.636 125.392 133.608 132.365C133.595 136.406 132.128 139.351 129.614 142.257C125.294 147.257 121.178 152.446 116.858 157.716H116.885ZM182.121 85.1217C181.863 85.0271 181.605 84.9325 181.346 84.8379C181.061 85.5542 180.708 86.2569 180.491 86.9866C179.879 89.0136 179.39 91.0542 178.738 93.0677C177.461 97.0542 177.447 100.973 178.792 104.973C179.431 106.865 179.689 108.892 180.11 110.865C180.844 114.27 179.553 116.77 176.605 118.5C172.638 120.838 169.622 124.189 166.797 127.716C165.302 129.581 163.862 131.5 162.314 133.324C161.471 134.311 160.453 135.162 159.08 136.487C158.999 135.324 158.904 134.906 158.958 134.487C159.583 129.676 160.154 124.838 160.914 120.041C161.621 115.541 161.702 111.176 159.461 106.716C159.298 107.23 159.148 107.419 159.189 107.554C161.145 113.892 159.787 120.081 158.578 126.324C157.98 129.365 157.491 132.487 157.545 135.568C157.586 137.878 157.111 139.689 155.548 141.297C149.897 147.135 145.862 154.487 138.662 158.906C139.11 158.973 139.436 158.865 139.722 158.703C146.188 155.365 152.111 151.433 155.929 144.946C157.328 142.581 159.121 140.446 160.711 138.176C166.593 129.716 173.82 122.581 181.958 116.243C189.443 110.419 196.63 104.189 203.925 98.1352C204.387 97.7569 204.753 97.2704 205.338 96.6623C204.781 96.6623 204.468 96.5677 204.264 96.6758C199.781 99.0407 195.23 101.284 191.997 105.433C190.476 107.378 188.614 109.081 186.848 110.824C186.074 111.595 185.177 112.311 184.226 112.838C182.515 113.784 181.713 113.338 181.346 111.46C181.02 109.743 180.681 108.041 180.314 106.338C178.996 100.392 178.806 94.5136 181.143 88.7298C181.605 87.5812 181.781 86.3109 182.08 85.0947L182.121 85.1217Z" fill="#CC7722"/>
</g>
<defs>
<clipPath id="clip0_318_558">
<rect width="118" height="129" fill="white" transform="translate(113 36)"/>
</clipPath>
</defs>
</svg>
