<svg width="43" height="26" viewBox="0 0 43 26" fill="none" xmlns="http://www.w3.org/2000/svg">
<g clip-path="url(#clip0_342_429)">
<path fill-rule="evenodd" clip-rule="evenodd" d="M39.2396 8.67001C42.0636 7.98843 42.0636 5.80339 42.0636 5.80339H35.0764C30.8452 1.45335 26.682 0 21.0729 0C15.4637 0 11.3102 1.45335 7.07906 5.80339H0.101562C0.101562 5.80339 0.101562 7.98843 2.91585 8.67001C2.3724 9.44179 1.82895 10.384 1.32432 11.4364C0.625603 12.8697 0.101562 14.5135 0.101562 15.9268C0.101562 21.8705 4.14832 26 9.90305 26C13.154 26 16.3662 24.1157 18.2974 21.7001L21.0729 26L23.8678 21.7001C25.7989 24.1157 29.0111 26 32.2621 26C38.0168 26 42.0636 21.8705 42.0636 15.9268C42.0636 14.5837 41.559 13.0401 40.8991 11.6268C40.3944 10.5243 39.8025 9.46183 39.2396 8.67001ZM9.90305 23.1334C6.04068 23.1334 2.91585 19.8658 2.91585 15.9268C2.91585 13.7918 3.82807 11.8674 5.23521 10.5744C6.46768 9.4017 8.09803 8.67001 9.89335 8.67001C10.9802 8.67001 11.9895 8.9707 12.9405 9.39167C15.2599 10.5944 16.8708 13.0601 16.8708 15.9268C16.8708 19.8658 13.7557 23.1334 9.89335 23.1334H9.90305ZM21.0729 20.2467C21.0729 16.0671 19.229 11.9275 16.57 9.16114C14.6388 7.11642 12.2515 5.80339 9.90305 5.80339C9.90305 5.80339 14.0857 1.46338 21.0729 1.46338C28.0601 1.46338 32.2621 5.80339 32.2621 5.80339C29.8748 5.80339 27.4875 7.11642 25.5563 9.18119C22.9361 11.9776 21.0729 16.1172 21.0729 20.2467ZM32.2621 14.4734C31.4954 14.4734 30.855 15.1049 30.855 15.9067C30.855 16.7086 31.4954 17.34 32.2621 17.34C33.0287 17.34 33.6692 16.7086 33.6692 15.9067C33.6692 15.1049 33.0287 14.4734 32.2621 14.4734ZM32.2621 11.5867C29.9427 11.5867 28.0601 13.5312 28.0601 15.9268C28.0601 18.3223 29.9524 20.2467 32.2621 20.2467C34.5718 20.2467 36.4447 18.3223 36.4447 15.9268C36.4447 13.5312 34.5815 11.5867 32.2621 11.5867ZM32.2621 18.7934C30.7191 18.7934 29.4672 17.5004 29.4672 15.9268C29.4672 14.3531 30.7191 13.0401 32.2621 13.0401C33.8051 13.0401 35.0861 14.3331 35.0861 15.9268C35.0861 17.5204 33.8148 18.7934 32.2621 18.7934ZM9.90305 14.4634C9.1267 14.4634 8.49591 15.0948 8.49591 15.8967C8.49591 16.6985 9.1364 17.33 9.90305 17.33C10.6697 17.33 11.3102 16.6985 11.3102 15.8967C11.3102 15.0948 10.6697 14.4634 9.90305 14.4634ZM9.90305 11.5767C7.58369 11.5767 5.69132 13.5212 5.69132 15.9167C5.69132 18.3123 7.57399 20.2367 9.90305 20.2367C12.2321 20.2367 14.0857 18.3123 14.0857 15.9167C14.0857 13.5212 12.2224 11.5767 9.90305 11.5767ZM9.90305 18.7833C8.36005 18.7833 7.07906 17.4904 7.07906 15.9167C7.07906 14.3431 8.35034 13.0301 9.90305 13.0301C11.4558 13.0301 12.6979 14.3231 12.6979 15.9167C12.6979 17.5104 11.4461 18.7833 9.90305 18.7833ZM32.2524 23.1234C28.39 23.1234 25.2749 19.8558 25.2749 15.9167C25.2749 13.1002 26.8179 10.6546 29.0984 9.45181C30.0495 8.96068 31.0976 8.64996 32.2621 8.64996C34.1739 8.64996 35.8527 9.45181 37.1046 10.6947C38.4438 12.0378 39.2396 13.8419 39.2396 15.9067C39.2396 19.8458 36.1245 23.1133 32.2524 23.1133V23.1234Z" fill="#CC7722"/>
</g>
<defs>
<clipPath id="clip0_342_429">
<rect width="41.962" height="26" fill="white" transform="translate(0.101562)"/>
</clipPath>
</defs>
</svg>
