<svg width="251" height="200" viewBox="0 0 251 200" fill="none" xmlns="http://www.w3.org/2000/svg">
<path d="M37.254 143.609C46.1049 143.667 54.5824 140.134 62.4009 136.301C80.2352 127.591 97.2784 116.626 114.209 106.09C131.545 95.3087 148.985 84.7313 166.265 73.8385C182.257 63.7498 199.555 54.0463 212.449 39.3724C215.192 36.2518 217.697 32.3417 219.071 28.2265C220.199 24.8462 219.697 21.9291 218.552 18.4676C216.262 11.5447 207.515 10.017 201.886 9.50269C183.322 7.80772 166.219 16.2062 149.817 23.5424C141.224 27.3753 133.196 31.9955 125.08 36.8196C116.976 41.6181 108.804 46.3305 101.025 51.7148C100.916 51.7951 100.824 51.8696 100.708 51.9304C93.5822 56.464 86.6285 61.5265 80.0066 66.7161C71.9699 73.035 63.2816 78.4217 55.5676 85.197C47.4635 92.3212 38.484 98.719 31.2763 106.932C26.2755 112.64 18.659 121.622 20.287 130.68C21.8545 139.434 30.1157 143.516 37.2476 143.589L37.254 143.609ZM23.7711 127.397C24.2428 122.89 26.82 119.021 29.1848 115.572C34.1808 108.3 40.477 102.764 46.9906 97.2412C53.3662 91.8303 59.4128 85.9434 66.0682 80.9164C70.0811 77.8892 74.0749 74.8032 78.0623 71.6976C78.627 71.2898 79.1742 70.8879 79.7325 70.4604C87.8822 64.4295 95.965 58.3123 104.495 52.914C120.386 42.8155 136.73 33.3907 153.811 25.7602C169.169 18.9065 185.75 11.6408 203.074 13.5147C206.846 13.9163 212.104 14.8384 214.644 18.4814C217.227 22.1968 216.349 26.4058 214.573 29.9393C210.428 38.1626 203.131 44.2539 196.29 49.6043C182.171 60.6267 166.651 69.6651 151.618 79.1264C136.208 88.8015 120.727 98.4355 105.183 107.874C89.909 117.133 74.6252 127.135 58.3672 134.379C50.807 137.755 42.3481 140.869 33.842 139.608C28.5936 138.835 23.1343 133.481 23.7822 127.371L23.7711 127.397Z" fill="#CC7722"/>
<path d="M148.155 33.9629C159.757 31.9188 172.581 29.8759 182.429 39.6095C182.603 39.7898 182.4 40.1195 182.191 39.9509C173.141 32.7335 162.259 34.0123 152.117 35.5418C155.38 37.2917 158.375 39.4144 162.276 39.73C167.895 40.2057 173.598 40.0437 179.236 40.3389C180.158 40.3757 180.166 41.8311 179.275 41.8924C173.486 42.3231 167.232 42.5186 161.406 41.7646C156.428 41.116 152.866 37.4872 148.208 36.0342C147.303 35.7523 147.168 34.1439 148.155 33.9629V33.9629Z" fill="#CC7722"/>
<path d="M116.563 55.4961C118.348 55.7423 120.533 57.3982 122.227 58.1974C123.784 58.934 125.369 59.6391 127.002 60.1325C130.103 61.0878 133.246 61.6372 136.422 61.8709C144.02 62.4179 151.078 61.2983 158.428 59.9491C159.287 59.7898 159.021 58.3133 158.181 58.2922C158.081 58.2824 157.987 58.2923 157.887 58.2825C157.887 58.2825 157.887 58.2825 157.88 58.2629C156.508 55.7672 153.006 54.2943 150.684 53.2287C147.214 51.6146 143.689 50.6065 140.008 50.13C136.41 49.6691 132.762 49.5945 129.212 50.118C127.03 50.4408 124.846 50.8734 122.674 51.3452C120.701 51.7718 118.526 52.8319 116.487 52.7585C114.86 52.6986 114.985 55.2891 116.563 55.4961V55.4961ZM121.212 54.7759C122.774 54.3358 124.334 53.831 125.812 53.5498C129.242 52.893 132.622 52.3832 136.16 52.5383C139.774 52.6893 143.405 53.2483 146.948 54.3152C149.871 55.2 153.548 56.4394 156.245 58.3579C153.133 58.5596 150.066 59.377 146.947 59.5591C143.43 59.7668 139.891 59.7864 136.356 59.5215C132.697 59.2332 129.004 58.5429 125.516 57.1093C124.11 56.5393 122.672 55.6321 121.229 54.77L121.212 54.7759Z" fill="#CC7722"/>
<path d="M88.6703 71.7733C92.2346 70.875 96.059 71.1947 99.6867 70.2532C103.315 69.3118 106.725 68.8353 110.524 69.3158C116.002 70.0131 125.182 71.3106 128.058 77.717C128.214 78.0778 127.905 78.6174 127.516 78.3136C121.957 73.9661 114.423 72.0695 107.848 71.873C104.246 71.7611 100.997 73.0319 97.524 73.6163C96.1093 73.8543 94.696 73.9178 93.2763 73.9618C94.5917 74.4318 95.934 74.8057 96.9412 75.1621C100.271 76.3451 103.675 77.6986 107.108 78.3029C113.773 79.4919 120.002 77.6723 126.572 77.914C127.73 77.9585 127.767 79.861 126.628 79.8753C119.703 79.9712 113.228 81.634 106.213 80.2589C102.761 79.5958 99.285 78.2011 95.925 76.9848C93.6851 76.174 90.4226 75.5559 88.4915 73.9663C87.754 73.3665 87.6844 72.019 88.6878 71.7674L88.6703 71.7733Z" fill="#CC7722"/>
<path d="M59.1357 92.8249C63.1414 97.9368 69.609 100.129 75.3174 100.639C82.4092 101.293 89.6742 100.451 96.6598 99.7041C97.5967 99.6055 97.7685 98.2852 97.1058 97.856C100.43 94.4272 87.2434 88.4962 85.9568 88.234C80.4478 87.0247 75.161 88.7655 69.7745 89.3647C67.1575 89.6604 64.5757 90.1836 61.9523 90.4596C60.9042 90.5739 59.8861 90.4823 59.0483 91.2438C58.6009 91.656 58.7668 92.4053 59.1071 92.8563L59.1357 92.8249ZM61.6052 92.7314C62.5263 92.7034 63.6461 92.8696 64.2321 92.8241C66.1187 92.6662 67.9812 92.2552 69.8487 92.0385C73.3787 91.6305 76.8543 90.6969 80.4243 90.4713C84.4691 90.2161 88.504 91.183 92.1606 93.4311C93.0791 93.9917 97.0772 96.2768 96.4323 97.6916C90.6371 97.6888 84.8827 98.8257 79.0636 98.8092C73.4971 98.7945 65.7983 97.8236 61.5877 92.7373L61.6052 92.7314Z" fill="#CC7722"/>
<path d="M145.579 186.858C145.871 188.529 146.348 190.109 147.04 191.544C150.885 199.606 160.729 199.861 167.559 199.752C172.388 199.679 177.095 198.971 181.879 198.317C184.447 197.954 187.031 197.754 189.6 197.518C190.907 197.391 192.799 197.627 193.999 196.864C195.445 195.956 195.353 194.304 195.86 192.633C196.845 189.328 198.998 187.367 202.013 187.548C204.535 187.694 206.535 189.255 208.842 190.182C210.595 190.872 212.457 191.09 214.287 190.872C223.239 189.8 231.745 185.097 240.497 182.918C243.665 182.119 248.572 182.246 249.987 177.96C250.664 175.908 250.325 173.475 250.095 171.35C249.818 168.717 249.587 166.065 249.218 163.45C248.803 160.418 248.403 157.439 248.141 154.37C248.003 152.754 248.218 150.593 247.864 149.031C247.572 147.76 246.834 147.27 245.834 146.979C245.357 146.834 244.88 146.707 244.419 146.598C243.634 146.271 242.804 146.071 242.004 145.781C240.066 145.091 238.082 144.546 236.113 143.983C231.683 142.766 227.269 141.495 222.854 140.188C220.87 139.588 218.886 139.062 216.933 138.299C215.594 137.772 214.225 137.228 212.795 137.518C211.165 137.845 209.734 139.025 208.15 139.534C205.796 140.278 203.505 140.605 201.121 139.861C198.967 139.189 198.398 138.553 197.629 136.283C197.198 134.994 196.875 133.36 196.06 132.324C194.999 130.999 193.168 130.908 191.769 130.599C190.169 130.236 188.6 129.855 186.985 129.673C182.817 129.201 178.633 128.693 174.48 128.093C172.404 127.803 170.327 127.458 168.235 127.276C166.928 127.167 166.067 126.949 165.082 127.93C160.852 127.984 157.591 132.252 154.777 135.793C151.47 139.952 148.87 145.218 147.132 150.521C143.564 161.362 140.718 175.962 145.609 186.876L145.579 186.858ZM242.527 148.723C240.758 149.122 238.543 149.031 237.159 149.358C234.529 149.976 231.883 150.539 229.222 151.029C223.608 152.046 217.917 152.754 212.272 153.444C201.213 154.806 190.2 155.805 179.187 157.73C169.712 159.383 159.76 160.345 151.577 166.864C148.839 169.044 146.917 172.657 145.948 176.671C145.763 174.855 145.686 172.984 145.748 171.041C145.932 165.321 147.117 159.364 148.655 153.953C150.055 149.05 152.039 144.274 154.592 140.061C156.13 137.536 157.961 135.248 159.868 133.087C161.114 131.671 163.067 129.909 165.036 129.038C165.221 129.255 165.482 129.346 165.728 129.128C167.143 127.912 171.435 129.946 173.111 130.327C174.957 130.763 176.818 131.017 178.664 131.398C182.278 132.125 186.016 132.597 189.585 133.65C190.615 133.959 192.722 134.122 193.522 135.067C194.491 136.174 194.522 138.826 195.137 140.188C196.337 142.857 199.413 143.783 201.705 144.292C204.612 144.946 208.119 144.255 210.749 142.621C211.626 142.076 212.487 141.096 213.456 140.823C214.518 140.533 215.579 141.023 216.594 141.332C218.44 141.877 220.286 142.385 222.131 142.93C225.838 144.019 229.561 145.127 233.283 146.126C235.39 146.689 237.513 147.234 239.605 147.887C240.451 148.16 241.512 148.396 242.512 148.741L242.527 148.723ZM148.224 187.439C148.255 187.258 148.224 187.058 148.163 186.84C148.132 186.749 148.117 186.677 148.086 186.586C147.609 182.972 148.24 178.959 149.239 175.817C150.977 170.297 155.946 167.682 160.345 165.811C164.236 164.159 168.328 163.123 172.404 162.361C180.91 160.745 189.415 158.983 197.952 157.567C206.581 156.15 215.302 155.079 223.962 153.808C228.392 153.154 232.745 152.191 237.128 151.265C239.112 150.847 241.097 150.557 243.112 150.502C243.896 150.484 244.542 150.484 245.219 150.248C245.219 150.956 245.173 151.828 245.173 151.992C245.234 153.136 245.326 154.298 245.403 155.442C245.772 160.672 246.465 165.866 246.957 171.077C247.095 172.512 247.664 175.617 246.895 176.943C246.219 178.123 244.727 178.269 243.681 178.559C241.373 179.177 239.082 179.649 236.805 180.393C232.283 181.883 227.853 183.789 223.331 185.278C219.732 186.477 215.61 188.402 211.795 187.893C208.227 187.403 205.366 184.461 201.659 184.28C198.49 184.116 195.368 186.096 193.784 189.401C193.445 190.091 193.23 190.908 193.03 191.671C192.615 193.196 192.892 193.214 191.738 193.904C190.4 194.703 187.739 194.34 186.201 194.522C178.049 195.502 169.896 197.754 161.652 197.028C157.468 196.665 151.87 195.611 149.439 191.09C148.855 190 148.455 188.765 148.224 187.476V187.439Z" fill="#CC7722"/>
<path d="M171.066 184.897C175.526 191.598 185.509 189.909 188.677 182.355C190.185 178.759 189.062 175.399 186.785 172.639C186.785 172.639 186.785 172.639 186.77 172.621C184.647 169.243 180.787 166.955 177.449 167.409C170.097 168.426 166.559 178.105 171.081 184.897H171.066ZM177.649 169.788C180.402 169.116 183.032 170.333 184.786 172.803C185.57 173.91 186.478 175.109 186.816 176.543C187.124 177.833 186.57 179.685 186.693 181.083C186.693 181.211 186.755 181.338 186.832 181.428C182.94 186.204 176.234 183.698 172.327 180.085C172.05 179.83 171.65 180.321 171.835 180.648C174.034 184.497 177.803 186.441 181.74 186.059C178.756 187.112 175.388 186.568 173.311 183.807C169.405 178.596 171.973 171.168 177.634 169.788H177.649Z" fill="#CC7722"/>
<path d="M212.902 177.524C217.886 180.92 227.699 178.632 228.945 171.023C229.329 168.644 228.56 166.338 227.238 164.522C226.499 163.214 225.438 162.161 223.946 161.398C220.593 159.673 216.501 158.093 212.871 159.564C205.488 162.561 206.996 173.493 212.902 177.524V177.524ZM212.933 162.197C215.779 160.545 219.024 161.471 221.854 162.579C222.423 162.815 223.039 162.996 223.623 163.251C225.007 164.159 226.146 165.484 226.792 167.445C227.084 168.317 227.176 169.134 227.13 169.897C225.992 164.14 218.993 162.452 214.533 163.033C214.056 163.087 214.24 163.85 214.61 163.922C218.993 164.74 225.653 165.648 226.499 172.076C224.669 175.527 219.316 176.979 216.363 176.18C211.456 174.855 206.98 165.666 212.918 162.197H212.933Z" fill="#CC7722"/>
<path d="M153.838 181.592C154.054 180.648 155.223 180.72 155.407 181.628C156.1 184.843 160.468 186.531 162.252 183.608C163.467 181.61 162.329 179.504 160.637 178.596C159.222 177.833 158.068 177.815 156.684 178.65C156.207 178.941 155.838 178.142 156.284 177.797C158.222 176.307 160.483 176.344 162.452 177.833C164.282 179.213 165.098 182.282 163.898 184.516C162.544 187.04 160.637 187.675 158.207 187.167C155.961 186.695 153.1 184.788 153.823 181.592H153.838Z" fill="#CC7722"/>
</svg>
