<svg width="224" height="218" viewBox="0 0 224 218" fill="none" xmlns="http://www.w3.org/2000/svg">
<g clip-path="url(#clip0_379_537)">
<path d="M96.0498 173.565C95.2789 156.516 93.1248 139.531 93.1353 122.451C93.1353 122.227 93.0825 122.036 93.0086 121.866C93.2515 121.664 93.5049 121.451 93.7372 121.238C95.205 119.909 97.0001 117.409 95.8597 115.357C95.2367 114.24 94.0646 113.602 93.4943 112.389C92.9664 111.262 92.6813 110.018 92.0794 108.922C90.9601 106.87 88.732 106.072 86.5462 105.753C85.089 105.54 83.2621 105.21 81.636 105.423C81.4353 104.998 81.2242 104.594 81.0024 104.2C79.4818 101.562 77.3488 98.7653 74.4449 97.6699C70.6646 96.2341 66.3352 96.468 62.3859 96.7233C58.3099 96.9892 54.0228 97.5529 50.0735 98.6483C46.177 99.7332 42.3122 100.882 38.4474 102.105C38.3735 102.126 38.289 102.147 38.2151 102.158C34.2342 103.2 30.3799 104.647 26.5363 106.104C23.2734 107.338 20.021 108.507 16.8426 109.954C13.7698 111.347 10.1584 112.751 8.63783 116.027C7.98314 117.441 8.05706 118.866 8.08874 120.387C8.08874 120.791 8.07818 121.217 8.0465 121.653C6.73711 121.929 5.37493 122.759 4.36122 123.376C2.68225 124.397 0.813208 126.099 0.54922 128.183C0.433065 129.098 0.77097 129.949 0.929363 130.831C1.15111 132.086 1.24615 133.012 1.03496 134.277C0.728732 136.107 0.169076 137.925 1.38342 139.531C2.70337 141.275 5.40661 142.233 7.43404 142.786C7.59244 142.828 7.74027 142.86 7.89866 142.903C8.42664 145.764 10.0317 148.465 10.8976 151.241C11.9219 154.506 12.7983 157.824 13.8437 161.079C16.1562 168.226 19.0918 175.086 21.9112 182.041C24.5511 188.529 27.4549 194.9 30.6545 201.132C32.2067 204.163 33.6851 207.248 35.7653 209.97C37.8455 212.693 40.327 214.384 43.4738 215.65C50.1157 218.33 57.9404 217.447 64.8991 216.745C71.8473 216.043 79.0489 214.32 85.1523 210.832C87.94 209.236 90.3687 207.396 92.3328 204.833C94.3391 202.206 95.4056 198.835 95.8597 195.559C96.8734 188.189 96.3877 180.935 96.0498 173.554V173.565ZM10.2746 118.324C10.3274 117.845 10.4435 117.399 10.6125 116.995C15.5755 117.803 20.8763 117.303 25.8499 116.761C31.5943 116.133 37.4548 115.325 43.1148 114.155C46.0397 113.549 49.007 113.038 51.8686 112.166C54.6986 111.294 57.4757 110.262 60.2635 109.252C62.7027 108.369 65.0364 107.263 67.3595 106.093C69.5136 104.998 72.2063 103.711 73.7797 101.807C74.107 101.414 73.7058 100.85 73.2306 101.094C70.9497 102.232 68.8906 103.658 66.5147 104.647C63.9593 105.71 61.3511 106.593 58.764 107.593C53.4631 109.635 48.1305 111.039 42.629 112.389C37.307 113.698 31.7844 114.708 26.3673 115.548C21.2776 116.335 15.8606 117.143 10.6864 116.846C11.8585 114.283 15.2059 112.985 17.5923 111.858C20.5912 110.443 23.6535 109.263 26.7369 108.029C30.3483 106.582 33.9491 105.115 37.6871 104.009C41.5836 102.849 45.5646 101.967 49.535 101.063C53.7377 100.105 57.9298 99.3928 62.217 98.9355C62.8717 98.861 63.5369 98.7972 64.2022 98.7228C64.5612 98.7228 64.9202 98.7228 65.2898 98.7228C68.3626 98.7547 72.0479 98.7015 74.7512 100.424C76.0289 101.233 76.937 102.647 77.8134 103.86C79.6613 106.402 81.4248 110.071 78.6582 112.517C77.4122 113.612 75.9549 114.57 74.5611 115.463C71.7734 117.239 68.5105 118.335 65.3848 119.366C58.8379 121.525 52.2699 123.259 45.4907 124.514C38.3735 125.822 31.3092 126.63 24.0865 127.035C20.5807 127.226 17.0116 127.247 13.5375 126.609C11.7423 126.279 10.2534 125.492 10.264 123.482C10.264 121.802 10.1267 120.015 10.2957 118.356L10.2746 118.324ZM3.62205 126.652C4.26618 125.897 5.01591 125.237 5.81843 124.652C6.30417 124.301 7.17006 123.652 7.97258 123.227C7.96202 123.918 7.9937 124.588 8.16265 125.226C9.02854 128.438 13.1679 128.066 15.7127 128.311C19.8204 128.726 23.8964 128.598 28.0146 128.428C31.9956 128.268 35.9976 128.098 39.9363 127.513C47.6659 126.354 55.6067 125.024 63.0406 122.546C66.6837 121.334 70.5062 120.217 73.9486 118.473C76.578 117.143 79.8409 115.197 81.6254 112.794C82.8503 111.134 82.8609 109.146 82.3118 107.252C83.7162 107.21 85.3001 107.486 86.3878 107.667C87.4437 107.848 88.7953 108.125 89.6296 108.848C90.4849 109.603 90.7911 110.815 91.0445 111.879C91.0973 112.092 91.1396 112.294 91.1924 112.506C90.3898 113.07 89.978 113.963 89.2811 114.655C88.1618 115.782 86.5039 116.718 85.1629 117.548C82.8186 118.994 80.4322 120.377 78.1197 121.866C75.5537 123.525 72.692 124.642 69.9043 125.865C66.8737 127.205 63.9171 128.502 60.6647 129.215C57.5391 129.895 54.4979 130.683 51.3301 131.182C48.1305 131.693 44.9416 132.246 41.7526 132.81C35.5224 133.905 29.1445 134.639 22.8193 134.65C19.3452 134.65 15.8922 134.745 12.4287 134.639C9.51428 134.543 6.48369 133.756 3.60093 134.299C3.68541 133.873 3.7382 133.437 3.75932 133.012C3.85436 130.682 1.78469 128.779 3.61149 126.652H3.62205ZM6.67376 140.988C5.6178 140.616 3.59037 139.935 2.93568 138.946C2.22819 137.893 2.89344 136.766 3.2419 135.713C3.31582 135.479 3.38974 135.245 3.45309 135.001C9.21861 135.915 14.9208 136.383 20.7813 136.394C23.9175 136.404 27.117 136.585 30.2321 136.096C33.3577 135.596 36.4517 134.905 39.5562 134.362C42.7663 133.799 45.9764 133.075 49.1654 132.416C52.4705 131.735 55.7757 131.161 59.0491 130.289C62.1325 129.47 65.1525 128.736 68.1514 127.588C71.1609 126.439 74.1176 125.195 77.0848 123.971C79.9148 122.802 82.6919 121.387 85.3424 119.856C86.7996 119.015 88.2885 118.175 89.6718 117.207C90.3265 116.75 90.9178 116.239 91.4458 115.644C91.657 115.399 91.8787 115.027 92.1111 114.74C92.5334 115.272 93.1248 115.697 93.4416 116.25C94.582 118.271 90.6749 120.664 89.3656 121.547C85.712 124.014 82.1428 126.481 78.1302 128.343C73.9697 130.268 69.5031 131.831 65.142 133.192C56.3353 135.936 47.3175 138.415 38.2679 140.18C33.6006 141.095 28.9333 142.158 24.1815 142.477C19.5564 142.786 14.8574 142.669 10.2851 141.85C9.08133 141.637 7.83531 141.392 6.67376 140.988ZM94.3813 186.019C94.0857 192.507 93.6844 200.42 88.5842 205.078C86.0393 207.407 83.0298 209.141 79.8831 210.513C76.7152 211.895 73.3151 212.491 69.9677 213.246C66.4302 214.044 62.8294 214.363 59.2075 214.575C55.7123 214.778 52.0692 214.937 48.5846 214.448C45.5012 214.012 41.8687 212.64 39.5456 210.513C37.0641 208.237 35.3957 205.12 33.854 202.174C30.7495 196.261 27.8034 190.295 25.1424 184.169C21.9429 176.798 18.8912 169.385 16.2513 161.781C15.0792 158.409 14.1394 154.974 12.925 151.624C12.3337 149.997 11.6684 148.391 11.0032 146.795C10.5069 145.625 9.8205 144.477 9.377 143.275C11.3411 143.679 13.3368 143.892 15.3326 144.083C20.9819 144.636 26.3673 144.19 31.9533 143.371C43.1781 141.733 54.2445 138.882 65.0997 135.628C70.2739 134.086 75.5854 132.246 80.4427 129.864C83.0404 128.587 85.5113 127.152 87.8872 125.492C88.7637 124.886 89.6612 124.291 90.5482 123.695C90.5482 126.811 90.5588 129.991 90.8122 133.075C90.9495 134.82 91.2557 136.543 91.3508 138.298C91.4458 140.052 91.4141 141.807 91.5514 143.562C92.1216 150.571 92.903 157.569 93.4732 164.589C93.7689 168.268 93.8956 171.97 94.0751 175.66C94.2546 179.138 94.5397 182.541 94.3813 186.04V186.019Z" fill="#CC7722" stroke="#CC7722" stroke-miterlimit="10"/>
<path d="M63.2405 101.935C62.7231 101.456 62.6175 100.892 61.9417 100.573C61.1181 100.19 60.0304 100.307 59.154 100.307C57.2638 100.307 55.0358 100.69 53.7369 102.19C53.5257 102.424 53.4201 102.828 53.6208 103.115C53.6313 103.136 53.6525 103.158 53.663 103.179C53.8848 103.487 54.2332 103.604 54.5817 103.424C54.1488 103.647 55.5849 103.37 55.8066 103.328C56.9365 103.062 57.9924 102.924 59.154 102.924C59.9143 102.924 60.664 102.807 61.4243 102.775C61.9839 102.754 62.4697 102.892 63.0293 102.775C63.3884 102.7 63.5151 102.19 63.2511 101.945L63.2405 101.935Z" fill="#CC7722" stroke="#CC7722" stroke-miterlimit="10"/>
<path d="M73.7382 159.888C71.2672 156.123 66.7583 153.783 62.3972 153.294C57.7721 152.772 52.5979 155.431 49.7046 158.994C48.089 160.983 46.9486 163.397 46.1355 165.822C45.7026 167.13 45.4703 168.598 45.4808 169.981C45.4808 170.757 45.6603 171.459 45.8398 172.182C45.9138 174.044 46.2305 175.926 46.674 177.787C47.7722 182.371 51.183 186.391 55.4596 188.284C60.1163 190.348 65.375 190.029 69.6199 187.136C77.8775 181.488 78.9757 167.886 73.7382 159.888ZM70.8343 183.179C67.9832 186.689 63.2842 188.221 58.9337 187.295C56.6951 186.817 54.5409 185.753 52.7247 184.264C52.7035 184.222 52.6719 184.179 52.6296 184.137C52.3973 183.945 52.1756 183.775 51.9644 183.594C50.8767 182.584 49.9475 181.403 49.2295 180.116C48.6487 178.585 48.2685 176.99 47.9729 175.384C47.6983 173.927 47.2126 172.374 47.0647 170.874C47.1175 168.651 47.5716 166.471 48.4903 164.557C50.1059 161.196 52.4501 158.782 55.354 156.899C56.2832 156.399 57.2758 156.016 58.3107 155.772C60.5387 155.251 62.5873 155.357 64.7837 155.984C66.7266 156.537 68.2261 157.644 69.8206 158.856C73.2313 161.462 74.5407 166.556 74.678 170.651C74.8364 175.001 73.622 179.755 70.8448 183.179H70.8343Z" fill="#CC7722" stroke="#CC7722" stroke-miterlimit="10"/>
<path d="M62.9779 174.724C63.8966 173.118 64.414 171.427 64.0339 169.576C63.4425 166.662 61.4046 162.77 58.469 161.695C58.3317 161.642 58.2578 161.855 58.374 161.919C60.1691 162.929 61.0666 164.907 61.9325 166.705C63.1046 169.14 62.8406 171.576 61.4679 173.82C60.5492 175.32 59.2082 176.766 58.9759 178.585C58.7541 180.34 59.7678 181.807 60.9927 182.935C61.3834 183.296 61.8692 182.764 61.5524 182.371C60.2852 180.776 59.979 179.202 61.1194 177.425C61.7108 176.5 62.4288 175.671 62.9779 174.713V174.724Z" fill="#CC7722" stroke="#CC7722" stroke-miterlimit="10"/>
<path d="M67.0742 168.853C66.958 167.152 66.4617 165.62 65.2685 164.376C64.3182 163.387 62.8398 162.025 61.4037 162.047C61.2031 162.047 61.1608 162.344 61.3615 162.398C63.5895 163.036 64.5399 165.12 65.1207 167.162C65.7542 169.385 65.353 171.172 64.2442 173.139C63.4523 174.543 62.8398 175.979 62.3752 177.521C61.9317 178.968 62.0795 179.819 62.7025 181.191C62.7342 181.265 62.8504 181.212 62.8293 181.137C61.6783 176.458 67.3804 173.416 67.0848 168.843L67.0742 168.853Z" fill="#CC7722" stroke="#CC7722" stroke-miterlimit="10"/>
</g>
<g clip-path="url(#clip1_379_537)">
<path d="M222.875 67.4436C222.174 62.4659 221.515 57.5414 220.432 52.6169C219.997 50.6279 219.115 49.2771 217.204 48.4794C215.674 47.8413 214.039 47.4264 212.531 47.9902C212.467 47.703 212.403 47.4052 212.34 47.1074C212.095 45.9374 211.447 44.9057 210.205 44.6185C209.695 44.5015 209.164 44.5866 208.654 44.6185C207.667 44.661 206.658 44.4696 205.67 44.5334C205.415 44.544 204.948 44.7036 204.459 44.8419C204.48 44.7142 204.512 44.5866 204.534 44.459C204.99 42.2786 205.532 39.9812 205.022 37.7901C205.309 37.2902 205.404 36.7265 205.118 36.1202C204.162 34.0994 200.742 33.0677 198.926 32.1211C196.09 30.632 193.297 29.1004 190.44 27.6433C187.552 26.1648 184.663 24.8566 181.657 23.6441C179.342 22.7081 176.793 21.453 174.287 21.102C174.51 19.7725 174.691 18.443 174.924 17.1241C175.572 13.4015 176.454 9.72139 177.239 6.02002C177.399 5.24358 177.622 4.16933 177.547 3.21208C177.632 3.08445 177.717 2.95681 177.802 2.81854C178.238 2.07402 177.441 1.30821 176.74 1.42521C175.944 0.850861 174.691 0.93595 173.788 0.840225C169.869 0.404144 165.6 0.446688 161.691 0.967858C159.758 1.22313 157.783 1.56348 155.946 2.20165C154.597 2.66964 152.505 3.05254 151.368 3.97788C148.299 6.46673 151.889 11.0722 153.227 13.5398C153.779 14.5502 154.353 15.5393 154.937 16.5391C155.34 17.5496 155.744 18.56 156.222 19.5385C156.88 20.9 157.443 22.3784 158.123 23.7398C157.369 24.1652 156.36 24.4631 155.68 24.8034C154.162 25.5798 152.611 26.2606 151.082 27.0157C148.437 28.324 145.899 29.8237 143.286 31.1851C137.891 33.993 132.655 37.0349 127.674 40.5449C126.092 41.6617 123.416 42.8316 122.471 44.6185C122.396 44.7568 122.354 44.8844 122.322 45.012C120.686 45.1184 119.083 45.6289 117.426 45.948C115.62 46.299 113.199 46.7032 111.818 48.0221C111.351 48.4688 111.479 49.2984 111.925 49.7026C112.498 50.2344 113.125 50.6279 113.794 50.947C113.942 51.1172 114.091 51.2873 114.24 51.4256C115.121 52.2978 115.982 53.1806 116.884 54.0315C118.605 55.6588 120.431 57.0734 122.248 58.5731C123.947 59.9664 125.657 61.3066 127.526 62.4446C129.873 63.8699 130.765 66.0184 132.008 68.369C134.461 72.9957 137.095 77.5692 139.888 81.9938C141.024 83.802 141.98 85.6527 143.658 87.0247C144.189 87.4608 144.752 87.8437 145.347 88.1841C145.166 88.9392 145.325 90.0347 145.315 90.6942C145.283 92.2151 145.219 93.7467 145.538 95.2358C145.718 96.0761 146.005 96.7887 146.398 97.4056C146.26 97.6715 146.143 97.9587 146.005 98.2884C145.336 99.8944 144.508 101.437 143.849 103.043C142.702 105.851 141.672 108.701 140.674 111.562C138.528 117.763 137.18 124.187 136.033 130.643C135.502 133.632 135.3 136.717 135.077 139.737C134.864 142.524 134.461 145.64 135.459 148.342C135.778 149.204 136.436 149.682 137.296 149.937C138.773 150.384 140.228 150.905 141.725 151.256C144.731 151.969 147.715 152.767 150.731 153.501C156.912 154.99 163.295 155.5 169.646 155.468C172.811 155.447 175.954 154.926 179.077 154.436C182.061 153.958 185.098 153.373 187.955 152.373C194.041 150.256 199.744 147.8 205.001 144.013C206.955 142.609 209.408 141.28 210.704 139.163C212.085 136.919 210.853 133.345 210.226 130.984C208.41 124.155 204.268 117.838 200.891 111.711C199.096 108.467 197.46 105.127 195.613 101.915C194.731 100.384 193.818 98.8521 192.809 97.4056C192.065 96.3313 191.418 95.1507 190.26 94.5445C190.494 94.0233 190.663 93.4702 190.748 92.8852C191.003 91.0239 190.918 87.8437 189.718 86.1951C190.621 85.5357 191.418 84.7486 192.055 83.802C193.308 81.9407 194.253 79.739 195.018 77.6437C195.974 75.0165 196.983 72.4426 197.843 69.7836C198.682 67.2309 199.446 64.6463 200.169 62.0617C200.232 62.083 200.307 62.0937 200.381 62.1043C203.397 62.3383 207.104 63.4763 209.631 61.1789C209.939 60.9024 210.194 60.594 210.407 60.2642C213.03 60.796 212.509 64.774 212.828 66.8799C213.157 69.0603 211.171 70.7834 211.182 73.0276C211.182 73.9423 211.426 74.8783 211.734 75.7292C211.904 76.1971 212.106 76.6758 212.35 77.1119C212.711 77.7713 212.913 77.6011 212.488 78.3137C211.596 79.7815 210.29 80.5899 210.162 82.4831C210.056 84.1849 210.046 86.0994 211.214 87.4395C212.032 88.3861 213.115 88.5989 213.019 90.1411C212.955 91.109 212.52 92.7044 211.947 93.4596C210.768 95.0125 208.24 95.3528 206.774 96.6185C205.543 97.6715 204.597 99.2031 204.661 100.894C204.82 104.979 210.523 105.585 213.37 104.245C215.016 103.468 216.981 102.639 218.329 101.405C219.901 99.9689 220.698 98.1182 221.377 96.1399C223.002 91.4068 222.896 86.5036 223.268 81.5684C223.618 76.931 223.523 72.0916 222.875 67.4862V67.4436ZM178.153 24.58C179.81 25.2076 181.477 25.7926 183.112 26.4946C186.5 27.9623 189.708 29.8024 193.032 31.3978C194.551 32.1211 195.931 33.0464 197.407 33.8654C199.022 34.7695 200.763 35.4608 202.303 36.4819C203.079 36.9924 203.259 36.7903 202.431 37.354C201.762 37.8114 201.114 38.2794 200.434 38.7048C198.799 39.7153 197.068 40.5661 195.368 41.4808C192.766 42.8848 190.101 44.1186 187.392 45.2141C185.714 42.4381 183.208 39.9812 181.073 37.5987C179.417 35.748 177.909 33.7697 176.262 31.9083C175.328 30.8447 174.414 29.7705 173.522 28.675C173.044 28.09 172.375 27.4624 171.897 26.803C172.928 26.2606 173.416 25.2608 173.703 24.1227C173.788 23.8036 173.862 23.4952 173.926 23.1761C175.381 23.4207 176.783 24.0589 178.163 24.58H178.153ZM165.09 47.4583C165.09 45.1184 165.334 42.7572 165.61 40.4385C166.131 36.216 167.363 31.8658 167.32 27.5901C168.658 27.505 170.028 27.4943 171.292 27.0583C171.727 28.6324 173.055 30.164 173.979 31.3659C175.646 33.5357 177.335 35.6842 179.077 37.7901C180.468 39.4813 181.859 41.1299 183.219 42.8529C183.898 43.7144 184.631 44.5547 185.258 45.4694C185.353 45.6183 185.438 45.7672 185.523 45.9267C181.615 47.3945 177.59 48.5645 173.459 49.4686C170.75 50.0642 168.01 50.4896 165.26 50.8087C165.292 49.6813 165.069 48.4794 165.069 47.4477L165.09 47.4583ZM164.038 41.1618C163.741 43.2784 163.476 45.4162 163.401 47.5647C163.369 48.5326 163.465 49.4898 163.454 50.4577C163.454 50.6598 163.454 50.8406 163.433 51.0215C162.552 51.1065 161.67 51.1916 160.789 51.2554C156.944 51.5533 153.036 51.8723 149.181 51.7447C146.717 51.6596 144.242 51.4363 141.789 51.0853C142.182 50.128 143.329 49.0006 143.924 48.1922C144.635 47.235 145.389 46.299 146.122 45.3524C147.8 43.1933 149.531 40.9916 151.337 38.9282C153.174 36.8222 155.149 34.8333 156.912 32.6741C158.335 30.9192 159.896 29.3982 161.086 27.4943C161.128 27.505 161.16 27.5263 161.203 27.5369C162.806 27.9623 164.612 27.8879 166.237 27.6964C166.492 27.6645 166.757 27.6433 167.023 27.622C166.63 29.6641 165.876 31.6637 165.408 33.6952C164.846 36.1628 164.378 38.6623 164.028 41.1724L164.038 41.1618ZM153.864 5.34994C155.404 4.81813 156.838 4.08424 158.41 3.64816C161.851 2.70155 165.27 2.31865 168.828 2.18038C170.4 2.11656 171.929 2.11656 173.49 2.28674C173.841 2.32928 175.147 2.28674 175.561 2.46755C172.705 5.43503 168.063 7.04108 164.145 7.46653C161.691 7.73243 159.514 7.79625 157.071 7.3389C155.574 7.05172 154.321 6.38164 153.025 5.74348C153.238 5.58394 153.524 5.4563 153.854 5.34994H153.864ZM157.687 17.2305C156.201 14.6778 154.693 11.8486 153.524 9.12576C153.248 8.49823 152.887 7.81752 152.696 7.15808C152.664 7.06236 152.653 6.97727 152.632 6.89218C153.652 7.6048 155.128 8.07279 155.903 8.32805C158.59 9.18958 161.128 9.23213 163.911 9.05131C165.345 8.95559 166.768 8.79604 168.17 8.43442C169.434 8.11533 170.825 7.88134 171.982 7.30699C173.182 6.722 174.574 5.96684 175.763 5.04149C175.699 5.28612 175.625 5.49885 175.583 5.65839C174.744 8.58332 174.106 11.4976 173.459 14.4651C173.129 15.9542 172.853 17.4326 172.588 18.9323C172.439 19.7832 172.237 20.6234 172.057 21.4637C171.876 22.3252 171.834 23.7504 171.292 24.4631C170.549 25.4522 168.796 25.282 167.702 25.2927C166.024 25.3139 164.431 25.8351 162.721 25.6968C161.511 25.6011 161.394 25.3033 160.82 24.3248C160.735 24.1759 160.651 24.0376 160.576 23.8993C160.459 23.1442 160.3 22.4103 160.024 21.687C159.429 20.1022 158.526 18.6664 157.677 17.2092L157.687 17.2305ZM128.025 43.406C129.491 42.4913 130.871 41.4277 132.316 40.4811C135.576 38.3326 138.9 36.1947 142.309 34.3121C145.655 32.4614 148.979 30.5788 152.239 28.5899C153.737 27.6752 155.245 26.803 156.721 25.867C157.305 25.4948 158.038 25.1757 158.665 24.7609C159.238 25.75 159.588 26.6966 160.449 27.2391C158.728 28.6643 157.21 30.4831 155.755 32.1423C153.864 34.2908 151.772 36.2585 149.913 38.4389C148.129 40.5342 146.324 42.6508 144.593 44.7993C143.701 45.9161 142.83 47.0329 142.001 48.1922C141.491 48.9049 140.674 49.6388 140.366 50.4471C140.313 50.596 140.302 50.7343 140.323 50.8725C138.847 50.6279 137.381 50.3301 135.926 49.9791C133.739 49.4473 131.583 48.7772 129.533 47.8306C128.545 47.3733 126.103 46.3735 125.126 45.4694C125.965 44.661 127.101 44.0016 128.014 43.4166L128.025 43.406ZM190.993 99.3945C191.864 100.692 192.66 102.032 193.435 103.383C193.796 104.021 194.158 104.659 194.508 105.308C192.373 104.053 189.878 103.436 187.446 103.936C183.07 104.819 180.744 108.531 179.703 112.637C178.493 117.412 179.735 122.922 180.818 127.612C182.029 132.898 183.251 138.142 184.706 143.364C184.759 143.545 185.056 143.492 185.024 143.3C184.334 139.323 184.217 135.238 183.367 131.292C182.422 126.868 181.519 122.507 181.275 117.976C181.073 114.083 181.689 108.988 185.215 106.574C187.201 105.223 189.517 105.234 191.757 105.819C193.478 106.265 194.805 107.053 195.995 108.137C196.462 109.031 196.929 109.914 197.397 110.796C200.169 115.955 203.174 120.996 205.649 126.315C206.913 129.037 207.868 131.835 208.368 134.802C208.591 136.153 208.92 137.365 207.943 138.45C207.104 139.386 206.042 140.12 205.022 140.833C200.36 144.056 195.666 147.034 190.249 148.884C179.321 152.618 167.947 153.851 156.487 152.128C153.822 151.724 151.22 151.012 148.586 150.48C147.301 150.214 146.069 149.842 144.805 149.48C143.254 149.023 141.64 148.799 140.111 148.236C138.879 147.789 137.923 147.704 137.551 146.321C137.18 144.907 137.265 143.46 137.307 142.024C137.403 139.206 137.551 136.387 137.743 133.579C137.955 130.463 138.709 127.421 139.219 124.347C139.612 121.964 140.079 119.624 140.663 117.295C141.449 116.029 142.076 114.657 142.978 113.487C144.476 111.541 146.345 109.935 148.427 108.648C150.572 107.329 153.992 107.095 155.277 109.68C156.466 112.062 156.254 114.487 155.786 117.008C154.841 122.209 154.523 127.506 153.843 132.739C153.514 135.281 153.238 137.823 152.834 140.365C152.473 142.598 152.006 144.896 151.952 147.161C151.952 147.491 152.494 147.534 152.526 147.204C153.206 141.152 154.448 135.174 155.298 129.144C155.776 125.74 156.275 122.315 156.902 118.944C157.369 116.476 157.953 114.03 157.443 111.53C157.05 109.595 156.201 107.51 154.268 106.723C152.345 105.936 149.903 106.085 148.119 107.116C145.92 108.393 143.817 110.094 142.256 112.105C142.214 112.158 142.182 112.2 142.15 112.254C142.862 110.041 143.616 107.829 144.444 105.67C145.039 104.106 145.676 102.585 146.345 101.054C146.685 100.277 146.865 99.3094 147.141 98.416C148.012 99.3307 149.159 100.011 150.498 100.586C151.56 101.043 152.717 101.139 153.843 101.341C155.585 101.649 157.337 101.926 159.1 102.096C162.339 102.405 165.557 102.298 168.796 102.032C172.12 101.756 175.402 101.309 178.684 100.66C181.403 100.118 184.482 99.6817 186.883 98.2033C187.552 97.7885 188.189 97.2886 188.752 96.7142C189.718 97.1503 190.398 98.5543 190.971 99.4158L190.993 99.3945ZM146.133 88.6201C147.29 89.2264 148.522 89.705 149.754 90.1411C159.525 93.534 170.782 92.1939 180.617 89.7369C182.943 89.1519 185.545 88.5031 187.807 87.3544C187.86 87.4502 187.913 87.5353 187.987 87.6203C188.465 88.1415 188.454 89.8965 188.529 90.5453C188.646 91.694 188.773 92.7789 188.285 93.8531C187.276 96.0973 185.067 97.0439 182.826 97.6502C177.855 98.9904 172.821 99.7668 167.692 100.171C162.605 100.565 157.677 100.16 152.664 99.235C150.795 98.8946 149.064 97.9906 148.012 96.5121C148.012 96.3207 147.896 96.1399 147.736 96.0761C147.492 95.6506 147.301 95.1933 147.173 94.6827C146.834 93.3532 146.812 91.9705 146.621 90.6197C146.557 90.1517 146.228 89.2902 146.133 88.6308V88.6201ZM196.728 65.6887C195.453 70.4217 193.796 75.2505 191.736 79.6964C190.802 81.7067 189.793 83.7594 187.785 84.9081C185.576 86.1738 183.006 86.9077 180.574 87.5672C171.165 90.0986 160.183 91.5238 150.752 88.4712C148.554 87.7586 146.249 86.8226 144.529 85.2379C142.787 83.6424 141.64 81.2493 140.398 79.2604C137.796 75.1016 135.534 70.6451 133.409 66.2205C132.539 64.4123 131.689 62.7212 130.107 61.4661C129.045 60.6259 127.696 60.1579 126.581 59.3921C125.54 58.6688 124.435 58.0413 123.416 57.2649C121.536 55.8396 119.582 54.5739 117.755 53.0636C117.267 52.6594 116.799 52.2552 116.332 51.8404C117.075 52.0319 117.829 52.2021 118.594 52.3829C121.451 53.0849 124.297 53.5635 127.25 53.4678C128.928 53.4146 130.404 53.6592 132.008 54.1166C133.356 54.4995 134.716 54.5633 136.065 54.8824C139.049 55.5737 141.874 56.3182 144.954 56.531C145.336 56.5522 145.357 55.946 145.007 55.8715C142.288 55.3078 139.548 54.9462 136.872 54.2229C135.523 53.8613 134.153 53.8081 132.804 53.4465C131.54 53.1061 130.34 52.6062 129.098 52.2021C126.591 51.3937 123.702 51.298 121.101 50.8194C119.284 50.4896 116.608 50.1599 114.824 49.075C116.258 48.4794 117.872 48.1603 119.316 47.7136C120.378 47.3839 121.642 47.001 122.683 46.3947C123.395 47.3201 124.892 48.0221 125.699 48.4794C130.786 51.3299 136.436 52.7126 142.192 53.4039C154.162 54.8611 166.778 53.4678 178.418 50.4577C184.132 48.9793 189.623 46.9691 194.859 44.2356C197.407 42.9061 200.052 41.6191 202.452 40.0343C202.622 39.928 202.813 39.8003 203.015 39.6727C203.036 41.2575 202.516 43.0337 202.218 44.4909C201.74 46.8415 201.294 49.2027 200.689 51.5213C199.468 56.2757 198.013 60.9769 196.749 65.7099L196.728 65.6887ZM208.93 57.9987C207.55 61.4129 203.641 59.775 200.838 59.7005C201.486 57.3287 202.123 54.9462 202.76 52.5743C203.323 50.479 203.748 48.3518 204.173 46.2352C204.417 46.2777 204.629 46.299 204.778 46.299C205.914 46.3735 207.04 46.5436 208.176 46.6075C209.323 46.6606 209.759 46.3096 210.226 47.7668C210.385 48.2561 210.449 48.8198 210.577 49.3197C211.256 52.0744 209.971 55.4354 208.941 57.9987H208.93ZM220.995 82.4193C220.645 86.8652 220.708 91.2153 219.243 95.4804C218.574 97.4375 217.777 99.2137 215.993 100.384C214.156 101.596 211.724 102.979 209.493 102.617C208.484 102.447 206.998 102.075 206.668 100.947C206.297 99.703 207.21 98.2565 208.176 97.6289C209.727 96.6185 211.596 96.2569 213.062 95.0656C215.069 93.4277 216.29 89.0669 214.283 87.0566C213.582 86.3546 212.764 86.0568 212.478 84.9932C212.265 84.2274 212.191 82.8554 212.361 82.1108C212.722 80.5048 214.888 79.7496 214.984 78.1436C215.026 77.4309 214.591 76.8991 214.251 76.3248C213.518 75.0591 212.913 73.5169 213.242 72.0384C213.667 70.1452 215.122 68.837 214.846 66.7948C214.442 63.8273 214.612 59.19 211.256 58.4774C211.405 58.0307 211.543 57.5839 211.702 57.1266C212.244 55.478 212.807 53.7762 212.987 52.0532C213.104 50.9364 212.966 49.9153 212.754 48.873C214.602 48.9155 217.034 49.7026 218.043 50.9257C219.105 52.2127 219.073 54.4569 219.402 56.0311C220.273 60.2004 220.761 64.5293 221.112 68.7625C221.484 73.2935 221.388 77.8777 221.038 82.4086L220.995 82.4193Z" fill="#CC7722" stroke="#CC7722" stroke-miterlimit="10"/>
<path d="M207.369 50.8619C206.806 50.5747 206.127 50.6704 205.617 51.0214C205.224 51.2979 205.022 51.6915 204.884 52.1382C204.82 52.3509 204.831 52.5849 204.884 52.7976C204.884 52.8295 204.863 52.8508 204.852 52.8827C204.831 52.9891 204.82 53.1274 204.82 53.2231C204.82 53.3294 204.842 53.4252 204.873 53.5209C204.884 53.5953 204.884 53.5741 204.873 53.4677C204.82 53.1912 204.895 53.606 204.937 53.7123C204.99 53.8506 205.022 53.9144 205.096 54.0102C205.458 54.5313 206.148 54.744 206.743 54.5526C207.475 54.308 208.091 53.6166 208.251 52.8508C208.421 52.0637 208.102 51.2235 207.369 50.8512V50.8619Z" fill="#CC7722" stroke="#CC7722" stroke-miterlimit="10"/>
<path d="M178.004 92.8746C177.653 92.4704 177.144 92.2471 176.602 92.3002C175.763 92.396 175.051 93.0873 174.871 93.9063C174.722 94.5764 175.009 95.2358 175.593 95.5868C175.933 95.8633 176.39 96.0016 176.836 95.8633C177.282 95.7251 177.749 95.4804 178.057 95.1188C178.62 94.4487 178.577 93.5021 178.014 92.864L178.004 92.8746Z" fill="#CC7722" stroke="#CC7722" stroke-miterlimit="10"/>
<path d="M180.819 143.832C179.215 137.727 177.845 131.494 176.963 125.23C176.549 122.283 176.114 119.316 175.657 116.38C175.264 113.86 174.648 111.254 173.108 109.169C170.039 105.032 164.58 107.446 162.127 110.956C158.92 115.54 158.07 121.369 157.443 126.804C157.082 129.984 156.604 133.132 156.551 136.334C156.487 139.663 156.498 142.992 156.636 146.31C156.636 146.385 156.742 146.374 156.742 146.31C156.944 142.96 157.401 139.62 157.634 136.27C157.857 132.994 158.484 129.792 158.994 126.559C159.461 123.592 159.928 120.624 160.842 117.752C161.851 114.551 163.667 110.392 167.055 109.095C174.584 106.202 174.829 119.826 175.689 124.219C177.006 130.899 178.195 137.525 180.118 144.066C180.256 144.534 180.946 144.29 180.829 143.822L180.819 143.832Z" fill="#CC7722" stroke="#CC7722" stroke-miterlimit="10"/>
<path d="M191.81 48.8197C188.656 49.9577 185.459 50.9788 182.347 52.2445C179.151 53.5421 175.816 54.2228 172.449 54.9461C169.571 55.563 166.534 55.7651 163.602 56.0629C162.105 56.2224 160.671 56.148 159.174 56.1373C157.358 56.1267 155.499 56.1905 153.736 55.7225C153.407 55.6374 153.216 56.1586 153.534 56.2969C156.189 57.403 159.545 57.6264 162.402 57.4668C165.61 57.286 168.976 57.0308 172.141 56.499C175.55 55.914 179.108 55.4353 182.337 54.1803C185.703 52.872 189.091 51.4893 192.203 49.628C192.649 49.3621 192.288 48.6389 191.799 48.8197H191.81Z" fill="#CC7722" stroke="#CC7722" stroke-miterlimit="10"/>
</g>
<defs>
<clipPath id="clip0_379_537">
<rect width="97" height="122" fill="white" transform="translate(0 96)"/>
</clipPath>
<clipPath id="clip1_379_537">
<rect width="113" height="156" fill="white" transform="translate(111)"/>
</clipPath>
</defs>
</svg>
