<svg width="55" height="1113" viewBox="0 0 55 1113" fill="none" xmlns="http://www.w3.org/2000/svg">
<path d="M9.534 243.138V256.998C9.534 257.233 9.61467 257.409 9.776 257.526L11.514 258.956V259H3.924V258.956L5.684 257.526C5.83067 257.409 5.904 257.233 5.904 256.998V246.79C5.904 246.541 5.83067 246.394 5.684 246.35L3.638 245.602V245.558L9.534 243.138ZM18.3017 259.22C16.6004 259.22 15.207 258.875 14.1217 258.186C13.051 257.482 12.5157 256.587 12.5157 255.502C12.5157 254.637 12.8384 253.933 13.4837 253.39C14.1437 252.833 15.053 252.451 16.2117 252.246L16.0797 252.158C15.0237 251.439 14.2317 250.757 13.7037 250.112C13.1757 249.452 12.9117 248.645 12.9117 247.692C12.9117 246.372 13.4104 245.316 14.4077 244.524C15.405 243.717 16.6737 243.314 18.2137 243.314C19.607 243.314 20.8097 243.637 21.8217 244.282C22.8337 244.927 23.3397 245.793 23.3397 246.878C23.3397 247.699 23.039 248.367 22.4377 248.88C21.851 249.379 21.0517 249.716 20.0397 249.892L20.8977 250.354C22.027 250.97 22.863 251.608 23.4057 252.268C23.9484 252.928 24.2197 253.749 24.2197 254.732C24.2197 255.993 23.6917 257.057 22.6357 257.922C21.5797 258.787 20.135 259.22 18.3017 259.22ZM18.8737 253.72L16.3877 252.334C15.5957 252.95 15.1997 253.977 15.1997 255.414C15.1997 256.338 15.515 257.13 16.1457 257.79C16.791 258.45 17.583 258.78 18.5217 258.78C19.299 258.78 19.9297 258.575 20.4137 258.164C20.9124 257.739 21.1617 257.152 21.1617 256.404C21.1617 255.847 20.9784 255.37 20.6117 254.974C20.2597 254.578 19.6804 254.16 18.8737 253.72ZM15.7937 245.91C15.7937 246.526 15.9917 247.069 16.3877 247.538C16.7837 247.993 17.4217 248.462 18.3017 248.946L19.8417 249.804C20.4577 249.173 20.7657 248.279 20.7657 247.12C20.7657 246.123 20.5237 245.309 20.0397 244.678C19.5704 244.047 18.9324 243.732 18.1257 243.732C17.4364 243.732 16.8717 243.93 16.4317 244.326C16.0064 244.722 15.7937 245.25 15.7937 245.91ZM30.3506 257.086C30.7906 258.23 31.436 258.802 32.2866 258.802C33.1373 258.802 33.7826 258.23 34.2226 257.086C34.6626 255.927 34.8826 253.984 34.8826 251.256C34.8826 248.513 34.6626 246.577 34.2226 245.448C33.7826 244.304 33.1373 243.732 32.2866 243.732C31.436 243.732 30.7906 244.304 30.3506 245.448C29.9253 246.577 29.7126 248.513 29.7126 251.256C29.7126 253.999 29.9253 255.942 30.3506 257.086ZM27.4026 245.294C28.5613 243.974 30.1893 243.314 32.2866 243.314C34.384 243.314 36.0046 243.974 37.1486 245.294C38.3073 246.614 38.8866 248.609 38.8866 251.278C38.8866 253.947 38.3073 255.942 37.1486 257.262C36.0046 258.567 34.384 259.22 32.2866 259.22C30.1893 259.22 28.5613 258.56 27.4026 257.24C26.2586 255.92 25.6866 253.925 25.6866 251.256C25.6866 248.587 26.2586 246.599 27.4026 245.294ZM51.2976 254.116C51.2976 255.803 50.7036 257.079 49.5156 257.944C48.3276 258.795 46.7142 259.22 44.6756 259.22C42.9596 259.22 41.4196 258.978 40.0556 258.494L41.7276 254.116H41.7716L43.4656 258.428C43.5682 258.677 43.7442 258.802 43.9936 258.802H44.4996C45.3209 258.802 45.9956 258.428 46.5236 257.68C47.0662 256.932 47.3376 255.927 47.3376 254.666C47.3376 253.493 47.0369 252.569 46.4356 251.894C45.8342 251.219 44.9469 250.882 43.7736 250.882C42.9082 250.882 42.0576 251.124 41.2216 251.608L41.1776 251.586L41.5516 243.49L45.9516 243.666C46.6262 243.695 47.1029 243.71 47.3816 243.71C48.5696 243.71 49.4202 243.475 49.9336 243.006L50.5716 242.412H50.6156L50.3736 244.546C50.2709 245.426 49.9702 246.02 49.4716 246.328C48.9729 246.621 48.1809 246.768 47.0956 246.768C46.4502 246.768 45.9736 246.761 45.6656 246.746L41.8376 246.592L41.6396 251.014C43.1796 250.017 44.7489 249.518 46.3476 249.518C47.8582 249.518 49.0609 249.943 49.9556 250.794C50.8502 251.645 51.2976 252.752 51.2976 254.116Z" fill="#231F20"/>
<path d="M10.534 337.138V350.998C10.534 351.233 10.6147 351.409 10.776 351.526L12.514 352.956V353H4.924V352.956L6.684 351.526C6.83067 351.409 6.904 351.233 6.904 350.998V340.79C6.904 340.541 6.83067 340.394 6.684 340.35L4.638 339.602V339.558L10.534 337.138ZM19.3017 353.22C17.6004 353.22 16.207 352.875 15.1217 352.186C14.051 351.482 13.5157 350.587 13.5157 349.502C13.5157 348.637 13.8384 347.933 14.4837 347.39C15.1437 346.833 16.053 346.451 17.2117 346.246L17.0797 346.158C16.0237 345.439 15.2317 344.757 14.7037 344.112C14.1757 343.452 13.9117 342.645 13.9117 341.692C13.9117 340.372 14.4104 339.316 15.4077 338.524C16.405 337.717 17.6737 337.314 19.2137 337.314C20.607 337.314 21.8097 337.637 22.8217 338.282C23.8337 338.927 24.3397 339.793 24.3397 340.878C24.3397 341.699 24.039 342.367 23.4377 342.88C22.851 343.379 22.0517 343.716 21.0397 343.892L21.8977 344.354C23.027 344.97 23.863 345.608 24.4057 346.268C24.9484 346.928 25.2197 347.749 25.2197 348.732C25.2197 349.993 24.6917 351.057 23.6357 351.922C22.5797 352.787 21.135 353.22 19.3017 353.22ZM19.8737 347.72L17.3877 346.334C16.5957 346.95 16.1997 347.977 16.1997 349.414C16.1997 350.338 16.515 351.13 17.1457 351.79C17.791 352.45 18.583 352.78 19.5217 352.78C20.299 352.78 20.9297 352.575 21.4137 352.164C21.9124 351.739 22.1617 351.152 22.1617 350.404C22.1617 349.847 21.9784 349.37 21.6117 348.974C21.2597 348.578 20.6804 348.16 19.8737 347.72ZM16.7937 339.91C16.7937 340.526 16.9917 341.069 17.3877 341.538C17.7837 341.993 18.4217 342.462 19.3017 342.946L20.8417 343.804C21.4577 343.173 21.7657 342.279 21.7657 341.12C21.7657 340.123 21.5237 339.309 21.0397 338.678C20.5704 338.047 19.9324 337.732 19.1257 337.732C18.4364 337.732 17.8717 337.93 17.4317 338.326C17.0064 338.722 16.7937 339.25 16.7937 339.91ZM34.5626 343.276C35.8973 343.276 36.968 343.672 37.7746 344.464C38.5813 345.256 38.9846 346.385 38.9846 347.852C38.9846 349.48 38.4493 350.785 37.3786 351.768C36.3226 352.736 34.9 353.22 33.1106 353.22C31.028 353.22 29.4366 352.538 28.3366 351.174C27.2366 349.795 26.6866 347.859 26.6866 345.366C26.6866 342.741 27.2953 340.746 28.5126 339.382C29.73 338.003 31.534 337.314 33.9246 337.314C35.4353 337.314 36.9313 337.571 38.4126 338.084L36.6746 341.89H36.6306L34.5406 338.04C34.4673 337.908 34.394 337.827 34.3206 337.798C34.262 337.754 34.1446 337.732 33.9686 337.732H33.6826C32.6413 337.732 31.886 338.289 31.4166 339.404C30.9473 340.519 30.7053 342.337 30.6906 344.86C31.6733 343.804 32.964 343.276 34.5626 343.276ZM32.7146 344.288C32.0106 344.288 31.336 344.567 30.6906 345.124V345.366C30.6906 350.323 31.4826 352.802 33.0666 352.802C33.7266 352.802 34.2693 352.421 34.6946 351.658C35.12 350.881 35.3326 349.825 35.3326 348.49C35.3326 347.214 35.12 346.195 34.6946 345.432C34.2693 344.669 33.6093 344.288 32.7146 344.288ZM49.0821 341.23C48.2021 343.958 47.3221 347.881 46.4421 353H41.8221C42.8488 350.741 44.0295 348.446 45.3641 346.114C46.7135 343.782 47.8868 341.934 48.8841 340.57H41.8661C41.6901 340.57 41.5655 340.592 41.4921 340.636C41.4335 340.665 41.3455 340.746 41.2281 340.878L40.0181 342.308H39.9741L40.4801 337.534H51.2381V337.578L49.5661 340.174C49.3901 340.453 49.2288 340.805 49.0821 341.23Z" fill="#231F20"/>
<path d="M9.534 581.138V594.998C9.534 595.233 9.61467 595.409 9.776 595.526L11.514 596.956V597H3.924V596.956L5.684 595.526C5.83067 595.409 5.904 595.233 5.904 594.998V584.79C5.904 584.541 5.83067 584.394 5.684 584.35L3.638 583.602V583.558L9.534 581.138ZM17.2395 591.258C15.9928 591.258 14.9148 590.855 14.0055 590.048C13.0962 589.227 12.6415 588.083 12.6415 586.616C12.6415 585.017 13.1768 583.734 14.2475 582.766C15.3182 581.798 16.7482 581.314 18.5375 581.314C20.6348 581.314 22.2262 581.989 23.3115 583.338C24.3968 584.687 24.9395 586.638 24.9395 589.19C24.9395 591.669 24.3235 593.627 23.0915 595.064C21.8595 596.501 20.0995 597.22 17.8115 597.22C16.2568 597.22 14.7242 596.949 13.2135 596.406L14.8635 592.512H14.9075L17.0635 596.494C17.1368 596.626 17.2028 596.707 17.2615 596.736C17.3202 596.765 17.4448 596.787 17.6355 596.802H17.9875C19.0142 596.802 19.7548 596.245 20.2095 595.13C20.6788 594.015 20.9282 592.204 20.9575 589.696C20.0042 590.737 18.7648 591.258 17.2395 591.258ZM18.9995 590.29C19.6302 590.29 20.2828 589.989 20.9575 589.388V589.19C20.9575 586.506 20.7522 584.592 20.3415 583.448C19.9455 582.304 19.3588 581.732 18.5815 581.732C17.9215 581.732 17.3715 582.121 16.9315 582.898C16.5062 583.675 16.2935 584.753 16.2935 586.132C16.2935 587.364 16.5135 588.369 16.9535 589.146C17.3935 589.909 18.0755 590.29 18.9995 590.29ZM32.4599 597.22C30.7586 597.22 29.3652 596.875 28.2799 596.186C27.2092 595.482 26.6739 594.587 26.6739 593.502C26.6739 592.637 26.9966 591.933 27.6419 591.39C28.3019 590.833 29.2112 590.451 30.3699 590.246L30.2379 590.158C29.1819 589.439 28.3899 588.757 27.8619 588.112C27.3339 587.452 27.0699 586.645 27.0699 585.692C27.0699 584.372 27.5686 583.316 28.5659 582.524C29.5632 581.717 30.8319 581.314 32.3719 581.314C33.7652 581.314 34.9679 581.637 35.9799 582.282C36.9919 582.927 37.4979 583.793 37.4979 584.878C37.4979 585.699 37.1972 586.367 36.5959 586.88C36.0092 587.379 35.2099 587.716 34.1979 587.892L35.0559 588.354C36.1852 588.97 37.0212 589.608 37.5639 590.268C38.1066 590.928 38.3779 591.749 38.3779 592.732C38.3779 593.993 37.8499 595.057 36.7939 595.922C35.7379 596.787 34.2932 597.22 32.4599 597.22ZM33.0319 591.72L30.5459 590.334C29.7539 590.95 29.3579 591.977 29.3579 593.414C29.3579 594.338 29.6732 595.13 30.3039 595.79C30.9492 596.45 31.7412 596.78 32.6799 596.78C33.4572 596.78 34.0879 596.575 34.5719 596.164C35.0706 595.739 35.3199 595.152 35.3199 594.404C35.3199 593.847 35.1366 593.37 34.7699 592.974C34.4179 592.578 33.8386 592.16 33.0319 591.72ZM29.9519 583.91C29.9519 584.526 30.1499 585.069 30.5459 585.538C30.9419 585.993 31.5799 586.462 32.4599 586.946L33.9999 587.804C34.6159 587.173 34.9239 586.279 34.9239 585.12C34.9239 584.123 34.6819 583.309 34.1979 582.678C33.7286 582.047 33.0906 581.732 32.2839 581.732C31.5946 581.732 31.0299 581.93 30.5899 582.326C30.1646 582.722 29.9519 583.25 29.9519 583.91ZM50.6535 592.688C50.6535 594.067 50.0742 595.167 48.9155 595.988C47.7715 596.809 46.1069 597.22 43.9215 597.22C42.2495 597.22 40.7095 596.971 39.3015 596.472L41.0615 592.072H41.1055L42.7335 596.428C42.8362 596.677 43.0195 596.802 43.2835 596.802H43.7675C44.6035 596.802 45.2929 596.443 45.8355 595.724C46.3782 595.005 46.6495 594.074 46.6495 592.93C46.6495 591.801 46.3709 590.913 45.8135 590.268C45.2709 589.623 44.3762 589.219 43.1295 589.058V589.014C45.1682 588.574 46.1875 587.225 46.1875 584.966C46.1875 583.998 45.9822 583.221 45.5715 582.634C45.1755 582.047 44.6549 581.754 44.0095 581.754C43.8042 581.754 43.6429 581.761 43.5255 581.776C43.3495 581.805 43.2102 581.93 43.1075 582.15L41.2375 586.55H41.1935L39.4775 582.568C41.1495 581.732 42.9389 581.314 44.8455 581.314C46.4295 581.314 47.6982 581.659 48.6515 582.348C49.6049 583.023 50.0815 583.947 50.0815 585.12C50.0815 586.161 49.7589 586.983 49.1135 587.584C48.4829 588.171 47.5589 588.589 46.3415 588.838V588.882C47.6615 589.014 48.7102 589.417 49.4875 590.092C50.2649 590.767 50.6535 591.632 50.6535 592.688Z" fill="#231F20"/>
<path d="M11.374 757.494C11.374 758.11 11.2493 758.711 11 759.298C10.7507 759.87 10.4427 760.391 10.076 760.86C9.70933 761.329 9.18867 761.843 8.514 762.4C7.854 762.957 7.23067 763.441 6.644 763.852C6.072 764.248 5.31667 764.747 4.378 765.348L3.41 765.986H9.108C9.40133 765.986 9.592 765.964 9.68 765.92C9.78267 765.876 9.922 765.766 10.098 765.59L11.55 764.006H11.594L10.824 769H0.462V768.956L3.212 765.656C3.97467 764.732 4.64933 763.845 5.236 762.994C6.01333 761.85 6.56333 760.867 6.886 760.046C7.20867 759.21 7.37 758.315 7.37 757.362C7.37 756.174 7.17933 755.279 6.798 754.678C6.41667 754.062 5.88867 753.754 5.214 753.754C4.994 753.754 4.80333 753.776 4.642 753.82C4.49533 753.849 4.38533 753.952 4.312 754.128L2.442 758.55H2.398L0.682 754.568C2.41267 753.732 4.21667 753.314 6.094 753.314C7.79533 753.314 9.10067 753.695 10.01 754.458C10.9193 755.221 11.374 756.233 11.374 757.494ZM17.962 767.086C18.402 768.23 19.0473 768.802 19.898 768.802C20.7486 768.802 21.394 768.23 21.834 767.086C22.274 765.927 22.494 763.984 22.494 761.256C22.494 758.513 22.274 756.577 21.834 755.448C21.394 754.304 20.7486 753.732 19.898 753.732C19.0473 753.732 18.402 754.304 17.962 755.448C17.5366 756.577 17.324 758.513 17.324 761.256C17.324 763.999 17.5366 765.942 17.962 767.086ZM15.014 755.294C16.1726 753.974 17.8006 753.314 19.898 753.314C21.9953 753.314 23.616 753.974 24.76 755.294C25.9186 756.614 26.498 758.609 26.498 761.278C26.498 763.947 25.9186 765.942 24.76 767.262C23.616 768.567 21.9953 769.22 19.898 769.22C17.8006 769.22 16.1726 768.56 15.014 767.24C13.87 765.92 13.298 763.925 13.298 761.256C13.298 758.587 13.87 756.599 15.014 755.294ZM32.9366 767.086C33.3766 768.23 34.0219 768.802 34.8726 768.802C35.7232 768.802 36.3686 768.23 36.8086 767.086C37.2486 765.927 37.4686 763.984 37.4686 761.256C37.4686 758.513 37.2486 756.577 36.8086 755.448C36.3686 754.304 35.7232 753.732 34.8726 753.732C34.0219 753.732 33.3766 754.304 32.9366 755.448C32.5112 756.577 32.2986 758.513 32.2986 761.256C32.2986 763.999 32.5112 765.942 32.9366 767.086ZM29.9886 755.294C31.1472 753.974 32.7752 753.314 34.8726 753.314C36.9699 753.314 38.5906 753.974 39.7346 755.294C40.8932 756.614 41.4726 758.609 41.4726 761.278C41.4726 763.947 40.8932 765.942 39.7346 767.262C38.5906 768.567 36.9699 769.22 34.8726 769.22C32.7752 769.22 31.1472 768.56 29.9886 767.24C28.8446 765.92 28.2726 763.925 28.2726 761.256C28.2726 758.587 28.8446 756.599 29.9886 755.294ZM53.6692 764.688C53.6692 766.067 53.0898 767.167 51.9312 767.988C50.7872 768.809 49.1225 769.22 46.9372 769.22C45.2652 769.22 43.7252 768.971 42.3172 768.472L44.0772 764.072H44.1212L45.7492 768.428C45.8518 768.677 46.0352 768.802 46.2992 768.802H46.7832C47.6192 768.802 48.3085 768.443 48.8512 767.724C49.3938 767.005 49.6652 766.074 49.6652 764.93C49.6652 763.801 49.3865 762.913 48.8292 762.268C48.2865 761.623 47.3918 761.219 46.1452 761.058V761.014C48.1838 760.574 49.2032 759.225 49.2032 756.966C49.2032 755.998 48.9978 755.221 48.5872 754.634C48.1912 754.047 47.6705 753.754 47.0252 753.754C46.8198 753.754 46.6585 753.761 46.5412 753.776C46.3652 753.805 46.2258 753.93 46.1232 754.15L44.2532 758.55H44.2092L42.4932 754.568C44.1652 753.732 45.9545 753.314 47.8612 753.314C49.4452 753.314 50.7138 753.659 51.6672 754.348C52.6205 755.023 53.0972 755.947 53.0972 757.12C53.0972 758.161 52.7745 758.983 52.1292 759.584C51.4985 760.171 50.5745 760.589 49.3572 760.838V760.882C50.6772 761.014 51.7258 761.417 52.5032 762.092C53.2805 762.767 53.6692 763.632 53.6692 764.688Z" fill="#231F20"/>
<circle cx="28" cy="10" r="10" fill="#231F20"/>
<path d="M28 230L28 16" stroke="black" stroke-width="0.7"/>
<circle cx="28" cy="1103" r="10" transform="rotate(-180 28 1103)" fill="#231F20"/>
<path d="M28 787L28 1093" stroke="black" stroke-width="0.7"/>
<path d="M28 324L28 272" stroke="black" stroke-width="0.7"/>
<path d="M28 572L28 367" stroke="black" stroke-width="0.7"/>
<path d="M28 738L28 613" stroke="black" stroke-width="0.7"/>
</svg>
