<svg width="309" height="271" viewBox="0 0 309 271" fill="none" xmlns="http://www.w3.org/2000/svg">
<g clip-path="url(#clip0_235_735)">
<path d="M178.686 114.765C176.504 117.257 173.912 119.436 172.163 122.277C169.824 126.081 168.004 131.197 168.546 135.711C168.16 132.497 195.108 123.902 197.725 122.975C205.73 120.134 214.629 117.811 223.334 118.882C228.952 119.58 243.614 123.866 241.866 131.991C240.853 136.686 234.185 136.301 230.592 136.096C224.66 135.759 218.812 133.556 212.868 134.603C209.408 135.217 205.972 136.276 202.716 137.576C192.648 141.561 183.955 148.434 177.384 157.005C191.443 164.697 207.358 173.087 218.451 184.788C222.936 189.518 223.081 195.116 215.388 195.85C210.927 196.271 206.02 193.948 202.535 191.276C186.789 179.19 167.172 170.716 147.217 169.5C137.318 168.898 128.324 170.764 118.859 173.328C114.651 174.471 105.234 179.238 100.87 178.54C109.358 179.888 129.722 183.56 123.344 196.777C121.017 201.604 116.038 204.469 111.287 206.949C106.536 209.428 101.473 212.04 98.7476 216.651C98.1327 217.698 97.6383 218.866 97.5901 220.081C97.4937 222.561 99.2419 224.764 101.255 226.221C108.562 231.505 117.943 234.502 123.441 242.038C124.562 243.579 125.02 245.757 124.055 247.395C122.838 249.453 119.992 249.838 117.641 249.465C111.094 248.43 105.849 243.591 99.688 241.171C94.9134 239.293 89.6806 238.896 84.8095 237.271C73.3553 233.443 71.8481 222.838 74.8624 212.426C78.2987 200.569 64.0713 206.106 64.0713 206.106C64.0713 206.106 65.6628 201.796 64.0713 206.106C60.6953 215.218 50.2418 218.769 47.1551 228.026C42.9231 240.69 52.5567 259.613 39.957 269.291C38.7513 270.218 37.1116 270.711 35.7009 270.157C34.5675 269.724 33.7476 268.677 33.2895 267.545C31.5291 263.14 31.9029 257.229 31.9149 252.571C31.9149 247.154 32.2646 241.749 32.5057 236.344C32.8313 228.76 30.5645 219.684 32.6022 212.45C36.2917 199.353 38.1364 184.463 23.8487 176.096C-6.08912 158.57 -7.19838 114.007 20.955 93.9887C32.7951 85.5625 47.9991 84.0578 62.1542 80.7114C71.2573 78.5567 80.6016 75.2704 87.8479 69.1795C91.4771 66.122 94.4914 62.4264 96.095 57.9244C97.9398 52.7363 98.4341 47.2351 100.773 42.1673C101.28 41.0599 101.882 39.9525 102.823 39.17C106.621 36.0282 111.046 41.4331 112.577 44.4785C114.506 48.3185 114.856 52.8687 114.362 57.0938C114.157 58.8152 113.843 60.4523 113.445 62.0292C107.236 85.9236 78.1781 93.5193 56.2221 96.2759C12.0207 101.825 12.5753 132.015 12.5753 132.027C12.4909 137.649 13.1902 147.929 19.9784 149.361C33.5668 152.214 45.3827 121.591 53.4007 114.922C64.8309 105.412 81.4094 106.303 96.2156 107.711C112.698 109.264 128.324 115.127 129.674 94.2295C129.674 94.2295 130.53 70.5758 129.795 61.0301C129.373 55.529 135.003 62.7635 135.98 64.1237C139.018 68.3369 142.31 72.3694 147.241 74.4519C151.148 76.089 155.488 76.2575 159.72 76.2094C162.916 76.1733 166.171 76.0288 169.161 74.8852C172.67 73.537 175.455 70.9249 177.854 68.1081C178.385 67.4822 185.04 59.7662 185.221 60.1032C186.246 62.0412 186.246 64.3284 186.282 66.471C186.427 74.5241 186.101 82.5772 185.306 90.5942C184.643 97.3472 184.51 105.581 181.013 111.588C180.35 112.731 179.542 113.766 178.686 114.753V114.765Z" stroke="#231F20" stroke-miterlimit="10"/>
<path d="M64.084 206.13C64.084 206.13 73.8985 177.096 87.6315 173.665" stroke="#231F20" stroke-miterlimit="10" stroke-linecap="round"/>
<path d="M167.076 143.8C167.076 143.8 168.463 151.925 177.373 157.017" stroke="#231F20" stroke-linecap="round" stroke-linejoin="round"/>
<path d="M32.8672 266.185C32.8672 266.185 36.617 265.559 37.5936 258.71" stroke="#231F20" stroke-linecap="round" stroke-linejoin="round"/>
<path d="M36.3887 269.7C36.3887 269.7 41.947 265.126 41.6215 259.901" stroke="#231F20" stroke-linecap="round" stroke-linejoin="round"/>
<path d="M113.783 242.062C113.783 242.062 120.415 245.252 118.401 249.537" stroke="#231F20" stroke-linecap="round" stroke-linejoin="round"/>
<path d="M118.775 240.75C118.775 240.75 125.226 243.699 122.272 248.911" stroke="#231F20" stroke-linecap="round" stroke-linejoin="round"/>
<path d="M207.828 186.894C207.828 186.894 213.411 188.327 213.724 195.778" stroke="#231F20" stroke-linecap="round" stroke-linejoin="round"/>
<path d="M212.193 185.257C212.193 185.257 218.511 188.002 218.837 195.766" stroke="#231F20" stroke-linecap="round" stroke-linejoin="round"/>
<path d="M159.516 89.4386C157.297 91.3646 154.403 92.5322 151.232 92.5322C148.061 92.5322 145.168 91.3646 142.949 89.4386C145.168 87.5126 148.061 86.345 151.232 86.345C154.403 86.345 157.297 87.5126 159.516 89.4386Z" fill="white" stroke="#231F20" stroke-width="0.81" stroke-miterlimit="10"/>
<path d="M151.22 92.5322C152.931 92.5322 154.318 91.1472 154.318 89.4386C154.318 87.73 152.931 86.345 151.22 86.345C149.508 86.345 148.121 87.73 148.121 89.4386C148.121 91.1472 149.508 92.5322 151.22 92.5322Z" fill="#231F20"/>
<path d="M188.791 89.4386C186.573 91.3646 183.679 92.5322 180.508 92.5322C177.337 92.5322 174.443 91.3646 172.225 89.4386C174.443 87.5126 177.337 86.345 180.508 86.345C183.679 86.345 186.573 87.5126 188.791 89.4386Z" fill="white" stroke="#231F20" stroke-width="0.81" stroke-miterlimit="10"/>
<path d="M180.507 92.5322C182.218 92.5322 183.606 91.1472 183.606 89.4386C183.606 87.73 182.218 86.345 180.507 86.345C178.796 86.345 177.408 87.73 177.408 89.4386C177.408 91.1472 178.796 92.5322 180.507 92.5322Z" fill="#231F20"/>
<path d="M234.457 129.238C234.859 127.488 234.153 125.834 232.881 125.543C231.609 125.252 230.252 126.434 229.85 128.184C229.449 129.933 230.154 131.588 231.427 131.879C232.699 132.17 234.056 130.988 234.457 129.238Z" fill="#231F20"/>
<path d="M237.32 128.32C237.933 128.32 238.429 127.824 238.429 127.212C238.429 126.601 237.933 126.105 237.32 126.105C236.708 126.105 236.211 126.601 236.211 127.212C236.211 127.824 236.708 128.32 237.32 128.32Z" fill="#231F20"/>
<path d="M235.824 133.424C236.437 133.424 236.933 132.928 236.933 132.316C236.933 131.704 236.437 131.209 235.824 131.209C235.211 131.209 234.715 131.704 234.715 132.316C234.715 132.928 235.211 133.424 235.824 133.424Z" fill="#231F20"/>
<path d="M237.984 131.281C238.597 131.281 239.094 130.785 239.094 130.173C239.094 129.562 238.597 129.066 237.984 129.066C237.372 129.066 236.875 129.562 236.875 130.173C236.875 130.785 237.372 131.281 237.984 131.281Z" fill="#231F20"/>
<path d="M186.259 103.173L176.203 101.007" stroke="#231F20" stroke-miterlimit="10" stroke-linecap="round"/>
<path d="M188.465 98.9843L176.42 98.6472" stroke="#231F20" stroke-miterlimit="10" stroke-linecap="round"/>
<path d="M144.299 97.8046L157.489 97.7083" stroke="#231F20" stroke-miterlimit="10" stroke-linecap="round"/>
<path d="M145.639 102.09L157.491 99.9232" stroke="#231F20" stroke-miterlimit="10" stroke-linecap="round"/>
<path d="M156.38 0.421326C156.38 0.421326 203.391 2.564 182.978 8.73923C176.142 10.8097 166.737 13.169 157.272 15.1793C138.487 19.1517 119.497 21.6916 119.955 17.5988C120.655 11.4356 164.169 4.11684 164.169 4.11684C164.169 4.11684 164.169 23.124 172.09 19.6933C180.024 16.2627 162.831 16.7923 162.831 16.7923C162.831 16.7923 132.748 21.6193 129.251 27.7825C125.755 33.9457 164.711 30.7317 164.711 30.7317C164.711 30.7317 146.433 14.3728 134.086 14.9145C121.74 15.4561 164.977 25.375 164.977 25.375C164.977 25.375 194.878 5.72986 177.601 5.2604C160.323 4.79093 149.929 12.7718 149.929 12.7718C149.929 12.7718 196.205 14.9145 188.102 22.161C180.012 29.4076 145.36 26.7232 145.36 26.7232" stroke="#CC7722" stroke-width="0.7" stroke-miterlimit="10"/>
<path d="M285.634 246.407L248.836 260.287C246.472 261.177 245.46 257.662 246.569 252.45L262.605 176.927C263.714 171.703 266.523 166.755 268.887 165.865L305.685 151.985C308.048 151.095 309.061 154.61 307.952 159.822L291.916 235.345C290.806 240.569 287.997 245.517 285.634 246.407Z" stroke="#231F20" stroke-miterlimit="10"/>
<path d="M251.464 232.155L192.312 230.554C191.395 230.518 190.479 230.674 189.647 231.036L156.454 252.787C155.562 253.172 155.827 254.497 156.791 254.509L246.111 255.291" stroke="#231F20" stroke-miterlimit="10"/>
<path d="M247.438 260.226L159.276 258.818C158.444 258.806 157.709 258.288 157.419 257.506L155.912 253.413" stroke="#231F20" stroke-miterlimit="10"/>
<path d="M250.463 234.647L222.406 233.9C221.984 233.888 221.562 233.961 221.188 234.129L201.801 251.644C201.511 251.764 201.596 252.173 201.909 252.173L246.569 252.438" stroke="#231F20" stroke-miterlimit="10"/>
</g>
<defs>
<clipPath id="clip0_235_735">
<rect width="309" height="271" fill="white"/>
</clipPath>
</defs>
</svg>
